<svg width="100%" height="100%" overflow="visible" viewBox="0 0 46.9832 39" fill="none" xmlns="http://www.w3.org/2000/svg">
<g id="Group 1987300154">
<path id="Vector" d="M21.25 2C25.4272 2 29.4332 3.65937 32.3869 6.61307C35.3406 9.56677 37 13.5728 37 17.75M21.25 9C23.5706 9 25.7962 9.92187 27.4372 11.5628C29.0781 13.2038 30 15.4294 30 17.75M22.706 27.494C23.0674 27.66 23.4746 27.6979 23.8605 27.6015C24.2463 27.5051 24.5878 27.2802 24.8288 26.9637L25.45 26.15C25.776 25.7153 26.1988 25.3625 26.6848 25.1195C27.1707 24.8765 27.7066 24.75 28.25 24.75H33.5C34.4283 24.75 35.3185 25.1187 35.9749 25.7751C36.6313 26.4315 37 27.3217 37 28.25V33.5C37 34.4283 36.6313 35.3185 35.9749 35.9749C35.3185 36.6313 34.4283 37 33.5 37C25.1457 37 17.1335 33.6813 11.2261 27.7739C5.31874 21.8665 2 13.8543 2 5.5C2 4.57174 2.36875 3.6815 3.02513 3.02513C3.6815 2.36875 4.57174 2 5.5 2H10.75C11.6783 2 12.5685 2.36875 13.2249 3.02513C13.8813 3.6815 14.25 4.57174 14.25 5.5V10.75C14.25 11.2934 14.1235 11.8293 13.8805 12.3152C13.6375 12.8012 13.2847 13.224 12.85 13.55L12.031 14.1643C11.7097 14.4096 11.4833 14.7585 11.3901 15.1519C11.297 15.5452 11.3429 15.9587 11.52 16.322C13.9117 21.1798 17.8452 25.1084 22.706 27.494Z" stroke="var(--stroke-0, #1750B7)" stroke-width="3" stroke-linecap="round" stroke-linejoin="round"/>
</g>
</svg>
