<svg width="100%" height="100%" overflow="visible" viewBox="0 0 42.2 39.9832" fill="none" xmlns="http://www.w3.org/2000/svg">
<g id="Group 1987300156">
<path id="Vector" d="M23.3705 0.68833C24.6777 0.399675 26.1274 0.0723609 27.5268 0.519385C28.9841 0.985014 29.9752 2.11294 30.8734 3.12681C31.415 3.73768 31.8984 4.27962 32.4203 4.65317C32.9531 5.03484 33.636 5.32496 34.4018 5.64829C35.6485 6.17522 37.0355 6.75319 37.9262 7.95688L38.0834 8.18442C38.8256 9.33479 38.9499 10.7079 39.0678 11.9491C39.1454 12.771 39.2175 13.5032 39.4242 14.1307C39.6179 14.717 39.9863 15.3248 40.4037 16.0106C41.11 17.169 41.8996 18.4522 41.8998 19.9901C41.8998 21.528 41.1101 22.8115 40.4047 23.9706C39.9872 24.6565 39.6181 25.2651 39.4252 25.8504C39.2701 26.321 39.1909 26.8515 39.1283 27.4334L39.0688 28.0331C38.943 29.3576 38.8104 30.8314 37.9271 32.0252C37.0366 33.2289 35.6494 33.8069 34.4027 34.3338V34.3348C33.637 34.6581 32.9541 34.9473 32.4213 35.329C31.8992 35.7025 31.4161 36.2453 30.8744 36.8563C29.9764 37.8692 28.9851 38.9981 27.5277 39.4637C27.0298 39.623 26.5272 39.6834 26.0297 39.6834C25.1265 39.6834 24.2196 39.4815 23.3705 39.2938C22.5386 39.1101 21.7945 38.9471 21.1 38.9471C20.4055 38.9471 19.6605 39.1101 18.8295 39.2938C17.5231 39.5825 16.0726 39.9107 14.6732 39.4637C13.216 38.9981 12.2246 37.8702 11.3266 36.8573C10.7849 36.2463 10.3017 35.7035 9.77969 35.3299C9.24686 34.9483 8.56397 34.6581 7.79824 34.3348C6.55149 33.8079 5.16446 33.2299 4.27383 32.0262C3.3913 30.8333 3.258 29.3588 3.13223 28.035C3.05371 27.2123 2.98261 26.48 2.77578 25.8524C2.58209 25.2661 2.21369 24.6583 1.79629 23.9725C1.09009 22.8119 0.300195 21.5282 0.300195 19.9901C0.300359 18.4524 1.09013 17.1696 1.79629 16.0106C2.21377 15.3247 2.5829 14.716 2.77578 14.1307C2.98262 13.5031 3.05457 12.7695 3.13223 11.9481L3.18105 11.4452C3.30274 10.2598 3.50071 8.99987 4.27383 7.95591L4.44668 7.73813C5.337 6.68073 6.62949 6.14128 7.79824 5.64731C8.56397 5.32398 9.24686 5.03484 9.77969 4.65317V4.6522C10.3016 4.27865 10.785 3.73667 11.3266 3.12583C12.2247 2.11283 13.2159 0.985001 14.6732 0.519385C16.0726 0.0723647 17.5231 0.399665 18.8295 0.68833C19.6614 0.872077 20.4055 1.03501 21.1 1.03501C21.7945 1.03501 22.5395 0.872054 23.3705 0.68833ZM26.8539 2.57798C26.4628 2.45292 26.0107 2.43886 25.4984 2.49399C25.242 2.52159 24.9764 2.56561 24.7016 2.61899L23.849 2.79966C22.9822 2.99153 22.0479 3.1981 21.1 3.1981C20.1521 3.1981 19.2173 2.99064 18.351 2.79966C17.7647 2.67003 17.2147 2.54911 16.7016 2.49399C16.1893 2.439 15.7372 2.45326 15.3461 2.57798C14.928 2.71158 14.5379 2.97091 14.1469 3.32017C13.7546 3.67054 13.3769 4.09599 12.974 4.55063V4.55161C12.4082 5.18963 11.7968 5.88106 11.0648 6.40513C10.3228 6.93604 9.45876 7.30026 8.65859 7.63755C8.09858 7.87419 7.574 8.0962 7.11758 8.35337C6.66212 8.61002 6.29514 8.89066 6.04238 9.23228C5.79411 9.56784 5.63762 9.99257 5.53066 10.494C5.42344 10.9968 5.36974 11.5539 5.31289 12.1493C5.23179 13.0059 5.14582 13.932 4.85879 14.8006C4.58425 15.6332 4.10917 16.4091 3.67227 17.1258C3.35503 17.647 3.05913 18.1348 2.84023 18.6151C2.62217 19.0936 2.49063 19.5457 2.49063 19.9901C2.49069 20.4344 2.62219 20.8866 2.84023 21.3651C3.05907 21.8452 3.35518 22.3325 3.67227 22.8534C4.10827 23.5699 4.58348 24.3463 4.85879 25.1786V25.1795C5.14489 26.048 5.23101 26.9745 5.31289 27.8309C5.3693 28.4255 5.42342 28.9817 5.53066 29.4842C5.6377 29.9857 5.794 30.4108 6.04238 30.7469C6.29517 31.0887 6.66215 31.3691 7.11758 31.6258C7.34577 31.7544 7.59074 31.8748 7.84902 31.992L8.65859 32.3426L9.26797 32.6024C9.88282 32.872 10.5084 33.176 11.0648 33.5741C11.7969 34.0982 12.4081 34.7905 12.974 35.4286C13.3774 35.8833 13.7556 36.3087 14.1479 36.659C14.5387 37.0081 14.928 37.2682 15.3461 37.4022C15.7372 37.5272 16.1893 37.5413 16.7016 37.4862C17.2146 37.431 17.7642 37.3092 18.351 37.1795C19.2173 36.9886 20.1521 36.7811 21.1 36.7811C21.8109 36.7811 22.5142 36.898 23.1869 37.037L23.849 37.1795L24.7006 37.3602C24.9756 37.4136 25.2417 37.4576 25.4984 37.4852C26.0108 37.5402 26.4627 37.5269 26.8539 37.4022C27.2725 37.2686 27.6621 37.0083 28.0531 36.659C28.4454 36.3086 28.823 35.8833 29.226 35.4286C29.7919 34.7905 30.4031 34.0982 31.1352 33.5741C31.6917 33.1759 32.3168 32.872 32.932 32.6024L33.5414 32.3417C34.1014 32.105 34.626 31.883 35.0824 31.6258C35.538 31.3691 35.9049 31.0886 36.1576 30.7469C36.406 30.4113 36.5623 29.9867 36.6693 29.4852C36.7766 28.9826 36.8307 28.4261 36.8871 27.8309C36.9682 26.9743 37.0543 26.0482 37.3412 25.1795C37.6157 24.3469 38.0908 23.5701 38.5277 22.8534C38.8448 22.3325 39.1409 21.8452 39.3598 21.3651C39.5778 20.8866 39.7093 20.4344 39.7094 19.9901C39.7094 19.5457 39.5778 19.0936 39.3598 18.6151C39.2503 18.3749 39.122 18.1326 38.9809 17.8856L38.5277 17.1258C38.0917 16.4092 37.6165 15.633 37.3412 14.8006C37.0541 13.9319 36.969 13.0054 36.8871 12.1493C36.8307 11.5545 36.7766 10.9977 36.6693 10.495C36.5623 9.9935 36.406 9.56838 36.1576 9.23228C35.9049 8.89066 35.5379 8.61002 35.0824 8.35337C34.626 8.0962 34.1014 7.87419 33.5414 7.63755C32.7427 7.29975 31.8773 6.93606 31.1352 6.40513C30.4041 5.88112 29.792 5.1898 29.226 4.55161C28.8225 4.09678 28.4445 3.67057 28.0521 3.32017C27.6614 2.97126 27.2719 2.71194 26.8539 2.57798Z" fill="var(--fill-0, #1750B7)" stroke="var(--stroke-0, #1750B7)" stroke-width="0.6"/>
<path id="Vector_2" d="M29.975 10.7459C30.3169 10.2418 30.9942 10.1183 31.4828 10.4852C31.9624 10.8454 32.0662 11.5346 31.7309 12.0292L20.0482 29.2391C19.8601 29.5158 19.5582 29.6917 19.225 29.7088C19.2014 29.7105 19.1796 29.7108 19.1703 29.7108C18.8922 29.7107 18.6283 29.599 18.4311 29.4042L18.351 29.3163L10.5268 19.7157H10.5258C10.1487 19.2519 10.1976 18.5576 10.641 18.1561V18.1551C11.0947 17.7465 11.7799 17.8048 12.1654 18.2762H12.1664L19.0932 26.7743L29.975 10.7459Z" fill="var(--fill-0, #1750B7)" stroke="var(--stroke-0, #1750B7)" stroke-width="0.6"/>
</g>
</svg>
