<svg width="100%" height="100%" overflow="visible" viewBox="0 0 46.3572 46.2453" fill="none" xmlns="http://www.w3.org/2000/svg">
<path id="Vector" d="M45.4471 26.3326L39.137 17.6591C38.4566 16.7239 37.445 16.2088 36.2885 16.2088H23.0777C23.5397 15.4435 23.9212 14.7474 24.1821 14.1601C25.8652 10.3691 25.0333 5.85903 22.1118 2.9375C20.2175 1.04327 17.6897 0 14.9941 0C12.2985 0 9.77058 1.04318 7.87626 2.9375C4.95483 5.85903 4.12278 10.3691 5.80615 14.1601C6.06695 14.7475 6.44846 15.4435 6.91038 16.2088H3.33269C1.495 16.2088 0 17.7039 0 19.5415V40.2775C0 40.9112 0.513787 41.425 1.14746 41.425H5.60732C5.70508 44.0994 7.90995 46.2453 10.6079 46.2453C13.3058 46.2453 15.5107 44.0994 15.6085 41.425H30.8857C30.9835 44.0994 33.1883 46.2453 35.8862 46.2453C38.5842 46.2453 40.7891 44.0994 40.8869 41.425H45.2098C45.8434 41.425 46.3572 40.9112 46.3572 40.2775V29.1314C46.3572 28.0901 46.0595 27.1746 45.447 26.3327L45.4471 26.3326ZM42.2654 25.8602H33.6622V21.9484H39.4195L42.2654 25.8602ZM9.49905 4.56019C10.9599 3.09934 12.9114 2.29492 14.9941 2.29492C17.0768 2.29492 19.0282 3.09943 20.4891 4.56019C22.7441 6.81537 23.3853 10.299 22.0845 13.2288C21.2334 15.1458 18.674 18.7459 16.6173 21.6386C16.0429 22.4466 15.4869 23.2287 14.994 23.9369C14.5012 23.2289 13.9453 22.447 13.371 21.6392C11.3144 18.7463 8.75476 15.1459 7.90344 13.2288C6.60258 10.299 7.24369 6.81537 9.49886 4.56019H9.49905ZM10.608 43.9504C9.1135 43.9504 7.89765 42.7346 7.89765 41.24C7.89765 39.7455 9.1135 38.5296 10.608 38.5296C12.1024 38.5296 13.3184 39.7456 13.3184 41.24C13.3184 42.7345 12.1025 43.9504 10.608 43.9504ZM10.608 36.2347C8.60164 36.2347 6.86824 37.4218 6.07071 39.1301H2.29492V37.1526H4.00317V34.8577H2.29492V19.5414C2.29492 18.9693 2.76042 18.5037 3.33269 18.5037H8.3839C9.3608 19.9587 10.463 21.5091 11.5008 22.9689C12.481 24.3476 13.4068 25.6497 14.0346 26.6071C14.2468 26.9305 14.6075 27.1253 14.9942 27.1253C15.3809 27.1253 15.7417 26.9305 15.9537 26.6071C16.5817 25.6494 17.5076 24.3471 18.4878 22.9682C19.5255 21.5087 20.6275 19.9584 21.6043 18.5036H27.6933V39.1299H15.1453C14.3477 37.4216 12.6143 36.2345 10.608 36.2345V36.2347ZM35.8863 43.9504C34.3919 43.9504 33.176 42.7346 33.176 41.24C33.176 39.7455 34.3919 38.5296 35.8863 38.5296C37.3808 38.5296 38.5967 39.7456 38.5967 41.24C38.5967 42.7345 37.3809 43.9504 35.8863 43.9504ZM40.4237 39.1301C39.626 37.4218 37.8926 36.2347 35.8863 36.2347C33.88 36.2347 32.1466 37.4218 31.3491 39.1301H29.9882V18.5037H36.2885C36.7032 18.5037 37.0372 18.6738 37.2812 19.0091L37.7499 19.6533H32.5146C31.881 19.6533 31.3672 20.1671 31.3672 20.8008V27.0076C31.3672 27.6412 31.881 28.155 32.5146 28.155H43.8661C43.9993 28.455 44.0624 28.7702 44.0624 29.1313V34.8576H42.3542V37.1525H44.0624V39.13H40.4236L40.4237 39.1301ZM35.1584 30.0329C35.1584 30.6666 34.6446 31.1804 34.0109 31.1804H32.5147C31.8811 31.1804 31.3673 30.6666 31.3673 30.0329C31.3673 29.3992 31.8811 28.8854 32.5147 28.8854H34.0109C34.6446 28.8854 35.1584 29.3992 35.1584 30.0329ZM14.994 15.0643C16.332 15.0643 17.5899 14.5433 18.536 13.5972C19.4821 12.6512 20.0031 11.3933 20.0031 10.0552C20.0031 8.71722 19.4821 7.45941 18.536 6.51326C17.5899 5.56721 16.332 5.04617 14.994 5.04617C13.656 5.04617 12.3982 5.56721 11.452 6.51326C9.49914 8.46633 9.49914 11.6442 11.452 13.5972C12.3982 14.5434 13.6561 15.0643 14.994 15.0643ZM13.0748 8.13596C13.5875 7.62345 14.2691 7.341 14.994 7.341C15.7189 7.341 16.4006 7.62336 16.9132 8.13596C17.4259 8.64855 17.7082 9.33023 17.7082 10.0552C17.7082 10.7801 17.4259 11.4618 16.9132 11.9744C16.4006 12.487 15.719 12.7694 14.994 12.7694C14.269 12.7694 13.5875 12.487 13.0748 11.9744C12.0166 10.9161 12.0167 9.19428 13.0748 8.13596Z" fill="var(--fill-0, #1750B7)"/>
</svg>
