<svg width="100%" height="100%" overflow="visible" viewBox="0 0 43 40.1333" fill="none" xmlns="http://www.w3.org/2000/svg">
<g id="Group">
<path id="Vector" d="M41.5667 28.6667H39.8693C40.0392 28.2076 40.1285 27.7227 40.1333 27.2333V7.16667C40.1306 4.79298 38.207 2.86935 35.8333 2.86667H15.7667C13.393 2.86935 11.4694 4.79298 11.4667 7.16667V27.2333C11.4715 27.7227 11.5608 28.2076 11.7307 28.6667H10.0333C9.24213 28.6657 8.60099 28.0245 8.6 27.2333V1.43333C8.6 0.641685 7.95831 0 7.16667 0H1.43333C0.641685 0 0 0.641685 0 1.43333C0 2.22498 0.641685 2.86667 1.43333 2.86667H5.73333V27.2333C5.73951 29.3697 7.31555 31.1764 9.43133 31.4726C8.89267 32.3544 8.6052 33.3667 8.6 34.4C8.6 37.5664 11.1669 40.1333 14.3333 40.1333C17.4997 40.1333 20.0667 37.5664 20.0667 34.4C20.0608 33.3905 19.7856 32.4009 19.2692 31.5333H29.4642C28.9479 32.4009 28.6725 33.3905 28.6668 34.4C28.6668 37.5664 31.2337 40.1333 34.4001 40.1333C37.5665 40.1333 40.1334 37.5664 40.1334 34.4C40.1276 33.3905 39.8523 32.4009 39.336 31.5333H41.5667C42.3583 31.5333 43 30.8916 43 30.1C43 29.3084 42.3583 28.6667 41.5667 28.6667ZM14.3333 7.16667C14.3343 6.37547 14.9755 5.73432 15.7667 5.73333H35.8333C36.6245 5.73432 37.2657 6.37547 37.2667 7.16667V27.2333C37.2657 28.0245 36.6245 28.6657 35.8333 28.6667H15.7667C14.9755 28.6657 14.3343 28.0245 14.3333 27.2333V7.16667ZM14.3333 37.2667C12.7501 37.2667 11.4667 35.9832 11.4667 34.4C11.4667 32.8168 12.7501 31.5333 14.3333 31.5333C15.9165 31.5333 17.2 32.8168 17.2 34.4C17.1986 35.9827 15.916 37.2652 14.3333 37.2667ZM34.4 37.2667C32.8168 37.2667 31.5333 35.9832 31.5333 34.4C31.5333 32.8168 32.8168 31.5333 34.4 31.5333C35.9832 31.5333 37.2667 32.8168 37.2667 34.4C37.2652 35.9827 35.9827 37.2652 34.4 37.2667Z" fill="var(--fill-0, #1750B7)"/>
<path id="Vector_2" d="M18.6333 14.3333H24.3667C25.1583 14.3333 25.8 13.6916 25.8 12.9C25.8 12.1084 25.1583 11.4667 24.3667 11.4667H18.6333C17.8417 11.4667 17.2 12.1084 17.2 12.9C17.2 13.6916 17.8417 14.3333 18.6333 14.3333Z" fill="var(--fill-0, #1750B7)"/>
</g>
</svg>
