<svg width="100%" height="100%" overflow="visible" viewBox="0 0 46.9833 39" fill="none" xmlns="http://www.w3.org/2000/svg">
<g id="Group 1987300154">
<path id="Vector" d="M1.4071 2.81411H5.48886C5.73441 2.81411 5.95471 2.97847 6.02473 3.21382L7.81611 9.23566C7.8169 9.23816 7.81759 9.24067 7.81833 9.24318L13.059 26.8602C13.0606 26.8655 13.0621 26.8708 13.0638 26.8761L14.3664 31.2549C14.7749 32.6279 16.0318 33.6003 17.4537 33.6629C16.8044 34.2192 16.3924 35.0446 16.3924 35.9667C16.3924 37.6419 17.7505 39 19.4258 39C21.1011 39 22.4591 37.6419 22.4591 35.9667C22.4591 35.0464 22.0488 34.2226 21.4018 33.6663H32.2277C31.5807 34.2226 31.1704 35.0464 31.1704 35.9667C31.1704 37.6419 32.5284 39 34.2037 39C35.879 39 37.2371 37.6419 37.2371 35.9667C37.2371 35.0464 36.8267 34.2226 36.1797 33.6663H39.7778C40.5549 33.6663 41.1849 33.0363 41.1849 32.2592C41.1849 31.4821 40.5549 30.8521 39.7778 30.8521H17.5996C17.354 30.8521 17.1336 30.6877 17.0637 30.4524L16.2921 27.8587H37.4371C39.2172 27.8587 40.7946 26.7908 41.4558 25.1379L46.7486 11.9059C47.1527 10.8957 47.0298 9.75472 46.4198 8.85378C45.8097 7.9528 44.796 7.41488 43.708 7.41488H10.2104L8.72199 2.41145C8.29967 0.991628 6.97015 0 5.48886 0H1.4071C0.630022 0 4.29749e-05 0.629923 4.29749e-05 1.40706C9.99454e-05 2.18419 0.630022 2.81411 1.4071 2.81411ZM43.7081 10.229C43.9208 10.229 44.0384 10.3558 44.0896 10.4315C44.1408 10.5071 44.2149 10.6634 44.1359 10.8609L38.8431 24.0928C38.6118 24.6711 38.0599 25.0447 37.4372 25.0447H15.4551L11.0477 10.229H43.7081Z" fill="var(--fill-0, #1750B7)"/>
<path id="Vector_2" d="M27.7582 21.6481C28.4537 21.3014 28.7846 20.5529 28.4971 19.9761L26.0391 15.0443C25.7517 14.4676 24.9549 14.281 24.2593 14.6276C23.5638 14.9743 23.233 15.7228 23.5205 16.2996L25.9785 21.2314C26.266 21.8081 27.0628 21.9947 27.7582 21.6481Z" fill="var(--fill-0, #1750B7)"/>
<path id="Vector_3" d="M26.0911 21.2233C26.6936 21.714 27.5799 21.6234 28.0706 21.0208L32.2666 15.868C32.7573 15.2655 32.6667 14.3792 32.064 13.8885C31.4614 13.3978 30.5752 13.4885 30.0845 14.0911L25.8885 19.2438C25.3978 19.8464 25.4885 20.7326 26.0911 21.2233Z" fill="var(--fill-0, #1750B7)"/>
</g>
</svg>
