<svg width="100%" height="100%" overflow="visible" viewBox="0 0 55 55" fill="none" xmlns="http://www.w3.org/2000/svg">
<g id="Layer_1">
<path id="Vector" d="M15.2333 53.2812H44.4257C46.8724 53.2812 48.8627 51.291 48.8627 48.8446V43.9389V27.9712V23.3215C48.8627 20.8751 46.8724 18.8848 44.4257 18.8848H43.6441L43.8453 18.4564C44.2889 17.5173 44.338 16.4599 43.9834 15.4797C43.6296 14.5015 42.9176 13.7189 41.9772 13.2754L18.1866 2.09011C17.2433 1.647 16.1859 1.59706 15.2086 1.94996C14.2313 2.30244 13.4491 3.0162 13.0064 3.95866L11.9281 6.2515C11.9272 6.25329 11.9255 6.25428 11.9247 6.25607L9.75441 10.866C9.75215 10.8707 9.75284 10.8762 9.75069 10.881L6.50867 17.7741C5.59475 19.7207 6.43314 22.0475 8.37807 22.9614L10.7896 24.0936V30.6421H6.99669C6.5221 30.6421 6.13731 31.0269 6.13731 31.5015V40.6642C6.13731 41.1388 6.5221 41.5236 6.99669 41.5236H10.7896V48.8446C10.7896 51.291 12.7832 53.2812 15.2333 53.2812ZM47.1439 43.0795H30.1335C28.6812 43.0795 27.5 41.8983 27.5 40.446V31.4641C27.5 30.0118 28.6812 28.8306 30.1335 28.8306H47.1439V43.0795ZM13.1154 7.76574L36.7672 18.8848H28.8302L11.6784 10.821L13.1154 7.76574ZM14.562 4.69006C14.8095 4.1626 15.2464 3.76354 15.7919 3.56674C16.0319 3.4803 16.2803 3.43708 16.5287 3.43708C16.8447 3.43708 17.1602 3.50716 17.4556 3.64563L41.245 14.8301C41.7707 15.0781 42.169 15.5162 42.367 16.0638C42.5647 16.6109 42.5378 17.2001 42.2902 17.7242L41.7448 18.8848H40.8066L13.8468 6.21069L14.562 4.69006ZM8.06461 18.5047L10.9469 12.3763L24.7911 18.8848H15.2333C14.9473 18.8848 14.6695 18.9173 14.3984 18.9691C14.31 18.986 14.2271 19.0147 14.1407 19.0367C13.9608 19.0825 13.784 19.1334 13.6136 19.2004C13.5187 19.2377 13.4288 19.2817 13.3372 19.3252C13.1838 19.3981 13.0356 19.4773 12.8924 19.5666C12.805 19.6211 12.7203 19.6769 12.6371 19.7371C12.4988 19.8372 12.3696 19.9461 12.244 20.061C12.1725 20.1264 12.0995 20.1887 12.0325 20.2586C11.8994 20.397 11.7805 20.547 11.6661 20.7016C11.6222 20.761 11.5722 20.8148 11.5312 20.8764C11.3841 21.0977 11.2553 21.3315 11.1493 21.5781C11.1283 21.6268 11.1171 21.6798 11.0979 21.7294C11.0311 21.9016 10.9643 22.0739 10.9193 22.2556L9.10862 21.4055C8.02181 20.8948 7.5531 19.5936 8.06461 18.5047ZM12.5084 23.5476V23.3215C12.5084 21.823 13.7307 20.6036 15.2333 20.6036H28.6384H40.6151H42.2906H44.4257C45.9245 20.6036 47.1439 21.823 47.1439 23.3215V27.1119H30.1335C27.7337 27.1119 25.7812 29.0643 25.7812 31.4641V40.446C25.7812 42.8458 27.7337 44.7983 30.1335 44.7983H47.1439V48.8446C47.1439 50.3431 45.9245 51.5625 44.4257 51.5625H15.2333C13.7307 51.5625 12.5084 50.3431 12.5084 48.8446V41.5236H17.425C18.8718 41.5236 20.2377 40.9546 21.2683 39.9244C22.2938 38.9077 22.859 37.541 22.859 36.0761C22.859 33.0796 20.4215 30.6421 17.425 30.6421H12.5084V23.5476ZM7.85606 32.3608H11.649H17.425C19.4736 32.3608 21.1403 34.0276 21.1403 36.0761C21.1403 37.079 20.7559 38.0122 20.0556 38.7063C19.3473 39.4146 18.4128 39.8048 17.425 39.8048H11.649H7.85606V32.3608Z" fill="var(--fill-0, #1750B7)"/>
</g>
</svg>
