<svg width="100%" height="100%" overflow="visible" viewBox="0 0 105 105" fill="none" xmlns="http://www.w3.org/2000/svg">
<g id="Layer_1" clip-path="url(#clip0_0_111)">
<path id="Vector" fill-rule="evenodd" clip-rule="evenodd" d="M20.8109 65.7235L20.8176 65.7168C23.6676 62.4629 27.5189 60.2492 31.765 59.4242C36.0112 58.5992 40.4111 59.2097 44.2722 61.1597C44.452 61.2514 44.651 61.2992 44.8528 61.2992V61.3021H70.0101C71.2346 61.3076 72.4266 61.6961 73.419 62.4133C74.4115 63.1305 75.1546 64.1403 75.5442 65.3011L75.4726 65.3729L75.6082 65.5064C75.8583 66.3751 75.9035 67.2901 75.7401 68.1793C75.5767 69.0684 75.2092 69.9076 74.6666 70.6307C74.1239 71.3538 73.4209 71.9411 72.6128 72.3464C71.8047 72.7518 70.9136 72.9641 70.0095 72.9667H48.6385C48.4651 72.9605 48.2922 72.9893 48.1302 73.0514C47.9681 73.1135 47.8202 73.2076 47.6954 73.3282C47.5705 73.4487 47.4712 73.5931 47.4033 73.7528C47.3355 73.9126 47.3005 74.0843 47.3005 74.2579C47.3005 74.4314 47.3355 74.6032 47.4033 74.7629C47.4712 74.9226 47.5705 75.0671 47.6954 75.1876C47.8202 75.3081 47.9681 75.4022 48.1302 75.4643C48.2922 75.5264 48.4651 75.5552 48.6385 75.549H70.0101C72.2401 75.5436 74.3772 74.6554 75.954 73.0785C77.5308 71.5017 78.4191 69.3646 78.4245 67.1347C78.4241 66.8003 78.4041 66.4662 78.3646 66.1341L95.0889 49.4098C96.1844 48.3208 97.6663 47.7095 99.211 47.7095C100.756 47.7095 102.238 48.3208 103.333 49.4098C103.866 49.9404 104.289 50.5717 104.576 51.2669C104.863 51.9621 105.01 52.7074 105.007 53.4597C104.998 55.0329 104.393 56.5442 103.314 57.6888L75.2212 87.5391C74.8366 87.9576 74.3703 88.2926 73.851 88.5235L73.8492 88.5186C73.3243 88.7401 72.7596 88.8514 72.1899 88.8457H39.603C39.4318 88.8456 39.2623 88.8794 39.1042 88.9451C38.9461 89.0109 38.8026 89.1073 38.682 89.2288L35.8189 91.7182L20.8109 65.7235ZM13.7857 73.3418H13.6233C13.2888 73.3299 12.972 73.1886 12.7396 72.9478C12.5072 72.7069 12.3773 72.3853 12.3773 72.0506C12.3773 71.7159 12.5072 71.3943 12.7396 71.1534C12.972 70.9126 13.2888 70.7714 13.6233 70.7594H13.7857C14.1202 70.7714 14.437 70.9126 14.6694 71.1534C14.9018 71.3943 15.0317 71.7159 15.0317 72.0506C15.0317 72.3853 14.9018 72.7069 14.6694 72.9478C14.437 73.1886 14.1202 73.3299 13.7857 73.3418ZM34.2507 94.1509L17.4199 65.0008C17.1598 64.5565 16.7382 64.2296 16.2431 64.0882C15.748 63.9469 15.2174 64.002 14.7619 64.2421L14.7127 64.273L0.992329 72.1952C0.54804 72.4549 0.221134 72.876 0.0797681 73.3709C-0.0615977 73.8657 -0.00651227 74.396 0.23354 74.8512L0.264506 74.9024L17.0938 104.052H17.0908L17.0938 104.057C17.3553 104.499 17.777 104.825 18.2717 104.965C18.7665 105.106 19.2963 105.051 19.7514 104.811L19.7998 104.78L33.5222 96.8581C33.9673 96.5987 34.2947 96.1771 34.4358 95.6817C34.5768 95.1862 34.5205 94.6554 34.2788 94.2005L34.2507 94.1511V94.1509ZM57.5369 30.8765C56.3952 29.7346 55.6847 28.2322 55.5265 26.6253C55.3684 25.0184 55.7723 23.4063 56.6695 22.0638C57.5666 20.7213 58.9016 19.7314 60.4468 19.2628C61.992 18.7942 63.6519 18.8759 65.1436 19.494C66.6354 20.112 67.8666 21.2282 68.6276 22.6523C69.3887 24.0764 69.6323 25.7204 69.3172 27.304C69.002 28.8877 68.1474 30.313 66.8991 31.3372C65.6508 32.3614 64.086 32.9211 62.4713 32.9209C61.5547 32.9219 60.6469 32.7417 59.8001 32.3909C58.9533 32.0401 58.1842 31.5254 57.5369 30.8765ZM69.2351 32.7017C70.7992 31.1371 71.7723 29.0786 71.9889 26.877C72.2054 24.6754 71.6519 22.4668 70.4227 20.6275C69.1934 18.7882 67.3645 17.4321 65.2474 16.79C63.1304 16.148 60.8563 16.2598 58.8124 17.1065C56.7686 17.9532 55.0816 19.4823 54.0388 21.4333C52.9959 23.3843 52.6618 25.6366 53.0933 27.8063C53.5248 29.9761 54.6953 31.9291 56.4053 33.3326C58.1153 34.7362 60.259 35.5034 62.4713 35.5036C63.7276 35.5049 64.9719 35.258 66.1326 34.7771C67.2932 34.2962 68.3475 33.5907 69.2347 32.7012L69.2351 32.7017ZM54.4322 43.3352L55.507 50.7397C55.5343 51.0624 55.6818 51.3631 55.9203 51.5822C56.1588 51.8013 56.4708 51.9229 56.7947 51.9228H68.1495C68.4597 51.9227 68.7595 51.8106 68.9938 51.6072C69.2281 51.4037 69.381 51.1226 69.4246 50.8154L70.5116 43.3364C71.0359 43.0946 71.5517 42.8276 72.0519 42.5366C72.5521 42.2456 73.0426 41.9337 73.5157 41.599L80.5417 44.4009C80.8294 44.5143 81.1482 44.5204 81.44 44.4183C81.7319 44.3162 81.9773 44.1125 82.1315 43.8446L87.8078 34.0117C87.9619 33.7444 88.0145 33.4306 87.9561 33.1277C87.8976 32.8247 87.732 32.553 87.4896 32.3622L81.5528 27.6764C81.5673 27.5062 81.5819 27.3399 81.5915 27.1781C81.6186 26.7437 81.6325 26.3307 81.6325 25.9417C81.6325 25.5526 81.618 25.1396 81.5915 24.7042C81.5819 24.5426 81.5673 24.3761 81.5528 24.2069L87.4717 19.5352C87.7207 19.3461 87.8923 19.0727 87.9543 18.7662C88.0162 18.4598 87.9644 18.1412 87.8085 17.8702L82.1465 8.06151C81.9959 7.78575 81.7497 7.57454 81.4543 7.46761C81.1589 7.36068 80.8345 7.36542 80.5423 7.48094L73.5164 10.2821C73.0432 9.94823 72.5552 9.63604 72.0525 9.34551C71.5523 9.05327 71.0366 8.78729 70.5122 8.5457L69.4353 1.14033C69.4085 0.81775 69.2614 0.517032 69.0232 0.29784C68.785 0.0786477 68.4732 -0.0430002 68.1495 -0.0429687H56.7947V-0.0415332C56.4843 -0.0416431 56.1843 0.0703337 55.9498 0.273801C55.7154 0.477268 55.5623 0.758543 55.5187 1.06589L54.4318 8.54468C53.9064 8.78667 53.3929 9.05327 52.8915 9.34448C52.39 9.63569 51.902 9.94789 51.4276 10.2811L44.4018 7.48094C44.1143 7.36703 43.7954 7.3605 43.5035 7.46252C43.2116 7.56455 42.9662 7.76831 42.8123 8.03649L37.1357 17.8702C36.9816 18.1371 36.9287 18.4506 36.9867 18.7532C37.0446 19.0559 37.2096 19.3277 37.4513 19.5188L43.3908 24.2055C43.3744 24.3749 43.3619 24.5412 43.352 24.7028C43.3231 25.1382 43.311 25.5504 43.311 25.9402C43.311 26.3301 43.3235 26.7423 43.352 27.1766C43.3619 27.3384 43.3744 27.5048 43.3908 27.675L37.4724 32.3452C37.2232 32.5342 37.0514 32.8074 36.9891 33.1139C36.9268 33.4203 36.9782 33.739 37.1339 34.0103L42.7977 43.8189C42.9481 44.0949 43.1943 44.3062 43.4898 44.4132C43.7853 44.5201 44.1097 44.5153 44.4018 44.3995L51.428 41.5975C51.9012 41.9322 52.3891 42.2448 52.8919 42.5351C53.392 42.8264 53.9068 43.0934 54.4322 43.3352Z" fill="var(--fill-0, #022253)"/>
</g>
<defs>
<clipPath id="clip0_0_111">
<rect width="105" height="105" fill="white"/>
</clipPath>
</defs>
</svg>
