<svg width="100%" height="100%" overflow="visible" viewBox="0 0 109.892 105.209" fill="none" xmlns="http://www.w3.org/2000/svg">
<g id="Group">
<path id="Vector" d="M103.286 37.5186H96.0794V50.9182C96.0794 51.905 95.2729 52.7049 94.2779 52.7049H78.9651C77.9701 52.7049 77.1636 51.905 77.1636 50.9182V37.5186H68.156C67.1626 37.5186 66.3545 38.32 66.3545 39.3052V74.1443C66.3545 75.1295 67.1626 75.9309 68.156 75.9309H103.285C104.279 75.9309 105.087 75.1295 105.087 74.1443V39.3052C105.087 38.32 104.279 37.5186 103.286 37.5186ZM99.6824 69.6778H90.675C89.68 69.6778 88.8735 68.8779 88.8735 67.8912C88.8735 66.9044 89.68 66.1045 90.675 66.1045H99.6824C100.677 66.1045 101.484 66.9044 101.484 67.8912C101.484 68.8779 100.677 69.6778 99.6824 69.6778Z" fill="var(--fill-0, #022253)"/>
<path id="Vector_2" d="M37.53 37.5195H49.2399V49.1326H37.53V37.5195Z" fill="var(--fill-0, #022253)"/>
<path id="Vector_3" d="M60.9495 37.5195H52.8427V50.9192C52.8427 51.9059 52.0362 52.7058 51.0412 52.7058H35.7284C34.7334 52.7058 33.9269 51.9059 33.9269 50.9192V37.5195H25.8201C24.8268 37.5195 24.0186 38.321 24.0186 39.3062V74.1453C24.0186 75.1305 24.8268 75.9319 25.8201 75.9319H60.9495C61.9429 75.9319 62.7511 75.1305 62.7511 74.1453V39.3062C62.7511 38.321 61.9429 37.5195 60.9495 37.5195ZM38.4307 69.6787H29.4231C28.4282 69.6787 27.6216 68.8789 27.6216 67.8921C27.6216 66.9054 28.4282 66.1055 29.4231 66.1055H38.4307C39.4257 66.1055 40.2322 66.9054 40.2322 67.8921C40.2322 68.8789 39.4256 69.6787 38.4307 69.6787Z" fill="var(--fill-0, #022253)"/>
<path id="Vector_4" d="M89.7126 91.8096C85.9876 91.8096 82.957 94.8151 82.957 98.5095C82.957 102.204 85.9876 105.209 89.7126 105.209C93.4378 105.209 96.4684 102.204 96.4684 98.5095C96.4684 94.8151 93.4378 91.8096 89.7126 91.8096Z" fill="var(--fill-0, #022253)"/>
<path id="Vector_5" d="M42.786 91.8096C39.0609 91.8096 36.0303 94.8151 36.0303 98.5095C36.0303 102.204 39.0609 105.209 42.786 105.209C46.511 105.209 49.5416 102.204 49.5416 98.5095C49.5416 94.8151 46.5111 91.8096 42.786 91.8096Z" fill="var(--fill-0, #022253)"/>
<path id="Vector_6" d="M82.5678 33.9459C83.5611 33.9459 84.3694 33.1444 84.3694 32.1592V1.78669C84.3694 0.801539 83.5611 0 82.5678 0H74.461V13.3997C74.461 14.3864 73.6545 15.1863 72.6595 15.1863H57.3467C56.3517 15.1863 55.5452 14.3864 55.5452 13.3997V0H47.4384C46.4451 0 45.6368 0.801539 45.6368 1.78669V32.1592C45.6368 33.1443 46.4451 33.9459 47.4384 33.9459L82.5678 33.9459ZM69.9572 24.1194H78.9648C79.9598 24.1194 80.7663 24.9193 80.7663 25.906C80.7663 26.8928 79.9598 27.6927 78.9648 27.6927H69.9572C68.9623 27.6927 68.1557 26.8928 68.1557 25.906C68.1557 24.9193 68.9623 24.1194 69.9572 24.1194Z" fill="var(--fill-0, #022253)"/>
<path id="Vector_7" d="M80.7666 37.5186H92.4765V49.1317H80.7666V37.5186Z" fill="var(--fill-0, #022253)"/>
<path id="Vector_8" d="M59.1484 3.38663e-09H70.8583V11.6131H59.1484V3.38663e-09Z" fill="var(--fill-0, #022253)"/>
<path id="Vector_9" d="M108.091 81.0904H23.4196C20.4396 81.0904 18.0152 78.6859 18.0152 75.7305V20.3452C18.0152 17.3898 15.5907 14.9854 12.6106 14.9854H1.80151C0.806555 14.9854 0 15.7853 0 16.772C0 17.7587 0.806555 18.5586 1.80151 18.5586H12.6106C13.6039 18.5586 14.4121 19.36 14.4121 20.3452V75.7305C14.4121 80.6562 18.4529 84.6636 23.4196 84.6636H108.091C109.086 84.6636 109.892 83.8637 109.892 82.877C109.892 81.8903 109.086 81.0904 108.091 81.0904Z" fill="var(--fill-0, #022253)"/>
</g>
</svg>
