<svg width="100%" height="100%" overflow="visible" viewBox="0 0 132 105" fill="none" xmlns="http://www.w3.org/2000/svg">
<g id="Group">
<path id="Vector" d="M79.6552 105H25.0345C24.4309 105 23.852 104.76 23.4252 104.331C22.9984 103.903 22.7586 103.323 22.7586 102.717C22.7586 102.112 22.9984 101.531 23.4252 101.103C23.852 100.675 24.4309 100.435 25.0345 100.435H79.6552C80.2588 100.435 80.8376 100.675 81.2644 101.103C81.6913 101.531 81.931 102.112 81.931 102.717C81.931 103.323 81.6913 103.903 81.2644 104.331C80.8376 104.76 80.2588 105 79.6552 105Z" fill="var(--fill-0, #022253)"/>
<path id="Vector_2" d="M0 70.7609V75.3261C0 77.7476 0.95911 80.07 2.66634 81.7823C4.37357 83.4946 6.68906 84.4565 9.10345 84.4565H95.5862C98.0006 84.4565 100.316 83.4946 102.023 81.7823C103.731 80.07 104.69 77.7476 104.69 75.3261V70.7609H0ZM52.3448 79.8913C51.8947 79.8913 51.4547 79.7574 51.0804 79.5066C50.7062 79.2558 50.4145 78.8993 50.2422 78.4822C50.0699 78.0651 50.0249 77.6062 50.1127 77.1634C50.2005 76.7206 50.4173 76.3139 50.7355 75.9946C51.0538 75.6754 51.4594 75.458 51.9008 75.3699C52.3423 75.2819 52.7999 75.3271 53.2158 75.4998C53.6316 75.6726 53.9871 75.9652 54.2371 76.3406C54.4872 76.7159 54.6207 77.1572 54.6207 77.6087C54.6207 78.2141 54.3809 78.7947 53.9541 79.2227C53.5273 79.6508 52.9484 79.8913 52.3448 79.8913Z" fill="var(--fill-0, #022253)"/>
<path id="Vector_3" d="M56.8965 31.9561C58.1037 31.9561 59.2614 32.437 60.115 33.2932C60.9687 34.1493 61.4482 35.3105 61.4482 36.5213V31.9561H56.8965Z" fill="var(--fill-0, #022253)"/>
<path id="Vector_4" d="M104.69 10.9109V9.13043C104.69 6.70889 103.731 4.38653 102.023 2.67424C100.316 0.961953 98.0006 0 95.5862 0H9.10345C6.68906 0 4.37357 0.961953 2.66634 2.67424C0.95911 4.38653 0 6.70889 0 9.13043V68.4783H104.69V57.0652H91.0345C91.0345 59.4868 90.0754 61.8091 88.3681 63.5214C86.6609 65.2337 84.3454 66.1957 81.931 66.1957C79.5166 66.1957 77.2012 65.2337 75.4939 63.5214C73.7867 61.8091 72.8276 59.4868 72.8276 57.0652H68.2759C66.4651 57.0652 64.7284 56.3437 63.448 55.0595C62.1676 53.7753 61.4483 52.0335 61.4483 50.2174V36.5217C61.4483 37.7325 60.9687 38.8937 60.1151 39.7498C59.2615 40.606 58.1037 41.087 56.8965 41.087H34.1379C32.9307 41.087 31.773 40.606 30.9194 39.7498C30.0658 38.8937 29.5862 37.7325 29.5862 36.5217C29.5862 35.311 30.0658 34.1498 30.9194 33.2936C31.773 32.4375 32.9307 31.9565 34.1379 31.9565H43.2414C42.0342 31.9565 40.8764 31.4755 40.0228 30.6194C39.1692 29.7633 38.6897 28.6021 38.6897 27.3913C38.6897 26.1805 39.1692 25.0194 40.0228 24.1632C40.8764 23.3071 42.0342 22.8261 43.2414 22.8261H54.6207C53.4135 22.8261 52.2557 22.3451 51.4021 21.489C50.5485 20.6328 50.069 19.4716 50.069 18.2609C50.069 17.0501 50.5485 15.8889 51.4021 15.0328C52.2557 14.1766 53.4135 13.6957 54.6207 13.6957H61.867C62.336 12.3651 63.2035 11.2124 64.3507 10.3952C65.4979 9.57802 66.8688 9.13629 68.2759 9.13043H100.138C101.823 9.13638 103.446 9.77104 104.69 10.9109Z" fill="var(--fill-0, #022253)"/>
<path id="Vector_5" d="M73.096 98.1522L67.4064 86.7391H62.3176L68.0072 98.1522H73.096Z" fill="var(--fill-0, #022253)"/>
<path id="Vector_6" d="M36.6822 98.1522L42.3719 86.7391H37.2831L31.5934 98.1522H36.6822Z" fill="var(--fill-0, #022253)"/>
<path id="Vector_7" d="M81.9311 63.9134C85.7019 63.9134 88.7587 60.8475 88.7587 57.0656C88.7587 53.2836 85.7019 50.2178 81.9311 50.2178C78.1603 50.2178 75.1035 53.2836 75.1035 57.0656C75.1035 60.8475 78.1603 63.9134 81.9311 63.9134Z" fill="var(--fill-0, #022253)"/>
<path id="Vector_8" d="M63.7241 45.6522V50.2174C63.7241 51.4282 64.2037 52.5893 65.0573 53.4455C65.9109 54.3016 67.0687 54.7826 68.2759 54.7826H73.1508C73.6475 52.8251 74.7804 51.0894 76.3705 49.8496C77.9605 48.6099 79.9171 47.9369 81.931 47.9369C83.945 47.9369 85.9016 48.6099 87.4916 49.8496C89.0817 51.0894 90.2146 52.8251 90.7113 54.7826H107.289C107.785 52.8251 108.918 51.0894 110.508 49.8496C112.098 48.6099 114.055 47.9369 116.069 47.9369C118.083 47.9369 120.039 48.6099 121.63 49.8496C123.22 51.0894 124.352 52.8251 124.849 54.7826H127.448C128.655 54.7826 129.813 54.3016 130.667 53.4455C131.52 52.5893 132 51.4282 132 50.2174V45.6522H63.7241Z" fill="var(--fill-0, #022253)"/>
<path id="Vector_9" d="M116.069 63.9134C119.84 63.9134 122.897 60.8475 122.897 57.0656C122.897 53.2836 119.84 50.2178 116.069 50.2178C112.298 50.2178 109.241 53.2836 109.241 57.0656C109.241 60.8475 112.298 63.9134 116.069 63.9134Z" fill="var(--fill-0, #022253)"/>
<path id="Vector_10" d="M72.8275 20.5437H54.6206C54.017 20.5437 53.4381 20.3032 53.0113 19.8752C52.5845 19.4471 52.3447 18.8665 52.3447 18.2611C52.3447 17.6557 52.5845 17.0751 53.0113 16.6471C53.4381 16.219 54.017 15.9785 54.6206 15.9785H72.8275C73.4311 15.9785 74.01 16.219 74.4368 16.6471C74.8636 17.0751 75.1033 17.6557 75.1033 18.2611C75.1033 18.8665 74.8636 19.4471 74.4368 19.8752C74.01 20.3032 73.4311 20.5437 72.8275 20.5437Z" fill="var(--fill-0, #022253)"/>
<path id="Vector_11" d="M100.138 11.413H68.2759C67.4801 11.4153 66.6989 11.6274 66.0106 12.028C65.3224 12.4286 64.7512 13.0037 64.3546 13.6957H72.8276C74.0348 13.6957 75.1925 14.1766 76.0461 15.0328C76.8998 15.8889 77.3793 17.0501 77.3793 18.2609C77.3793 19.4716 76.8998 20.6328 76.0461 21.489C75.1925 22.3451 74.0348 22.8261 72.8276 22.8261H66C67.2072 22.8261 68.3649 23.3071 69.2186 24.1632C70.0722 25.0194 70.5517 26.1805 70.5517 27.3913C70.5517 28.6021 70.0722 29.7633 69.2186 30.6194C68.3649 31.4755 67.2072 31.9565 66 31.9565H63.7241V43.3696H104.69V15.9783C104.69 14.7675 104.21 13.6063 103.356 12.7502C102.503 11.894 101.345 11.413 100.138 11.413Z" fill="var(--fill-0, #022253)"/>
<path id="Vector_12" d="M66.0001 29.6736H43.2414C42.6378 29.6736 42.059 29.4331 41.6322 29.0051C41.2054 28.577 40.9656 27.9964 40.9656 27.391C40.9656 26.7856 41.2054 26.205 41.6322 25.777C42.059 25.3489 42.6378 25.1084 43.2414 25.1084H66.0001C66.6037 25.1084 67.1825 25.3489 67.6093 25.777C68.0361 26.205 68.2759 26.7856 68.2759 27.391C68.2759 27.9964 68.0361 28.577 67.6093 29.0051C67.1825 29.4331 66.6037 29.6736 66.0001 29.6736Z" fill="var(--fill-0, #022253)"/>
<path id="Vector_13" d="M56.8965 38.8043H34.1379C33.5343 38.8043 32.9555 38.5639 32.5287 38.1358C32.1018 37.7077 31.8621 37.1271 31.8621 36.5217C31.8621 35.9164 32.1018 35.3358 32.5287 34.9077C32.9555 34.4796 33.5343 34.2391 34.1379 34.2391H56.8965C57.5001 34.2391 58.079 34.4796 58.5058 34.9077C58.9326 35.3358 59.1724 35.9164 59.1724 36.5217C59.1724 37.1271 58.9326 37.7077 58.5058 38.1358C58.079 38.5639 57.5001 38.8043 56.8965 38.8043Z" fill="var(--fill-0, #022253)"/>
<path id="Vector_14" d="M113.793 20.5439H106.966V43.37H132V38.8048C132 33.9617 130.082 29.317 126.667 25.8924C123.253 22.4679 118.622 20.5439 113.793 20.5439Z" fill="var(--fill-0, #022253)"/>
</g>
</svg>
