<svg width="100%" height="100%" overflow="visible" viewBox="0 0 105 104.979" fill="none" xmlns="http://www.w3.org/2000/svg">
<g id="Group">
<path id="Vector" d="M51.4336 53.71H39.0879C41.1797 59.5957 45.2813 66.9375 51.4336 68.1064V53.71Z" fill="var(--fill-0, #022253)"/>
<path id="Vector_2" d="M18.375 35.1709C18.5596 41.1387 20.2822 46.7373 23.1738 51.5566H36.1553C34.7197 46.5732 33.9199 40.9951 33.8379 35.1709H18.375Z" fill="var(--fill-0, #022253)"/>
<path id="Vector_3" d="M51.4336 35.1709H35.9707C36.0527 41.0361 36.8936 46.6348 38.3906 51.5566H51.4336V35.1709Z" fill="var(--fill-0, #022253)"/>
<path id="Vector_4" d="M45.4453 67.5117C41.3232 64.21 38.5137 58.7139 36.832 53.71H24.5684C29.4492 60.6416 36.8525 65.707 45.4453 67.5117Z" fill="var(--fill-0, #022253)"/>
<path id="Vector_5" d="M51.4336 16.6523H38.3906C36.8936 21.5947 36.0732 27.1934 35.9707 33.0381H51.4336V16.6523Z" fill="var(--fill-0, #022253)"/>
<path id="Vector_6" d="M105 80.2471H0V86.0303C0 88.5527 2.05078 90.6035 4.57324 90.6035H100.406C102.929 90.6035 104.979 88.5527 104.979 86.0303V80.2471H105ZM52.5205 88.7373C50.6953 88.7373 49.1982 87.2402 49.1982 85.415C49.1982 83.5898 50.6953 82.0928 52.5205 82.0928C54.3457 82.0928 55.8223 83.5693 55.8223 85.415C55.8018 87.2607 54.3252 88.7373 52.5205 88.7373Z" fill="var(--fill-0, #022253)"/>
<path id="Vector_7" d="M52.5205 83.877C51.6592 83.877 50.9619 84.5742 50.9619 85.4355C50.9619 86.3174 51.6387 86.9941 52.5205 86.9941C53.3613 86.9941 54.0586 86.2969 54.0586 85.4355C54.0381 84.5742 53.3613 83.877 52.5205 83.877Z" fill="var(--fill-0, #022253)"/>
<path id="Vector_8" d="M51.4336 0.123047C45.3018 1.27148 41.1797 8.61328 39.0879 14.5195H51.4336V0.123047Z" fill="var(--fill-0, #022253)"/>
<path id="Vector_9" d="M42.3486 92.7363H62.6514V99.1963H42.3486V92.7363Z" fill="var(--fill-0, #022253)"/>
<path id="Vector_10" d="M69.1113 103.749C69.1113 102.416 68.0449 101.35 66.7119 101.35C58.6934 101.35 74.4639 101.35 38.2471 101.35C36.9346 101.35 35.8477 102.437 35.8477 103.749V104.979H69.1113V103.749Z" fill="var(--fill-0, #022253)"/>
<path id="Vector_11" d="M86.625 35.1709H72.1875C72.1055 40.9951 71.3057 46.5732 69.8701 51.5566H81.8262C84.7178 46.7373 86.4404 41.1592 86.625 35.1709Z" fill="var(--fill-0, #022253)"/>
<path id="Vector_12" d="M53.5664 68.2295C60.2109 67.7988 64.7021 60.0264 66.9375 53.71H53.5664V68.2295Z" fill="var(--fill-0, #022253)"/>
<path id="Vector_13" d="M80.4316 53.71H69.1934C67.5527 58.5908 64.8867 63.8613 60.9902 67.1836C68.9678 65.1328 75.8174 60.2725 80.4316 53.71Z" fill="var(--fill-0, #022253)"/>
<path id="Vector_14" d="M24.5684 14.5195H36.832C38.5342 9.49512 41.3232 4.01953 45.4453 0.717773C36.8525 2.52246 29.4492 7.56738 24.5684 14.5195Z" fill="var(--fill-0, #022253)"/>
<path id="Vector_15" d="M81.8262 16.6523H69.8701C71.3057 21.6357 72.1055 27.2139 72.1875 33.0381H86.625C86.4404 27.0703 84.7178 21.4717 81.8262 16.6523Z" fill="var(--fill-0, #022253)"/>
<path id="Vector_16" d="M53.5664 51.5772H67.6348C69.1318 46.6553 69.9522 41.0361 70.0547 35.1914H53.5664V51.5772Z" fill="var(--fill-0, #022253)"/>
<path id="Vector_17" d="M60.9697 1.0459C64.8867 4.38867 67.5527 9.65918 69.1728 14.5195H80.4111C75.8174 7.95703 68.9678 3.09668 60.9697 1.0459Z" fill="var(--fill-0, #022253)"/>
<path id="Vector_18" d="M0 16.4473V78.1143H105V16.4473C105 13.9248 102.949 11.874 100.427 11.874H81.1289C85.9277 18.0469 88.7783 25.7783 88.7783 34.125C88.7783 41.1182 86.7891 47.6602 83.3437 53.1973C77.376 63.2051 65.0918 70.6084 52.8281 70.4033C32.5664 70.5469 16.2217 54.1201 16.2217 34.1045C16.2217 25.7373 19.0723 18.0059 23.8711 11.8535H4.57324C2.05078 11.874 0 13.9248 0 16.4473Z" fill="var(--fill-0, #022253)"/>
<path id="Vector_19" d="M53.5664 3.0559e-10V14.5195H66.9375C64.6816 8.18262 60.1904 0.430664 53.5664 3.0559e-10Z" fill="var(--fill-0, #022253)"/>
<path id="Vector_20" d="M18.375 33.0381H33.8379C33.9199 27.2139 34.7197 21.6357 36.1553 16.6523H23.1738C20.3027 21.4717 18.5596 27.0703 18.375 33.0381Z" fill="var(--fill-0, #022253)"/>
<path id="Vector_21" d="M53.5664 33.0381H70.0547C69.9727 27.1729 69.1318 21.5742 67.6348 16.6523H53.5664V33.0381Z" fill="var(--fill-0, #022253)"/>
</g>
</svg>
