<svg width="100%" height="100%" overflow="visible" viewBox="0 0 26.5 26.5" fill="none" xmlns="http://www.w3.org/2000/svg">
<g id="lucide/phone-call">
<path id="Vector" d="M14.5 0.75C17.4837 0.75 20.3452 1.93526 22.455 4.04505C24.5647 6.15483 25.75 9.01631 25.75 12M14.5 5.75C16.1576 5.75 17.7473 6.40848 18.9194 7.58058C20.0915 8.75269 20.75 10.3424 20.75 12M15.54 18.96C15.7982 19.0786 16.089 19.1056 16.3646 19.0368C16.6402 18.968 16.8842 18.8073 17.0563 18.5812L17.5 18C17.7329 17.6895 18.0348 17.4375 18.382 17.2639C18.7291 17.0904 19.1119 17 19.5 17H23.25C23.913 17 24.5489 17.2634 25.0178 17.7322C25.4866 18.2011 25.75 18.837 25.75 19.5V23.25C25.75 23.913 25.4866 24.5489 25.0178 25.0178C24.5489 25.4866 23.913 25.75 23.25 25.75C17.2826 25.75 11.5597 23.3795 7.3401 19.1599C3.12053 14.9403 0.75 9.21737 0.75 3.25C0.75 2.58696 1.01339 1.95107 1.48223 1.48223C1.95107 1.01339 2.58696 0.75 3.25 0.75H7C7.66304 0.75 8.29893 1.01339 8.76777 1.48223C9.23661 1.95107 9.5 2.58696 9.5 3.25V7C9.5 7.38811 9.40964 7.7709 9.23607 8.11803C9.0625 8.46517 8.81049 8.76713 8.5 9L7.915 9.43875C7.68552 9.61397 7.52377 9.86323 7.45724 10.1442C7.3907 10.4251 7.42348 10.7205 7.55 10.98C9.25835 14.4498 12.068 17.256 15.54 18.96Z" stroke="var(--stroke-0, white)" stroke-width="1.5" stroke-linecap="round" stroke-linejoin="round"/>
</g>
</svg>
