<svg width="100%" height="100%" overflow="visible" viewBox="0 0 17.0015 16.998" fill="none" xmlns="http://www.w3.org/2000/svg">
<g id="Group">
<path id="Vector" d="M0 7.07353C0 10.9758 3.17473 14.1471 7.07353 14.1471C8.86976 14.1471 10.5128 13.4717 11.7625 12.3647L16.2705 16.8727C16.354 16.9563 16.462 16.998 16.5734 16.998C16.6848 16.998 16.7927 16.9563 16.8762 16.8727C17.0433 16.7056 17.0433 16.4376 16.8762 16.2705L12.3647 11.7625C13.4717 10.5128 14.1471 8.87324 14.1471 7.07353C14.1471 3.17125 10.9723 0 7.07353 0C3.17473 0 0 3.17125 0 7.07353ZM13.2942 7.07353C13.2942 10.5024 10.5024 13.2942 7.07353 13.2942C3.64468 13.2942 0.852861 10.5024 0.852861 7.07353C0.852861 3.64468 3.64468 0.852861 7.07353 0.852861C10.5024 0.852861 13.2942 3.6412 13.2942 7.07353Z" fill="var(--fill-0, #022253)"/>
</g>
</svg>
