<svg width="100%" height="100%" overflow="visible" viewBox="0 0 1009.31 282.164" fill="none" xmlns="http://www.w3.org/2000/svg">
<g id="Group 1987300159">
<path id="Vector" d="M951.891 204.847C968.032 205.273 984.22 204.279 1000.36 205.273C1001.05 208.61 1002.06 211.947 1003.51 215.118C1008.17 201.415 1011.91 186.009 1006.99 171.881C998.088 162.225 994.751 149.256 988.125 138.204C980.623 125.165 972.458 110.444 957.194 105.522C936.296 98.4928 914.287 95.5345 892.656 91.6296C831.054 80.7905 768.458 77.7375 706.098 74.6608C696.442 86.0203 679.616 83.0619 666.529 86.6833C671.925 91.1085 679.001 92.15 685.627 93.5229C720.463 99.25 755.82 100.457 790.799 104.788C753.619 102.232 716.133 101.829 679.332 95.3688C674.196 93.9492 666.695 93.215 665.748 86.7781C629.113 60.0122 591.556 34.3816 553.193 10.1247C536.603 -0.477627 516.156 1.51044 497.39 0.492769C468.044 0.0191197 438.675 -0.3355 409.329 0.516392C395.767 2.83524 381.498 10.0773 375.557 23.1649C370.469 33.2935 365.192 43.3282 360.175 53.5042C363.653 54.9245 367.155 56.3914 370.682 57.8353C369.12 66.024 366.753 74.0463 365.57 82.3061C370.611 72.3662 371.203 60.6753 377.711 51.4459C382.183 41.4587 385.307 30.5729 392.502 22.0526C400.264 12.8469 413.493 13.6988 424.403 12.9883C459.074 12.8226 493.863 11.7811 528.415 15.4735C538.52 16.207 547.56 21.0586 555.82 26.62C584.291 45.8839 613.209 64.5801 639.763 86.4708C574.208 86.1156 508.631 86.6367 443.076 85.4532C414.629 84.7671 386.088 86.4473 357.713 84.2468C347.844 101.428 343.56 121.473 345.17 141.21C347.466 170.177 352.223 199.334 362.73 226.526C367.108 235.164 372.717 247.115 384.053 246.784C473.061 246.311 562.068 247.731 651.076 247.305C659.264 208.682 663.358 169.041 662.411 129.567C662.175 114.279 656.495 100.032 651.525 85.8558C652.424 86.4472 654.223 87.5833 655.098 88.1753C670.197 118.941 666.126 154.25 663.405 187.193C660.612 208.469 659.666 230.336 652.613 250.783C564.671 250.594 476.705 250.688 388.762 250.594C383.887 250.428 378.752 250.333 374.634 247.493C371.746 249.126 368.717 251.138 365.239 250.712C340.271 250.617 315.328 250.665 290.383 250.641C289.46 261.456 287.117 272.154 282.857 282.164C428.072 280.909 573.332 281.383 718.57 281.454C714.973 271.561 713.411 261.149 712.156 250.783C696.631 250.759 681.106 250.475 665.582 250.641C661.558 250.57 657.157 251.019 654.175 247.706C673.32 246.712 692.537 247.304 711.73 247.139C710.783 207.688 732.934 168.663 767.369 149.375C795.839 133.59 831.338 129.212 861.985 141.305C887.071 149.753 907.873 168.473 921.244 191.074C933.479 212.136 937.811 236.938 936.012 261.101C956.175 256.131 976.978 252.344 995.982 243.777C1005.8 238.594 1002.04 225.98 1002.58 217.106C999.224 214.55 996.999 210.835 993.473 208.61C975.96 208.373 958.424 208.539 940.935 209.036C941.006 212.894 941.148 216.799 941.36 220.727C961.074 220.704 980.717 219.449 1000.36 218.124C998.159 223.094 991.887 221.911 987.485 222.597C971.866 222.928 956.175 224.632 940.58 223.567C935.799 219.828 935.704 212.515 936.675 207.025C941.077 203.806 946.804 205.107 951.891 204.847ZM367.013 123.199C361.996 122.844 363.866 117.188 363.322 113.946C379.012 111.697 395.342 111.626 410.843 115.035C410.938 117.023 411.126 120.951 411.222 122.939C396.525 124.028 381.71 124.288 367.014 123.2L367.013 123.199ZM807.837 119.129C779.296 122.513 751.796 132.808 727.61 148.238C743.466 135.885 761.523 126.205 781.048 121.141C820.641 110.136 862.955 113.947 902.288 124.17C871.096 119.295 839.384 116.052 807.837 119.129Z" fill="var(--fill-0, #1750B7)" fill-opacity="0.07"/>
<path id="Vector_2" d="M599.411 77.6905C602.891 77.1465 607.647 77.0282 608.688 72.8155C611.173 67.6798 606.842 61.9052 601.849 60.6034C591.839 57.1011 580.218 55.8703 570.278 60.1304C565.829 64.6504 568.196 71.3478 569.781 76.6019C579.65 76.9808 589.519 77.9984 599.411 77.6905Z" fill="var(--fill-0, #1750B7)" fill-opacity="0.07"/>
<path id="Vector_3" d="M85.224 185.725C104.677 155.315 139.49 135.506 175.627 134.583C205.659 133.257 235.834 145.446 257.062 166.65C278.338 187.571 290.952 217.319 290.526 247.209C312.228 246.901 333.929 247.351 355.654 246.949C360.813 247.091 366.233 246.215 371.061 248.866C370.824 247.706 370.351 245.411 370.114 244.251C360.221 233.459 356.411 218.976 352.791 205.202C346.259 178.909 340.981 151.906 342.093 124.667C342.567 110.491 347.536 96.9541 353.808 84.3876C318.073 84.2218 282.337 83.4647 246.72 80.838C234.982 80.838 223.031 77.5482 211.577 81.2399L212.926 78.3054C190.372 89.9253 165.026 93.8302 140.461 98.9178C103.14 106.372 65.4405 112.242 28.6637 122.039C24.2858 122.654 23.3866 127.34 21.4459 130.512C28.1197 131.624 38.7218 132.381 39.1007 141.327C38.2489 148.9 36.7104 157.277 31.4806 163.194C23.5287 166.625 14.015 162.532 6.3236 166.602C1.14053 172.637 0.478041 181.014 0.193852 188.634C0.0517568 200.917 -0.752606 213.46 2.4425 225.482C5.0929 232.866 9.99171 239.161 14.5827 245.456C18.3929 250.331 22.132 255.987 28.3564 257.975C41.2782 262.685 54.8146 265.572 68.5416 266.59C64.8025 238.806 69.417 209.271 85.226 185.724L85.224 185.725ZM211.221 81.2406C212.263 82.2346 213.328 83.2996 214.392 84.3646C211.954 88.8609 208.736 94.0676 210.179 99.3921C214.723 102.398 220.379 102.398 225.61 103.036C259.688 105.924 294.193 107.628 327.42 116.455C294.216 112.266 260.919 109.26 227.574 106.681C220.995 105.947 213.753 105.758 208.215 101.711C204.31 95.0609 209.186 87.5828 211.221 81.2399L211.221 81.2406Z" fill="var(--fill-0, #1750B7)" fill-opacity="0.07"/>
<path id="Vector_4" d="M35.1705 139.175C31.1235 134.891 24.8991 135.27 19.5509 134.584C16.2611 143.174 13.0196 151.812 10.7711 160.758C17.4685 160.782 24.2605 160.521 30.8632 159.125C32.7564 152.641 35.9513 146.109 35.1705 139.175V139.175Z" fill="var(--fill-0, #1750B7)" fill-opacity="0.07"/>
<path id="Vector_5" d="M252.565 166.343C226.178 141.777 186.916 131.412 152.032 141.21C123.302 148.31 98.1688 167.905 84.0405 193.866C75.1183 209.154 71.7818 226.833 69.7458 244.18C75.0473 244.156 80.3726 244.109 85.6971 244.061C86.62 226.738 92.8681 210.03 102.5 195.736C119.208 171.052 148.483 155.599 178.231 155.149C200.193 155.314 222.581 162.508 238.958 177.513C258.909 194.623 270.363 220.537 271.167 246.688C276.586 246.404 282.006 246.238 287.449 246.144C286.692 216.396 274.621 186.625 252.565 166.343Z" fill="var(--fill-0, #1750B7)" fill-opacity="0.07"/>
<path id="Vector_6" d="M828.971 137.541C796.832 136.191 763.747 148.947 742.496 173.418C724.25 193.297 715.02 220.135 714.594 246.924C719.801 246.83 725.03 246.782 730.308 246.83C730.923 226.666 737.905 206.645 750.424 190.789C766.611 169.395 792.881 156.545 819.528 155.267C844.638 154.58 870.196 163.739 888.159 181.536C905.293 197.723 915.446 220.537 916.961 244.014C922.404 243.99 927.895 244.037 933.385 244.156C931.918 220.726 924.179 197.51 909.293 179.169C890.361 154.32 859.903 139.505 828.972 137.541H828.971Z" fill="var(--fill-0, #1750B7)" fill-opacity="0.07"/>
</g>
</svg>
