<svg width="100%" height="100%" overflow="visible" viewBox="0 0 23.5 23.5" fill="none" xmlns="http://www.w3.org/2000/svg">
<g id="Layer 35">
<path id="Vector" d="M23 8.35H20.0335C20.021 8.3205 20.0085 8.29125 19.9955 8.2625L22.111 6.1795C22.158 6.1332 22.1954 6.07806 22.221 6.01726C22.2466 5.95645 22.2599 5.89117 22.2601 5.8252C22.2604 5.75922 22.2476 5.69385 22.2225 5.63284C22.1973 5.57184 22.1604 5.51641 22.1138 5.46975L18.0292 1.38625C17.9338 1.2958 17.8073 1.24539 17.6758 1.24539C17.5442 1.24539 17.4177 1.2958 17.3223 1.38625L15.204 3.5045C15.186 3.496 15.1675 3.48775 15.1493 3.4795V0.5C15.1493 0.367392 15.0966 0.240215 15.0028 0.146447C14.909 0.0526784 14.7819 0 14.6493 0H8.85C8.71739 0 8.59021 0.0526784 8.49645 0.146447C8.40268 0.240215 8.35 0.367392 8.35 0.5V3.4795C8.33175 3.48775 8.31325 3.496 8.29525 3.5045L6.1775 1.38625C6.08374 1.29251 5.95658 1.23986 5.824 1.23986C5.69142 1.23986 5.56426 1.29251 5.4705 1.38625L1.38625 5.4705C1.3396 5.51716 1.30265 5.57259 1.27753 5.63359C1.2524 5.6946 1.23959 5.75997 1.23985 5.82595C1.24011 5.89192 1.25342 5.9572 1.27901 6.01801C1.30461 6.07881 1.34199 6.13395 1.389 6.18025L3.50475 8.26325C3.49175 8.292 3.47975 8.32125 3.4665 8.35075H0.5C0.367392 8.35075 0.240215 8.40343 0.146447 8.4972C0.0526784 8.59096 0 8.71814 0 8.85075V14.6128C0 14.7454 0.0526784 14.8725 0.146447 14.9663C0.240215 15.0601 0.367392 15.1128 0.5 15.1128H3.4665C3.479 15.1423 3.4915 15.1715 3.5045 15.2002L1.389 17.283C1.34199 17.3293 1.30461 17.3844 1.27901 17.4452C1.25342 17.5061 1.24011 17.5713 1.23985 17.6373C1.23959 17.7033 1.2524 17.7687 1.27753 17.8297C1.30265 17.8907 1.3396 17.9461 1.38625 17.9928L5.4705 22.077C5.56426 22.1707 5.69142 22.2234 5.824 22.2234C5.95658 22.2234 6.08374 22.1707 6.1775 22.077L8.26925 19.9855C8.29675 19.9965 8.32375 20.0075 8.35075 20.018V23C8.35075 23.1326 8.40343 23.2598 8.4972 23.3536C8.59096 23.4473 8.71814 23.5 8.85075 23.5H14.65C14.7826 23.5 14.9098 23.4473 15.0036 23.3536C15.0973 23.2598 15.15 23.1326 15.15 23V20.018C15.177 20.0075 15.204 19.9965 15.2315 19.9855L17.323 22.077C17.4168 22.1707 17.5439 22.2234 17.6765 22.2234C17.8091 22.2234 17.9362 22.1707 18.03 22.077L22.1138 17.9928C22.1604 17.9461 22.1973 17.8907 22.2225 17.8297C22.2476 17.7687 22.2604 17.7033 22.2601 17.6373C22.2599 17.5713 22.2466 17.5061 22.221 17.4452C22.1954 17.3844 22.158 17.3293 22.111 17.283L19.9955 15.2C20.0085 15.1712 20.0205 15.142 20.0335 15.1125H23C23.1326 15.1125 23.2598 15.0598 23.3536 14.9661C23.4473 14.8723 23.5 14.7451 23.5 14.6125V8.85C23.5 8.71739 23.4473 8.59021 23.3536 8.49645C23.2598 8.40268 23.1326 8.35 23 8.35ZM22.5 14.1128H19.6817C19.573 14.1125 19.4671 14.1477 19.3802 14.2131C19.2932 14.2785 19.23 14.3704 19.2 14.475C19.1329 14.6848 19.0463 14.888 18.9415 15.0817C18.8943 15.1762 18.8782 15.2832 18.8956 15.3873C18.9129 15.4914 18.9628 15.5874 19.038 15.6615L21.05 17.642L17.675 21.017L15.6947 19.037C15.6206 18.9628 15.5249 18.9138 15.4214 18.897C15.3178 18.8802 15.2116 18.8964 15.1178 18.9433C15.0003 19.002 14.8787 19.05 14.738 19.1057C14.6465 19.142 14.5517 19.1807 14.4517 19.2225C14.3621 19.2612 14.2858 19.3253 14.2322 19.4069C14.1786 19.4884 14.15 19.5839 14.15 19.6815V22.5H9.35V19.6815C9.35002 19.5836 9.32129 19.4878 9.26738 19.4061C9.21347 19.3244 9.13676 19.2603 9.04675 19.2218C8.94675 19.1788 8.852 19.1412 8.7605 19.105C8.61975 19.0492 8.49825 19.0012 8.38075 18.9425C8.2869 18.8956 8.18068 18.8794 8.07712 18.8963C7.97357 18.9131 7.87793 18.9621 7.80375 19.0362L5.825 21.0165L2.45 17.6415L4.4615 15.6612C4.53675 15.5871 4.58659 15.4911 4.60388 15.3869C4.62117 15.2827 4.60502 15.1757 4.55775 15.0813C4.45314 14.8876 4.36685 14.6847 4.3 14.475C4.27013 14.3706 4.20705 14.2787 4.12031 14.2133C4.03357 14.1479 3.92789 14.1125 3.81925 14.1125H1V9.35H3.81825C3.92689 9.35001 4.03257 9.31463 4.11931 9.24923C4.20605 9.18382 4.26913 9.09195 4.299 8.9875C4.36599 8.77773 4.45245 8.57468 4.55725 8.381C4.60452 8.28655 4.62067 8.17955 4.60338 8.07536C4.58609 7.97116 4.53625 7.87512 4.461 7.801L2.45 5.82125L5.825 2.44625L7.842 4.463C7.91623 4.5372 8.01193 4.58616 8.11553 4.60294C8.21914 4.61972 8.32539 4.60347 8.41925 4.5565C8.61014 4.4552 8.80758 4.36676 9.01025 4.29175C9.10984 4.25846 9.19642 4.19467 9.25772 4.10941C9.31902 4.02415 9.35192 3.92176 9.35175 3.81675V1H14.15V3.81825C14.1498 3.92326 14.1827 4.02565 14.244 4.11091C14.3053 4.19617 14.3919 4.25996 14.4915 4.29325C14.6942 4.36826 14.8916 4.4567 15.0825 4.558C15.1764 4.60497 15.2826 4.62122 15.3862 4.60444C15.4898 4.58766 15.5855 4.5387 15.6597 4.4645L17.675 2.447L21.05 5.822L19.0385 7.8025C18.9631 7.87666 18.9132 7.97279 18.8959 8.07709C18.8786 8.18139 18.8949 8.28849 18.9422 8.383C19.0468 8.57629 19.1331 8.77892 19.2 8.98825C19.2299 9.0927 19.293 9.18457 19.3797 9.24998C19.4664 9.31538 19.5721 9.35076 19.6807 9.35075H22.5V14.1128Z" fill="var(--fill-0, #022253)"/>
<path id="Vector_2" d="M11.75 8.38575C11.0846 8.38575 10.4342 8.58306 9.88092 8.95273C9.32767 9.3224 8.89647 9.84782 8.64184 10.4626C8.38721 11.0773 8.32058 11.7537 8.45039 12.4063C8.5802 13.0589 8.90062 13.6584 9.37112 14.1289C9.84161 14.5994 10.4411 14.9198 11.0937 15.0496C11.7463 15.1794 12.4227 15.1128 13.0374 14.8582C13.6522 14.6035 14.1776 14.1723 14.5473 13.6191C14.9169 13.0658 15.1143 12.4154 15.1143 11.75C15.1132 10.8581 14.7584 10.003 14.1277 9.37228C13.497 8.74159 12.6419 8.38681 11.75 8.38575ZM11.75 14.1143C11.2824 14.1143 10.8253 13.9756 10.4365 13.7158C10.0477 13.456 9.74466 13.0868 9.56572 12.6548C9.38677 12.2227 9.33995 11.7474 9.43118 11.2888C9.5224 10.8301 9.74758 10.4089 10.0782 10.0782C10.4089 9.74758 10.8301 9.5224 11.2888 9.43118C11.7474 9.33995 12.2227 9.38677 12.6548 9.56572C13.0868 9.74466 13.456 10.0477 13.7158 10.4365C13.9756 10.8253 14.1143 11.2824 14.1143 11.75C14.1135 12.3768 13.8642 12.9777 13.421 13.421C12.9777 13.8642 12.3768 14.1135 11.75 14.1143Z" fill="var(--fill-0, #022253)"/>
<path id="Vector_3" d="M11.7501 5.24609C10.4638 5.24609 9.20643 5.62752 8.13693 6.34213C7.06744 7.05674 6.23387 8.07245 5.74163 9.26081C5.2494 10.4492 5.12061 11.7568 5.37155 13.0184C5.62249 14.2799 6.24189 15.4387 7.15142 16.3483C8.06095 17.2578 9.21976 17.8772 10.4813 18.1281C11.7429 18.3791 13.0505 18.2503 14.2389 17.758C15.4272 17.2658 16.4429 16.4322 17.1575 15.3627C17.8722 14.2933 18.2536 13.0359 18.2536 11.7496C18.2516 10.0254 17.5658 8.37233 16.3466 7.15312C15.1273 5.9339 13.4743 5.24808 11.7501 5.24609ZM11.7501 17.2531C10.6616 17.2531 9.59755 16.9303 8.6925 16.3256C7.78746 15.7209 7.08206 14.8613 6.66551 13.8557C6.24897 12.8501 6.13998 11.7435 6.35233 10.6759C6.56469 9.60834 7.08884 8.62771 7.85852 7.85803C8.6282 7.08835 9.60883 6.5642 10.6764 6.35184C11.744 6.13949 12.8505 6.24848 13.8562 6.66502C14.8618 7.08157 15.7213 7.78697 16.3261 8.69201C16.9308 9.59706 17.2536 10.6611 17.2536 11.7496C17.252 13.2087 16.6717 14.6076 15.6399 15.6394C14.6081 16.6712 13.2092 17.2515 11.7501 17.2531Z" fill="var(--fill-0, #022253)"/>
</g>
</svg>
