<svg width="100%" height="100%" overflow="visible" viewBox="0 0 25.9892 15.1373" fill="none" xmlns="http://www.w3.org/2000/svg">
<g id="Group 1987300158">
<path id="Vector" d="M2.17087 12.7976H2.91992C3.1903 14.1307 4.37103 15.1373 5.78269 15.1373C7.19435 15.1373 8.37508 14.1307 8.64546 12.7976H17.3199C17.5903 14.1307 18.771 15.1373 20.1827 15.1373C21.5946 15.1373 22.7754 14.1307 23.0455 12.7976H23.8183C25.0153 12.7976 25.9892 11.8237 25.9892 10.6268V9.85594C25.9892 7.09384 23.7435 4.84697 20.9831 4.84697H19.4415L16.5944 1.99987C15.3051 0.710343 13.5906 0.000162214 11.767 0.000162214H10.8027C9.88827 0.000162214 8.993 0.153629 8.14154 0.45679C7.74207 0.599232 7.44123 0.722237 7.22249 0.833348C6.73685 1.07994 6.28167 1.39296 5.86943 1.76401C5.2135 2.35409 4.7032 3.04802 4.35275 3.82638C4.17434 4.22266 4.04176 4.58123 3.95676 4.89745C1.72584 5.21221 0 7.13243 0 9.44573V10.6265C0 11.8237 0.973887 12.7976 2.17087 12.7976ZM5.78298 13.9769C4.81199 13.9769 4.02203 13.1869 4.02203 12.2162C4.02203 11.2456 4.81199 10.4553 5.78298 10.4553C6.75396 10.4553 7.54363 11.2453 7.54363 12.2162C7.54363 13.1872 6.75396 13.9769 5.78298 13.9769ZM20.1827 13.9769C19.2117 13.9769 18.422 13.1869 18.422 12.2162C18.422 11.2456 19.212 10.4553 20.1827 10.4553C21.1534 10.4553 21.9436 11.2453 21.9436 12.2162C21.9436 13.1872 21.1537 13.9769 20.1827 13.9769ZM15.7739 2.82L17.8006 4.84668H13.3742L12.8619 3.67233C12.7336 3.37874 12.3913 3.24442 12.098 3.37265C11.8044 3.50058 11.6701 3.84262 11.7983 4.1365L12.1082 4.84668H10.8326V1.1603H11.767C13.2808 1.1603 14.7037 1.74979 15.7739 2.82ZM5.41077 4.30215C5.6945 3.67175 6.10993 3.10778 6.64517 2.6262C6.98199 2.32333 7.35274 2.06804 7.74729 1.86787C7.86565 1.80781 8.09774 1.70396 8.53058 1.54962C8.90191 1.41762 9.2834 1.31986 9.67185 1.25487V4.84668H5.18913C5.24947 4.67813 5.32403 4.49565 5.41077 4.30215ZM1.16043 9.44573C1.16043 7.55917 2.69393 6.01842 4.57788 6.00739C4.58049 6.00739 4.58281 6.00826 4.58542 6.00826H12.9939H12.9947H12.9962H18.9483C18.9521 6.00826 18.9555 6.0071 18.9596 6.0071H20.9831C22.5273 6.0071 23.8583 6.92471 24.4696 8.24179H23.688C23.3678 8.24179 23.1078 8.50173 23.1078 8.822C23.1078 9.14228 23.3678 9.40222 23.688 9.40222H24.7997C24.8174 9.55133 24.8287 9.7019 24.8287 9.85565V10.05C24.5256 10.0692 24.2851 10.3187 24.2851 10.6265C24.2851 10.8771 24.4449 11.0886 24.6674 11.1698C24.4876 11.4501 24.1751 11.6372 23.818 11.6372H23.046C22.7765 10.3027 21.5955 9.29488 20.1827 9.29488C18.7702 9.29488 17.5891 10.3027 17.3196 11.6372H8.64604C8.37653 10.3027 7.19551 9.29488 5.78298 9.29488C4.37045 9.29488 3.18914 10.3027 2.91963 11.6372H2.17087C1.61386 11.6372 1.16043 11.1838 1.16043 10.6265V9.44573Z" fill="var(--fill-0, #022253)"/>
<path id="Vector_2" d="M9.56898 11.01H11.9049C12.2252 11.01 12.4851 10.7501 12.4851 10.4298C12.4851 10.1095 12.2252 9.84961 11.9049 9.84961H9.56898C9.2487 9.84961 8.98877 10.1095 8.98877 10.4298C8.98877 10.7501 9.2487 11.01 9.56898 11.01Z" fill="var(--fill-0, #022253)"/>
<path id="Vector_3" d="M13.7413 11.01H14.6764C14.9966 11.01 15.2566 10.7501 15.2566 10.4298C15.2566 10.1095 14.9966 9.84961 14.6764 9.84961H13.7413C13.4211 9.84961 13.1611 10.1095 13.1611 10.4298C13.1611 10.7501 13.4208 11.01 13.7413 11.01Z" fill="var(--fill-0, #022253)"/>
<path id="Vector_4" d="M5.78302 12.9385C6.18165 12.9385 6.50481 12.6153 6.50481 12.2167C6.50481 11.8181 6.18165 11.4949 5.78302 11.4949C5.38439 11.4949 5.06124 11.8181 5.06124 12.2167C5.06124 12.6153 5.38439 12.9385 5.78302 12.9385Z" fill="var(--fill-0, #022253)"/>
<path id="Vector_5" d="M20.1829 12.9385C20.5815 12.9385 20.9047 12.6153 20.9047 12.2167C20.9047 11.8181 20.5815 11.4949 20.1829 11.4949C19.7843 11.4949 19.4611 11.8181 19.4611 12.2167C19.4611 12.6153 19.7843 12.9385 20.1829 12.9385Z" fill="var(--fill-0, #022253)"/>
</g>
</svg>
