<svg width="21" height="21" viewBox="0 0 21 21" fill="none" xmlns="http://www.w3.org/2000/svg">
<g clip-path="url(#clip0_456_938)">
<path fill-rule="evenodd" clip-rule="evenodd" d="M10.5 0.984375C8.61799 0.984375 6.77824 1.54246 5.21341 2.58805C3.64857 3.63364 2.42893 5.11977 1.70871 6.85853C0.988498 8.59728 0.800057 10.5106 1.16722 12.3564C1.53438 14.2023 2.44066 15.8978 3.77144 17.2286C5.10223 18.5593 6.79775 19.4656 8.6436 19.8328C10.4894 20.1999 12.4027 20.0115 14.1415 19.2913C15.8802 18.5711 17.3664 17.3514 18.412 15.7866C19.4575 14.2218 20.0156 12.382 20.0156 10.5C20.0144 7.97667 19.0115 5.55704 17.2272 3.77278C15.443 1.98852 13.0233 0.985592 10.5 0.984375ZM15.3792 15.2578L13.4945 17.1432C13.4507 17.187 13.3954 17.2175 13.335 17.2312C13.2746 17.2449 13.2116 17.2413 13.1532 17.2207C4.91532 14.3135 4.92188 6.07097 4.92188 6.07097C4.92198 6.01437 4.93672 5.95877 4.96466 5.90955C4.9926 5.86034 5.0328 5.81918 5.08135 5.79009L7.43794 4.37588C7.4768 4.3526 7.52005 4.33762 7.56498 4.33188C7.60991 4.32614 7.65555 4.32976 7.69901 4.34252C7.74247 4.35528 7.78281 4.3769 7.81751 4.40602C7.8522 4.43514 7.88049 4.47113 7.9006 4.51172L9.31482 7.37362C9.34538 7.43578 9.35549 7.50601 9.34371 7.57427C9.33192 7.64252 9.29883 7.70529 9.24919 7.75359L7.95572 9.01622C8.13582 9.88469 8.49148 10.7072 9.00088 11.4333C9.51028 12.1593 10.1627 12.7737 10.918 13.2385L12.6433 12.3762C12.7049 12.3454 12.7745 12.3347 12.8425 12.3456C12.9104 12.3566 12.9732 12.3886 13.022 12.4373L15.3786 14.7938C15.4402 14.8553 15.4748 14.9387 15.475 15.0257C15.4751 15.1127 15.4406 15.1962 15.3792 15.2578ZM10.5591 7.20825C10.5625 7.16529 10.5743 7.12342 10.5939 7.08502C10.6135 7.04663 10.6404 7.01248 10.6732 6.98451C10.706 6.95653 10.744 6.9353 10.785 6.922C10.826 6.90871 10.8692 6.90362 10.9121 6.90703C11.8188 6.97921 12.6598 7.40829 13.2504 8.10004C13.8411 8.79179 14.133 9.68965 14.0621 10.5965C14.0587 10.6396 14.0469 10.6816 14.0272 10.7201C14.0076 10.7586 13.9806 10.7928 13.9477 10.8209C13.8813 10.8776 13.7951 10.9055 13.7081 10.8987C13.6211 10.8918 13.5403 10.8506 13.4837 10.7842C13.427 10.7178 13.399 10.6316 13.4059 10.5446C13.4631 9.81109 13.2268 9.08483 12.7489 8.52544C12.271 7.96604 11.5905 7.61927 10.857 7.56131C10.7708 7.55363 10.6912 7.51222 10.6354 7.4461C10.5796 7.37998 10.5521 7.29449 10.5591 7.20825ZM15.8156 10.7671C15.8088 10.8541 15.7678 10.9349 15.7014 10.9916C15.6351 11.0484 15.5489 11.0764 15.4619 11.0696C15.3749 11.0628 15.2941 11.0218 15.2374 10.9554C15.1807 10.8891 15.1526 10.8029 15.1594 10.7159C15.2569 9.46897 14.8555 8.23431 14.0434 7.28306C13.2313 6.33181 12.0749 5.74174 10.8281 5.64244C10.7411 5.63556 10.6604 5.5944 10.6037 5.528C10.547 5.46161 10.5191 5.37541 10.5259 5.28839C10.5328 5.20137 10.574 5.12064 10.6404 5.06396C10.7068 5.00729 10.7929 4.97931 10.88 4.98619C12.301 5.09855 13.6192 5.77066 14.5447 6.85472C15.4703 7.93879 15.9274 9.34605 15.8156 10.7671Z" fill="white"/>
<path fill-rule="evenodd" clip-rule="evenodd" d="M11.0525 13.9052C11.0053 13.9289 10.9531 13.9408 10.9004 13.94C10.8476 13.9392 10.7958 13.9257 10.7493 13.9006C10.7493 13.9006 7.7437 12.2718 7.28433 8.94393C7.27732 8.89309 7.28234 8.84131 7.29898 8.79276C7.31562 8.7442 7.34342 8.70023 7.38014 8.66437L8.62308 7.45031L7.47005 5.11865L5.58398 6.25331C5.6437 7.43062 6.27895 13.978 13.1775 16.5315L14.6835 15.028L12.726 13.0704L11.0525 13.9052Z" fill="white"/>
</g>
<defs>
<clipPath id="clip0_456_938">
<rect width="21" height="21" fill="white"/>
</clipPath>
</defs>
</svg>
