<svg width="21" height="21" viewBox="0 0 21 21" fill="none" xmlns="http://www.w3.org/2000/svg">
<g clip-path="url(#clip0_1174_395)">
<path fill-rule="evenodd" clip-rule="evenodd" d="M12.1498 14.6404L11.9529 15.231L12.5435 15.0341L14.8305 12.7478L14.4368 12.354L12.1498 14.6404Z" fill="white"/>
<path d="M14.8983 11.8911L15.2923 11.4971L15.6863 11.8911L15.2923 12.2851L14.8983 11.8911Z" fill="white"/>
<path fill-rule="evenodd" clip-rule="evenodd" d="M10.5 0.984375C8.61799 0.984375 6.77824 1.54246 5.21341 2.58805C3.64857 3.63364 2.42893 5.11977 1.70871 6.85853C0.988498 8.59728 0.800057 10.5106 1.16722 12.3564C1.53438 14.2023 2.44066 15.8978 3.77144 17.2286C5.10223 18.5593 6.79775 19.4656 8.6436 19.8328C10.4894 20.1999 12.4027 20.0115 14.1415 19.2913C15.8802 18.5711 17.3664 17.3514 18.412 15.7866C19.4575 14.2218 20.0156 12.382 20.0156 10.5C20.0144 7.97667 19.0115 5.55704 17.2272 3.77278C15.443 1.98852 13.0233 0.985592 10.5 0.984375ZM16.3839 12.1222L12.9531 15.5531C12.9161 15.5894 12.8711 15.6166 12.8218 15.6325L11.5349 16.0611C11.4771 16.0804 11.4151 16.0832 11.3557 16.0693C11.2964 16.0553 11.2422 16.0251 11.199 15.9821C11.1559 15.939 11.1256 15.8848 11.1116 15.8255C11.0975 15.7662 11.1003 15.7041 11.1195 15.6463L11.5487 14.3594C11.5646 14.3101 11.5918 14.2651 11.6281 14.2282L15.059 10.7966C15.1205 10.7351 15.204 10.7006 15.291 10.7006C15.378 10.7006 15.4614 10.7351 15.5229 10.7966L16.3807 11.6543C16.4119 11.6847 16.4368 11.7209 16.454 11.761C16.4711 11.801 16.4801 11.8441 16.4804 11.8876C16.4807 11.9312 16.4723 11.9743 16.4557 12.0146C16.4392 12.0549 16.4148 12.0915 16.3839 12.1222ZM10.6746 10.8583C10.6226 10.8906 10.5626 10.9078 10.5013 10.9078C10.4401 10.9078 10.3801 10.8906 10.3281 10.8583L6.7456 8.62706C6.70374 8.60744 6.6665 8.57919 6.63633 8.54417C6.60615 8.50916 6.58371 8.46815 6.57048 8.42386C6.55726 8.37957 6.55354 8.33297 6.55957 8.28714C6.5656 8.24131 6.58125 8.19727 6.60549 8.15791C6.62974 8.11855 6.66202 8.08475 6.70023 8.05873C6.73845 8.03272 6.78172 8.01507 6.82723 8.00695C6.87274 7.99883 6.91945 8.00041 6.96431 8.0116C7.00916 8.02279 7.05114 8.04333 7.0875 8.07188L10.5 10.1929L13.9125 8.07188C13.9491 8.04807 13.9901 8.03181 14.033 8.02404C14.076 8.01627 14.1201 8.01715 14.1627 8.02662C14.2053 8.0361 14.2456 8.05398 14.2812 8.07923C14.3168 8.10447 14.347 8.13657 14.3701 8.17364C14.3931 8.21071 14.4085 8.252 14.4154 8.29511C14.4223 8.33821 14.4206 8.38226 14.4102 8.42467C14.3999 8.46708 14.3812 8.507 14.3552 8.54209C14.3292 8.57718 14.2965 8.60674 14.259 8.62903L10.6746 10.8583ZM16.5618 10.3405C16.5618 10.4276 16.5272 10.511 16.4657 10.5726C16.4041 10.6341 16.3207 10.6687 16.2337 10.6687C16.1466 10.6687 16.0632 10.6341 16.0016 10.5726C15.9401 10.511 15.9055 10.4276 15.9055 10.3405V7.63416C15.9055 7.34106 15.7891 7.05997 15.5819 6.85272C15.3746 6.64546 15.0935 6.52903 14.8004 6.52903H6.20091C5.90781 6.52903 5.62672 6.64546 5.41947 6.85272C5.21222 7.05997 5.09579 7.34106 5.09579 7.63416V13.3658C5.09579 13.6589 5.21222 13.94 5.41947 14.1473C5.62672 14.3545 5.90781 14.471 6.20091 14.471H10.5C10.587 14.471 10.6705 14.5055 10.732 14.5671C10.7936 14.6286 10.8281 14.7121 10.8281 14.7991C10.8281 14.8861 10.7936 14.9696 10.732 15.0311C10.6705 15.0926 10.587 15.1272 10.5 15.1272H6.20091C5.73377 15.1272 5.28575 14.9416 4.95543 14.6113C4.62511 14.281 4.43954 13.833 4.43954 13.3658V7.63416C4.43954 7.16701 4.62511 6.719 4.95543 6.38868C5.28575 6.05835 5.73377 5.87278 6.20091 5.87278H14.7978C15.2649 5.87278 15.7129 6.05835 16.0433 6.38868C16.3736 6.719 16.5592 7.16701 16.5592 7.63416L16.5618 10.3405Z" fill="white"/>
</g>
<defs>
<clipPath id="clip0_1174_395">
<rect width="21" height="21" fill="white"/>
</clipPath>
</defs>
</svg>
