<svg width="28" height="27" viewBox="0 0 28 27" fill="none" xmlns="http://www.w3.org/2000/svg">
<path d="M15.05 0.75C18.153 0.75 21.129 1.93526 23.3231 4.04505C25.5173 6.15483 26.75 9.01631 26.75 12M15.05 5.75C16.7739 5.75 18.4272 6.40848 19.6462 7.58058C20.8652 8.75269 21.55 10.3424 21.55 12M16.1316 18.96C16.4001 19.0786 16.7026 19.1056 16.9892 19.0368C17.2758 18.968 17.5295 18.8073 17.7085 18.5812L18.17 18C18.4122 17.6895 18.7262 17.4375 19.0872 17.2639C19.4483 17.0904 19.8464 17 20.25 17H24.15C24.8396 17 25.5009 17.2634 25.9885 17.7322C26.4761 18.2011 26.75 18.837 26.75 19.5V23.25C26.75 23.913 26.4761 24.5489 25.9885 25.0178C25.5009 25.4866 24.8396 25.75 24.15 25.75C17.9439 25.75 11.9921 23.3795 7.6037 19.1599C3.21535 14.9403 0.75 9.21737 0.75 3.25C0.75 2.58696 1.02393 1.95107 1.51152 1.48223C1.99912 1.01339 2.66044 0.75 3.35 0.75H7.25C7.93956 0.75 8.60088 1.01339 9.08848 1.48223C9.57607 1.95107 9.85 2.58696 9.85 3.25V7C9.85 7.38811 9.75602 7.7709 9.57551 8.11803C9.395 8.46517 9.13291 8.76713 8.81 9L8.2016 9.43875C7.96294 9.61397 7.79473 9.86323 7.72553 10.1442C7.65633 10.4251 7.69042 10.7205 7.822 10.98C9.59869 14.4498 12.5208 17.256 16.1316 18.96Z" stroke="#1E2738" stroke-width="1.5" stroke-linecap="round" stroke-linejoin="round"/>
</svg>
