<svg width="47" height="39" viewBox="0 0 47 39" fill="none" xmlns="http://www.w3.org/2000/svg">
<path d="M1.40709 2.81411H5.48885C5.73439 2.81411 5.9547 2.97847 6.02471 3.21382L7.81609 9.23566C7.81689 9.23816 7.81758 9.24067 7.81832 9.24318L13.059 26.8602C13.0606 26.8655 13.0621 26.8708 13.0638 26.8761L14.3664 31.2549C14.7749 32.6279 16.0318 33.6003 17.4537 33.6629C16.8044 34.2192 16.3924 35.0446 16.3924 35.9667C16.3924 37.6419 17.7505 39 19.4258 39C21.101 39 22.4591 37.6419 22.4591 35.9667C22.4591 35.0464 22.0488 34.2226 21.4018 33.6663H32.2277C31.5807 34.2226 31.1703 35.0464 31.1703 35.9667C31.1703 37.6419 32.5284 39 34.2037 39C35.879 39 37.2371 37.6419 37.2371 35.9667C37.2371 35.0464 36.8267 34.2226 36.1797 33.6663H39.7778C40.5549 33.6663 41.1848 33.0363 41.1848 32.2592C41.1848 31.4821 40.5549 30.8521 39.7778 30.8521H17.5996C17.354 30.8521 17.1336 30.6877 17.0637 30.4524L16.2921 27.8587H37.4371C39.2172 27.8587 40.7946 26.7908 41.4558 25.1379L46.7486 11.9059C47.1527 10.8957 47.0298 9.75471 46.4198 8.85378C45.8097 7.9528 44.796 7.41488 43.708 7.41488H10.2104L8.72198 2.41145C8.29966 0.991628 6.97014 0 5.48885 0H1.40709C0.63001 0 3.05176e-05 0.629923 3.05176e-05 1.40706C8.74881e-05 2.18419 0.63001 2.81411 1.40709 2.81411ZM43.7081 10.229C43.9208 10.229 44.0384 10.3558 44.0896 10.4315C44.1408 10.5071 44.2149 10.6634 44.1359 10.8609L38.8431 24.0928C38.6118 24.6711 38.0599 25.0447 37.4372 25.0447H15.4551L11.0477 10.229H43.7081Z" fill="#1E2738"/>
<path d="M22.1504 22.522C22.9275 22.522 23.5575 21.892 23.5575 21.1149V14.4698C23.5575 13.6927 22.9275 13.0627 22.1504 13.0627C21.3733 13.0627 20.7433 13.6927 20.7433 14.4698V21.1149C20.7434 21.892 21.3733 22.522 22.1504 22.522Z" fill="#1E2738"/>
<path d="M31.5775 22.522C32.3546 22.522 32.9846 21.892 32.9846 21.1149V14.4698C32.9846 13.6927 32.3546 13.0627 31.5775 13.0627C30.8004 13.0627 30.1704 13.6927 30.1704 14.4698V21.1149C30.1704 21.892 30.8004 22.522 31.5775 22.522Z" fill="#1E2738"/>
</svg>
