<svg width="20" height="16" viewBox="0 0 20 16" fill="none" xmlns="http://www.w3.org/2000/svg">
<path d="M1.22646 6.96811C1.22646 6.96811 10.0719 3.45566 13.1398 2.21879C14.3158 1.72419 18.3037 0.141326 18.3037 0.141326C18.3037 0.141326 20.1445 -0.55141 19.9909 1.13052C19.9397 1.82325 19.5309 4.24745 19.1213 6.86905C18.5078 10.5796 17.843 14.6355 17.843 14.6355C17.843 14.6355 17.7406 15.7733 16.8718 15.9714C16.0022 16.1696 14.571 15.2787 14.3151 15.0813C14.1103 14.9327 10.4807 12.7066 9.15113 11.6184C8.79351 11.3219 8.38396 10.7282 9.20232 10.0355C11.0431 8.4031 13.2415 6.37445 14.571 5.08878C15.1846 4.49511 15.7982 3.10965 13.2414 4.79158C9.61113 7.21578 6.03202 9.49137 6.03202 9.49137C6.03202 9.49137 5.21365 9.98597 3.68006 9.5409C2.14573 9.09583 0.356903 8.50216 0.356903 8.50216C0.356903 8.50216 -0.87027 7.75919 1.22646 6.96811Z" fill="#1B1B1B"/>
</svg>
