<svg width="24" height="15" viewBox="0 0 24 15" fill="none" xmlns="http://www.w3.org/2000/svg">
<path d="M19.9157 8.60143C19.5277 8.07643 19.6387 7.84286 19.9157 7.37357C19.9207 7.36821 23.1238 2.62607 23.4538 1.01786L23.4558 1.01679C23.6198 0.430714 23.4558 0 22.6628 0H20.0387C19.3707 0 19.0627 0.369643 18.8977 0.783214C18.8977 0.783214 17.5616 4.20964 15.6715 6.43071C15.0615 7.0725 14.7795 7.27821 14.4465 7.27821C14.2825 7.27821 14.0275 7.0725 14.0275 6.48643V1.01679C14.0275 0.313928 13.8405 0 13.2875 0H9.16132C8.7423 0 8.49329 0.327857 8.49329 0.633214C8.49329 1.29964 9.43833 1.45286 9.53633 3.32786V7.39607C9.53633 8.2875 9.38533 8.45143 9.05031 8.45143C8.15828 8.45143 5.99321 5.01107 4.71016 1.07357C4.45115 0.309643 4.19815 0.00107135 3.52512 0.00107135H0.900031C0.151005 0.00107135 0 0.370714 0 0.784286C0 1.515 0.892031 5.14821 4.14814 9.94821C6.31822 13.2246 9.37433 15 12.1544 15C13.8255 15 14.0295 14.6057 14.0295 13.9275C14.0295 10.7968 13.8785 10.5011 14.7155 10.5011C15.1035 10.5011 15.7715 10.7068 17.3316 12.2871C19.1147 14.1611 19.4077 15 20.4057 15H23.0298C23.7778 15 24.1568 14.6057 23.9388 13.8279C23.4398 12.1918 20.0677 8.82643 19.9157 8.60143Z" fill="#1B1B1B"/>
</svg>
