<svg preserveAspectRatio="none" width="100%" height="100%" overflow="visible" style="display: block;" viewBox="0 0 109 109" fill="none" xmlns="http://www.w3.org/2000/svg">
<g id="Layer_1">
<path id="Vector" d="M30.1897 105.594H88.0436C92.8927 105.594 96.837 101.649 96.837 96.8012V87.0789V55.4339V46.2189C96.837 41.3706 92.8927 37.4263 88.0436 37.4263H86.4946L86.8935 36.5773C87.7725 34.7161 87.8698 32.6205 87.1671 30.6779C86.466 28.7394 85.0548 27.1885 83.1912 26.3095L36.0425 4.14222C34.1731 3.26405 32.0775 3.16508 30.1407 3.86446C28.2038 4.56301 26.6537 5.97757 25.7764 7.84535L23.6393 12.3893C23.6376 12.3929 23.6342 12.3948 23.6325 12.3984L19.3315 21.5344C19.327 21.5438 19.3283 21.5547 19.3241 21.5642L12.899 35.2251C11.0878 39.0829 12.7493 43.6941 16.6038 45.5054L21.383 47.749V60.727H13.8662C12.9256 60.727 12.163 61.4896 12.163 62.4302V80.5891C12.163 81.5296 12.9256 82.2922 13.8662 82.2922H21.383V96.8012C21.383 101.649 25.334 105.594 30.1897 105.594ZM93.4307 85.3758H59.7191C56.841 85.3758 54.5 83.0348 54.5 80.1566V62.3562C54.5 59.478 56.841 57.137 59.7191 57.137H93.4307V85.3758ZM25.9923 15.3903L72.866 37.4263H57.1362L23.1445 21.4453L25.9923 15.3903ZM28.8592 9.29484C29.3498 8.24951 30.2155 7.45866 31.2966 7.06863C31.7723 6.89732 32.2646 6.81167 32.7569 6.81167C33.3831 6.81167 34.0084 6.95055 34.5939 7.22498L81.74 29.3905C82.782 29.882 83.5712 30.7502 83.9637 31.8355C84.3554 32.9199 84.3022 34.0874 83.8115 35.1261L82.7306 37.4263H80.8712L27.4418 12.3085L28.8592 9.29484ZM15.9826 36.6729L21.6948 24.5276L49.1314 37.4263H30.1897C29.6228 37.4263 29.0723 37.4907 28.5349 37.5934C28.3598 37.6269 28.1955 37.6836 28.0242 37.7273C27.6678 37.8181 27.3174 37.9189 26.9796 38.0517C26.7916 38.1257 26.6134 38.2128 26.4319 38.2991C26.1279 38.4436 25.8341 38.6005 25.5504 38.7775C25.3772 38.8855 25.2092 38.996 25.0444 39.1153C24.7704 39.3137 24.5143 39.5296 24.2654 39.7573C24.1236 39.887 23.9791 40.0102 23.8461 40.1488C23.5825 40.4232 23.3468 40.7203 23.1202 41.0269C23.0331 41.1445 22.934 41.2511 22.8528 41.3732C22.5613 41.8118 22.3059 42.2751 22.0958 42.7638C22.0543 42.8604 22.0321 42.9654 21.994 43.0638C21.8617 43.4049 21.7293 43.7465 21.64 44.1066L18.0516 42.4218C15.8978 41.4097 14.9689 38.8309 15.9826 36.6729ZM24.7893 46.6671V46.2189C24.7893 43.2492 27.2117 40.8326 30.1897 40.8326H56.7561H80.4918H83.8124H88.0436C91.0141 40.8326 93.4307 43.2492 93.4307 46.2189V53.7308H59.7191C54.9632 53.7308 51.0938 57.6002 51.0938 62.3562V80.1566C51.0938 84.9126 54.9632 88.782 59.7191 88.782H93.4307V96.8012C93.4307 99.7709 91.0141 102.187 88.0436 102.187H30.1897C27.2117 102.187 24.7893 99.7709 24.7893 96.8012V82.2922H34.5332C37.4006 82.2922 40.1074 81.1645 42.1498 79.123C44.1823 77.108 45.3025 74.3994 45.3025 71.4963C45.3025 65.5578 40.4717 60.727 34.5332 60.727H24.7893V46.6671ZM15.5693 64.1333H23.0862H34.5332C38.5931 64.1333 41.8962 67.4364 41.8962 71.4963C41.8962 73.4839 41.1345 75.3333 39.7465 76.7088C38.3428 78.1126 36.4908 78.886 34.5332 78.886H23.0862H15.5693V64.1333Z" fill="var(--fill-0, #1750B7)"/>
</g>
</svg>
