<svg width="100%" height="100%" overflow="visible" viewBox="0 0 108 106" fill="none" xmlns="http://www.w3.org/2000/svg">
<g id="Vector">
<mask id="path-1-inside-1_0_88" fill="white">
<path d="M105.88 60.3575L91.1789 40.4769C89.5937 38.3333 87.2368 37.1527 84.5425 37.1527H53.765C54.8411 35.3985 55.7299 33.803 56.3377 32.4568C60.2591 23.7673 58.3209 13.4296 51.5147 6.73311C47.1014 2.39131 41.2123 0 34.9323 0C28.6522 0 22.7629 2.3911 18.3496 6.73311C11.5434 13.4296 9.60498 23.7673 13.5268 32.4568C14.1344 33.8032 15.0232 35.3985 16.0993 37.1527H7.76427C3.48296 37.1527 0 40.5794 0 44.7916V92.3211C0 93.7735 1.19699 94.9512 2.67328 94.9512H13.0636C13.2913 101.081 18.4281 106 24.7135 106C30.9989 106 36.1359 101.081 36.3636 94.9512H71.9554C72.1832 101.081 77.32 106 83.6054 106C89.8908 106 95.0278 101.081 95.2555 94.9512H105.327C106.803 94.9512 108 93.7735 108 92.3211V66.7727C108 64.386 107.306 62.2876 105.879 60.3577L105.88 60.3575ZM98.4671 59.2747H78.4239V50.3083H91.8369L98.4671 59.2747ZM22.1302 10.4525C25.5337 7.10406 30.0802 5.26024 34.9323 5.26024C39.7844 5.26024 44.3306 7.10427 47.7341 10.4525C52.9878 15.6217 54.4816 23.6065 51.451 30.3219C49.468 34.7161 43.5054 42.968 38.714 49.5984C37.3756 51.4504 36.0803 53.2431 34.932 54.8662C33.784 53.2435 32.4889 51.4513 31.151 49.5997C26.3596 42.9688 20.3963 34.7163 18.4129 30.3219C15.3823 23.6065 16.8759 15.6217 22.1298 10.4525H22.1302ZM24.7137 100.74C21.232 100.74 18.3994 97.9529 18.3994 94.5272C18.3994 91.1015 21.232 88.3146 24.7137 88.3146C28.1954 88.3146 31.0282 91.1017 31.0282 94.5272C31.0282 97.9527 28.1956 100.74 24.7137 100.74ZM24.7137 83.0544C20.0395 83.0544 16.0012 85.7754 14.1431 89.6909H5.34656V85.1583H9.32632V79.898H5.34656V44.7914C5.34656 43.4799 6.43105 42.4127 7.76427 42.4127H19.5323C21.8082 45.7477 24.376 49.3015 26.7937 52.6475C29.0774 55.8076 31.2342 58.7923 32.697 60.9868C33.1912 61.7281 34.0315 62.1746 34.9325 62.1746C35.8335 62.1746 36.674 61.7281 37.168 60.9866C38.631 58.7916 40.788 55.8065 43.0716 52.646C45.4891 49.3005 48.0566 45.7471 50.3323 42.4125H64.518V89.6905H35.2845C33.4262 85.775 29.3879 83.054 24.7137 83.054V83.0544ZM83.6056 100.74C80.1239 100.74 77.2913 97.9529 77.2913 94.5272C77.2913 91.1015 80.1239 88.3146 83.6056 88.3146C87.0873 88.3146 89.9201 91.1017 89.9201 94.5272C89.9201 97.9527 87.0875 100.74 83.6056 100.74ZM94.1764 89.6909C92.3181 85.7754 88.2798 83.0544 83.6056 83.0544C78.9314 83.0544 74.8931 85.7754 73.035 89.6909H69.8645V42.4127H84.5425C85.5088 42.4127 86.2868 42.8026 86.8552 43.5712L87.9472 45.0479H75.7504C74.2741 45.0479 73.0772 46.2255 73.0772 47.678V61.9046C73.0772 63.3571 74.2741 64.5348 75.7504 64.5348H102.196C102.507 65.2224 102.654 65.9449 102.654 66.7725V79.8978H98.6739V85.1581H102.654V89.6907H94.1762L94.1764 89.6909ZM81.9097 68.8391C81.9097 70.2916 80.7127 71.4692 79.2364 71.4692H75.7506C74.2744 71.4692 73.0774 70.2916 73.0774 68.8391C73.0774 67.3867 74.2744 66.209 75.7506 66.209H79.2364C80.7127 66.209 81.9097 67.3867 81.9097 68.8391ZM34.932 34.5293C38.0493 34.5293 40.9799 33.335 43.1839 31.1665C45.3882 28.998 46.6019 26.1148 46.6019 23.0479C46.6019 19.9809 45.388 17.0979 43.1839 14.9292C40.9799 12.7607 38.0493 11.5664 34.932 11.5664C31.8148 11.5664 28.8844 12.7607 26.6802 14.9292C22.1305 19.4059 22.1305 26.69 26.6802 31.1665C28.8844 33.3352 31.815 34.5293 34.932 34.5293ZM30.4608 18.6486C31.6552 17.4739 33.2432 16.8265 34.932 16.8265C36.6209 16.8265 38.2091 17.4737 39.4033 18.6486C40.5977 19.8235 41.2553 21.386 41.2553 23.0476C41.2553 24.7093 40.5977 26.2718 39.4033 27.4469C38.2091 28.6218 36.6211 29.269 34.932 29.269C33.243 29.269 31.6552 28.6218 30.4608 27.4467C27.9954 25.0211 27.9956 21.0744 30.4608 18.6486Z"/>
</mask>
<path d="M105.88 60.3575L91.1789 40.4769C89.5937 38.3333 87.2368 37.1527 84.5425 37.1527H53.765C54.8411 35.3985 55.7299 33.803 56.3377 32.4568C60.2591 23.7673 58.3209 13.4296 51.5147 6.73311C47.1014 2.39131 41.2123 0 34.9323 0C28.6522 0 22.7629 2.3911 18.3496 6.73311C11.5434 13.4296 9.60498 23.7673 13.5268 32.4568C14.1344 33.8032 15.0232 35.3985 16.0993 37.1527H7.76427C3.48296 37.1527 0 40.5794 0 44.7916V92.3211C0 93.7735 1.19699 94.9512 2.67328 94.9512H13.0636C13.2913 101.081 18.4281 106 24.7135 106C30.9989 106 36.1359 101.081 36.3636 94.9512H71.9554C72.1832 101.081 77.32 106 83.6054 106C89.8908 106 95.0278 101.081 95.2555 94.9512H105.327C106.803 94.9512 108 93.7735 108 92.3211V66.7727C108 64.386 107.306 62.2876 105.879 60.3577L105.88 60.3575ZM98.4671 59.2747H78.4239V50.3083H91.8369L98.4671 59.2747ZM22.1302 10.4525C25.5337 7.10406 30.0802 5.26024 34.9323 5.26024C39.7844 5.26024 44.3306 7.10427 47.7341 10.4525C52.9878 15.6217 54.4816 23.6065 51.451 30.3219C49.468 34.7161 43.5054 42.968 38.714 49.5984C37.3756 51.4504 36.0803 53.2431 34.932 54.8662C33.784 53.2435 32.4889 51.4513 31.151 49.5997C26.3596 42.9688 20.3963 34.7163 18.4129 30.3219C15.3823 23.6065 16.8759 15.6217 22.1298 10.4525H22.1302ZM24.7137 100.74C21.232 100.74 18.3994 97.9529 18.3994 94.5272C18.3994 91.1015 21.232 88.3146 24.7137 88.3146C28.1954 88.3146 31.0282 91.1017 31.0282 94.5272C31.0282 97.9527 28.1956 100.74 24.7137 100.74ZM24.7137 83.0544C20.0395 83.0544 16.0012 85.7754 14.1431 89.6909H5.34656V85.1583H9.32632V79.898H5.34656V44.7914C5.34656 43.4799 6.43105 42.4127 7.76427 42.4127H19.5323C21.8082 45.7477 24.376 49.3015 26.7937 52.6475C29.0774 55.8076 31.2342 58.7923 32.697 60.9868C33.1912 61.7281 34.0315 62.1746 34.9325 62.1746C35.8335 62.1746 36.674 61.7281 37.168 60.9866C38.631 58.7916 40.788 55.8065 43.0716 52.646C45.4891 49.3005 48.0566 45.7471 50.3323 42.4125H64.518V89.6905H35.2845C33.4262 85.775 29.3879 83.054 24.7137 83.054V83.0544ZM83.6056 100.74C80.1239 100.74 77.2913 97.9529 77.2913 94.5272C77.2913 91.1015 80.1239 88.3146 83.6056 88.3146C87.0873 88.3146 89.9201 91.1017 89.9201 94.5272C89.9201 97.9527 87.0875 100.74 83.6056 100.74ZM94.1764 89.6909C92.3181 85.7754 88.2798 83.0544 83.6056 83.0544C78.9314 83.0544 74.8931 85.7754 73.035 89.6909H69.8645V42.4127H84.5425C85.5088 42.4127 86.2868 42.8026 86.8552 43.5712L87.9472 45.0479H75.7504C74.2741 45.0479 73.0772 46.2255 73.0772 47.678V61.9046C73.0772 63.3571 74.2741 64.5348 75.7504 64.5348H102.196C102.507 65.2224 102.654 65.9449 102.654 66.7725V79.8978H98.6739V85.1581H102.654V89.6907H94.1762L94.1764 89.6909ZM81.9097 68.8391C81.9097 70.2916 80.7127 71.4692 79.2364 71.4692H75.7506C74.2744 71.4692 73.0774 70.2916 73.0774 68.8391C73.0774 67.3867 74.2744 66.209 75.7506 66.209H79.2364C80.7127 66.209 81.9097 67.3867 81.9097 68.8391ZM34.932 34.5293C38.0493 34.5293 40.9799 33.335 43.1839 31.1665C45.3882 28.998 46.6019 26.1148 46.6019 23.0479C46.6019 19.9809 45.388 17.0979 43.1839 14.9292C40.9799 12.7607 38.0493 11.5664 34.932 11.5664C31.8148 11.5664 28.8844 12.7607 26.6802 14.9292C22.1305 19.4059 22.1305 26.69 26.6802 31.1665C28.8844 33.3352 31.815 34.5293 34.932 34.5293ZM30.4608 18.6486C31.6552 17.4739 33.2432 16.8265 34.932 16.8265C36.6209 16.8265 38.2091 17.4737 39.4033 18.6486C40.5977 19.8235 41.2553 21.386 41.2553 23.0476C41.2553 24.7093 40.5977 26.2718 39.4033 27.4469C38.2091 28.6218 36.6211 29.269 34.932 29.269C33.243 29.269 31.6552 28.6218 30.4608 27.4467C27.9954 25.0211 27.9956 21.0744 30.4608 18.6486Z" fill="var(--fill-0, #1750B7)" stroke="var(--stroke-0, white)" stroke-width="2" mask="url(#path-1-inside-1_0_88)"/>
</g>
</svg>
