<svg width="100%" height="100%" overflow="visible" viewBox="0 0 97 105.939" fill="none" xmlns="http://www.w3.org/2000/svg">
<g id="Group">
<path id="Vector" d="M72.6669 91.5375H66.8734V73.8259C66.8734 72.8328 66.2113 72.1706 65.2181 72.1706C64.2249 72.1706 63.5628 72.8328 63.5628 73.8259V91.5375H49.9894V66.7082C49.9894 65.715 49.3273 65.0529 48.3342 65.0529C47.341 65.0529 46.6789 65.715 46.6789 66.7082V91.5375H33.1055V68.529C33.1055 67.5358 32.4434 66.8737 31.4502 66.8737C30.457 66.8737 29.7949 67.5358 29.7949 68.529V91.5375H16.2215V52.9693C16.2215 51.9761 15.5594 51.314 14.5662 51.314C13.5731 51.314 12.9109 51.9761 12.9109 52.9693V93.1928C12.9109 94.186 13.5731 94.8481 14.5662 94.8481H72.5014C73.4946 94.8481 74.1567 94.186 74.1567 93.1928C74.3222 92.1997 73.6601 91.5375 72.6669 91.5375Z" fill="var(--fill-0, #1750B7)"/>
<path id="Vector_2" d="M74.3219 10.428H31.6154C30.6222 10.428 29.9601 11.0901 29.9601 12.0833C29.9601 13.0765 30.6222 13.7386 31.6154 13.7386H74.3219C75.3151 13.7386 75.9772 13.0765 75.9772 12.0833C75.9772 11.2556 75.1495 10.428 74.3219 10.428Z" fill="var(--fill-0, #1750B7)"/>
<path id="Vector_3" d="M74.3225 25.9884H14.8976C13.9044 25.9884 13.2423 26.6505 13.2423 27.6437C13.2423 28.6368 13.9044 29.299 14.8976 29.299H74.157C75.1502 29.299 75.8123 28.6368 75.8123 27.6437C75.9778 26.6505 75.1502 25.9884 74.3225 25.9884Z" fill="var(--fill-0, #1750B7)"/>
<path id="Vector_4" d="M74.3225 41.5471H14.8976C13.9044 41.5471 13.2423 42.2093 13.2423 43.2024C13.2423 44.1956 13.9044 44.8577 14.8976 44.8577H74.157C75.1502 44.8577 75.8123 44.1956 75.8123 43.2024C75.9778 42.2093 75.1502 41.5471 74.3225 41.5471Z" fill="var(--fill-0, #1750B7)"/>
<path id="Vector_5" d="M91.8686 16.3874H89.0546V6.95222C89.0546 3.14505 85.9096 0 82.1024 0H19.5324C19.0358 0 18.5392 0.165529 18.2082 0.662116L0.496587 19.3669C0.165529 19.698 0 20.1945 0 20.5256V98.9863C0 102.794 3.14505 105.939 6.95222 105.939H82.1024C85.9096 105.939 89.0546 102.794 89.0546 98.9863V91.8686C96.5034 77.7986 97 77.4676 97 76.6399V21.5188C97 18.7048 94.6826 16.3874 91.8686 16.3874ZM87.3993 87.8959L82.2679 78.2952H92.6962L87.3993 87.8959ZM93.6894 74.9846H81.1092V32.2782H93.6894V74.9846ZM93.6894 21.5188V28.9676H81.1092V21.5188C81.1092 20.5256 81.9369 19.698 82.93 19.698H92.0341C92.8618 19.698 93.6894 20.5256 93.6894 21.5188ZM17.8771 5.79352V18.7048H5.62799L17.8771 5.79352ZM82.1024 102.628H6.95222C4.96587 102.628 3.31058 100.973 3.31058 98.9863V22.0154H19.5324C20.5256 22.0154 21.1877 21.3532 21.1877 20.3601V3.31058H82.1024C84.0887 3.31058 85.744 4.96587 85.744 6.95222V16.5529H82.93C80.116 16.5529 77.7986 18.8703 77.7986 21.6843V76.8055C77.7986 77.6331 78.6263 78.4607 85.744 92.0341V99.1519C85.744 100.973 84.0887 102.628 82.1024 102.628Z" fill="var(--fill-0, #1750B7)"/>
</g>
</svg>
