<svg preserveAspectRatio="none" overflow="visible" style="display: block;" width="36.5623" height="34.6153" viewBox="0 0 36.5623 34.6153" fill="none" xmlns="http://www.w3.org/2000/svg">
<g id="Group">
<path id="Vector" fill-rule="evenodd" clip-rule="evenodd" d="M22.2597 5.90298C22.3751 5.90446 22.4852 5.95016 22.5663 6.03018C22.6473 6.11019 22.6928 6.21809 22.6928 6.33052C22.6928 6.44294 22.6473 6.55084 22.5663 6.63086C22.4852 6.71088 22.3751 6.75657 22.2597 6.75805H10.7492C10.6338 6.75657 10.5237 6.71088 10.4427 6.63086C10.3616 6.55084 10.3162 6.44294 10.3162 6.33052C10.3162 6.21809 10.3616 6.11019 10.4427 6.03018C10.5237 5.95016 10.6338 5.90446 10.7492 5.90298H22.2597Z" fill="#3B6FD9"/>
<path id="Vector_2" fill-rule="evenodd" clip-rule="evenodd" d="M8.73448 5.90298C8.84985 5.90446 8.95998 5.95016 9.04103 6.03018C9.12208 6.11019 9.16752 6.21809 9.16752 6.33052C9.16752 6.44294 9.12208 6.55084 9.04103 6.63086C8.95998 6.71088 8.84985 6.75657 8.73448 6.75805H4.60261C4.48724 6.75657 4.37711 6.71088 4.29606 6.63086C4.21501 6.55084 4.16956 6.44294 4.16956 6.33052C4.16956 6.21809 4.21501 6.11019 4.29606 6.03018C4.37711 5.95016 4.48724 5.90446 4.60261 5.90298H8.73448Z" fill="#3B6FD9"/>
<path id="Vector_3" fill-rule="evenodd" clip-rule="evenodd" d="M1.49084 9.78737C1.37447 9.78737 1.26287 9.74233 1.18059 9.66216C1.09831 9.58198 1.05209 9.47325 1.05209 9.35987C1.05209 9.24649 1.09831 9.13775 1.18059 9.05758C1.26287 8.97741 1.37447 8.93237 1.49084 8.93237H14.3825C14.4989 8.93237 14.6105 8.97741 14.6928 9.05758C14.7751 9.13775 14.8213 9.24649 14.8213 9.35987C14.8213 9.47325 14.7751 9.58198 14.6928 9.66216C14.6105 9.74233 14.4989 9.78737 14.3825 9.78737H1.49084Z" fill="#3B6FD9"/>
<path id="Vector_4" fill-rule="evenodd" clip-rule="evenodd" d="M16.3974 9.78737C16.281 9.78737 16.1694 9.74233 16.0871 9.66216C16.0048 9.58198 15.9586 9.47325 15.9586 9.35987C15.9586 9.24649 16.0048 9.13775 16.0871 9.05758C16.1694 8.97741 16.281 8.93237 16.3974 8.93237H24.0286C24.1449 8.93237 24.2565 8.97741 24.3388 9.05758C24.4211 9.13775 24.4673 9.24649 24.4673 9.35987V11.3914L30.2808 6.38162L24.4673 1.37185V3.40352C24.4673 3.45966 24.456 3.51526 24.4339 3.56714C24.4119 3.61901 24.3796 3.66615 24.3388 3.70585C24.2981 3.74556 24.2497 3.77705 24.1965 3.79854C24.1433 3.82003 24.0862 3.83109 24.0286 3.83109H21.134C21.0187 3.82961 20.9085 3.78391 20.8275 3.7039C20.7464 3.62388 20.701 3.51598 20.701 3.40355C20.701 3.29113 20.7464 3.18323 20.8275 3.10321C20.9085 3.02319 21.0187 2.9775 21.134 2.97602H23.5894L23.5911 0.425414C23.5913 0.343482 23.6157 0.263338 23.6614 0.194572C23.7072 0.125806 23.7722 0.0713304 23.8489 0.0376625C23.9256 0.00399469 24.0106 -0.00743932 24.0937 0.00472852C24.1769 0.0168964 24.2547 0.0521506 24.3178 0.106274L31.2675 6.09929C31.3442 6.18393 31.3834 6.29482 31.3762 6.40756C31.3691 6.5203 31.3163 6.62566 31.2294 6.70046L24.346 12.6322C24.2856 12.6943 24.2075 12.7372 24.1217 12.7556C24.036 12.7739 23.9466 12.7668 23.865 12.7351C23.7835 12.7034 23.7136 12.6485 23.6644 12.5777C23.6152 12.5069 23.589 12.4233 23.5891 12.3377V9.78737H16.3974Z" fill="#3B6FD9"/>
<path id="Vector_5" fill-rule="evenodd" clip-rule="evenodd" d="M19.1197 2.97602C19.235 2.9775 19.3452 3.02319 19.4262 3.10321C19.5073 3.18323 19.5527 3.29113 19.5527 3.40355C19.5527 3.51598 19.5073 3.62388 19.4262 3.7039C19.3452 3.78391 19.235 3.82961 19.1197 3.83109H8.47031C8.4122 3.83184 8.35452 3.82133 8.30061 3.80018C8.24671 3.77903 8.19765 3.74765 8.15628 3.70788C8.11492 3.6681 8.08208 3.62072 8.05966 3.56848C8.03725 3.51624 8.0257 3.46018 8.0257 3.40355C8.0257 3.34693 8.03725 3.29087 8.05966 3.23863C8.08208 3.18639 8.11492 3.139 8.15628 3.09923C8.19765 3.05945 8.24671 3.02808 8.30061 3.00693C8.35452 2.98578 8.4122 2.97527 8.47031 2.97602H19.1197Z" fill="#3B6FD9"/>
<path id="Vector_6" fill-rule="evenodd" clip-rule="evenodd" d="M18.3295 15.5259V17.5106C18.3295 17.624 18.2833 17.7328 18.201 17.8129C18.1188 17.8931 18.0072 17.9381 17.8908 17.9381H16.0998C15.9835 17.9381 15.8719 17.8931 15.7896 17.8129C15.7073 17.7328 15.6611 17.624 15.6611 17.5106V15.5259H12.1931V23.5756H21.7975V15.5259H18.3295Z" fill="#3B6FD9"/>
<path id="Vector_7" d="M16.5386 15.5261H17.452V17.0834H16.5386V15.5261Z" fill="#3B6FD9"/>
<path id="Vector_8" fill-rule="evenodd" clip-rule="evenodd" d="M7.84768 15.5259V17.5106C7.84768 17.624 7.80146 17.7328 7.71918 17.8129C7.6369 17.8931 7.5253 17.9381 7.40893 17.9381H5.61806C5.56044 17.9381 5.50339 17.9271 5.45015 17.9056C5.39692 17.8841 5.34856 17.8526 5.30781 17.8129C5.26707 17.7732 5.23475 17.7261 5.21271 17.6742C5.19066 17.6224 5.17931 17.5668 5.17931 17.5106V15.5259H1.71135V23.5756H11.3156V15.5259H7.84768Z" fill="#3B6FD9"/>
<path id="Vector_9" d="M6.05681 15.5261H6.97018V17.0834H6.05681V15.5261Z" fill="#3B6FD9"/>
<g id="Group_2">
<path id="Vector_10" fill-rule="evenodd" clip-rule="evenodd" d="M34.9822 27.5795H33.46C33.2248 27.5791 32.9994 27.4879 32.8331 27.3259C32.6668 27.1639 32.5732 26.9442 32.5728 26.715V25.7036C32.5732 25.4744 32.6668 25.2548 32.8331 25.0928C32.9994 24.9307 33.2248 24.8395 33.46 24.8392H34.9822V22.0508L31.1838 15.2684H24.2727V30.1419H26.8773C28.2796 27.6778 31.9241 27.6778 33.3263 30.1419H34.9822V27.5795ZM25.8251 22.7051V17.2086C25.8251 17.0952 25.8713 16.9865 25.9536 16.9063C26.0359 16.8261 26.1475 16.7811 26.2638 16.7811L30.0001 16.7826C30.0788 16.7826 30.1559 16.8033 30.2235 16.8425C30.2911 16.8817 30.3465 16.9379 30.384 17.0052L33.3567 22.313C33.5435 22.6147 33.411 23.1329 32.991 23.1329H26.2641C26.2064 23.133 26.1493 23.1219 26.096 23.1004C26.0427 23.0789 25.9943 23.0474 25.9535 23.0077C25.9128 22.9679 25.8804 22.9208 25.8584 22.8688C25.8364 22.8169 25.825 22.7613 25.8251 22.7051Z" fill="#3B6FD9"/>
<path id="Vector_11" fill-rule="evenodd" clip-rule="evenodd" d="M34.9822 25.6942L33.4535 25.6973V26.7214L34.9822 26.7245V25.6942Z" fill="#3B6FD9"/>
<path id="Vector_12" fill-rule="evenodd" clip-rule="evenodd" d="M23.3952 24.4307H0.970887V30.1417H2.67538C4.07771 27.6776 7.722 27.6776 9.12432 30.1417H23.3952V24.4307Z" fill="#3B6FD9"/>
<path id="Vector_13" fill-rule="evenodd" clip-rule="evenodd" d="M26.7027 17.6361V22.2776H32.341L29.7415 17.6361H26.7027Z" fill="#3B6FD9"/>
<path id="Vector_14" fill-rule="evenodd" clip-rule="evenodd" d="M26.5297 30.9967H9.47197C9.55976 31.3354 9.5965 31.6847 9.58105 32.0337H26.4205C26.4051 31.6847 26.4419 31.3354 26.5297 30.9967Z" fill="#3B6FD9"/>
<path id="Vector_15" fill-rule="evenodd" clip-rule="evenodd" d="M33.7831 32.0337H36.0301C36.1713 32.0337 36.3066 31.9791 36.4064 31.8818C36.5062 31.7846 36.5623 31.6527 36.5623 31.5152C36.5623 31.3777 36.5062 31.2458 36.4064 31.1486C36.3066 31.0513 36.1713 30.9967 36.0301 30.9967H33.6739C33.7617 31.3354 33.7985 31.6847 33.7831 32.0337Z" fill="#3B6FD9"/>
<path id="Vector_16" fill-rule="evenodd" clip-rule="evenodd" d="M2.32766 30.9967H0.532137C0.391005 30.9967 0.255654 31.0513 0.155859 31.1486C0.0560643 31.2458 0 31.3777 0 31.5152C0 31.6527 0.0560643 31.7846 0.155859 31.8818C0.255654 31.9791 0.391005 32.0337 0.532137 32.0337H2.21858C2.20317 31.6847 2.23992 31.3354 2.32766 30.9967Z" fill="#3B6FD9"/>
<path id="Vector_17" fill-rule="evenodd" clip-rule="evenodd" d="M32.0868 29.9461C31.6942 29.5636 31.194 29.303 30.6495 29.1975C30.1049 29.092 29.5405 29.1461 29.0276 29.3532C28.5146 29.5602 28.0762 29.9108 27.7678 30.3606C27.4593 30.8104 27.2947 31.3392 27.2947 31.8801C27.2947 32.4211 27.4593 32.9499 27.7678 33.3997C28.0762 33.8495 28.5146 34.2001 29.0276 34.4071C29.5405 34.6141 30.1049 34.6683 30.6495 34.5628C31.194 34.4572 31.6942 34.1967 32.0868 33.8142C32.6132 33.3012 32.9089 32.6055 32.9089 31.8801C32.9089 31.1547 32.6132 30.459 32.0868 29.9461ZM30.1018 30.3436C31.5017 30.3436 32.2081 32.0007 31.2168 32.9666C30.2256 33.9324 28.5248 33.2442 28.5248 31.8801C28.5248 31.6783 28.5656 31.4785 28.6448 31.2921C28.7241 31.1057 28.8402 30.9363 28.9867 30.7936C29.1331 30.6509 29.307 30.5377 29.4983 30.4605C29.6897 30.3833 29.8947 30.3436 30.1018 30.3436Z" fill="#3B6FD9"/>
<path id="Vector_18" fill-rule="evenodd" clip-rule="evenodd" d="M30.5964 31.3982C30.4986 31.3028 30.374 31.2379 30.2383 31.2116C30.1026 31.1853 29.9619 31.1988 29.8341 31.2504C29.7063 31.302 29.5971 31.3894 29.5202 31.5015C29.4433 31.6135 29.4023 31.7453 29.4023 31.8801C29.4023 32.0149 29.4433 32.1467 29.5202 32.2587C29.5971 32.3708 29.7063 32.4582 29.8341 32.5098C29.9619 32.5614 30.1026 32.5749 30.2383 32.5486C30.374 32.5223 30.4986 32.4574 30.5964 32.362C30.7274 32.2341 30.801 32.0608 30.801 31.8801C30.801 31.6994 30.7274 31.5261 30.5964 31.3982Z" fill="#3B6FD9"/>
<path id="Vector_19" fill-rule="evenodd" clip-rule="evenodd" d="M7.88478 29.9461C7.49219 29.5636 6.992 29.303 6.44747 29.1975C5.90293 29.092 5.3385 29.1461 4.82556 29.3532C4.31262 29.5602 3.8742 29.9108 3.56575 30.3606C3.25729 30.8104 3.09265 31.3392 3.09265 31.8801C3.09265 32.4211 3.25729 32.9499 3.56575 33.3997C3.8742 33.8495 4.31262 34.2001 4.82556 34.4071C5.3385 34.6141 5.90293 34.6683 6.44747 34.5628C6.992 34.4572 7.49219 34.1967 7.88478 33.8142C8.41117 33.3012 8.70688 32.6055 8.70688 31.8801C8.70688 31.1547 8.41117 30.459 7.88478 29.9461ZM5.89982 30.3436C7.2997 30.3436 8.00612 32.0007 7.01482 32.9666C6.02352 33.9324 4.32283 33.2442 4.32283 31.8801C4.32287 31.4726 4.48903 31.0818 4.78476 30.7937C5.0805 30.5055 5.48159 30.3436 5.89982 30.3436Z" fill="#3B6FD9"/>
<path id="Vector_20" fill-rule="evenodd" clip-rule="evenodd" d="M6.39448 31.3982C6.29665 31.3028 6.17201 31.2379 6.03633 31.2116C5.90064 31.1853 5.76 31.1988 5.63219 31.2504C5.50437 31.302 5.39513 31.3894 5.31827 31.5015C5.24141 31.6135 5.20039 31.7453 5.20039 31.8801C5.20039 32.0149 5.24141 32.1467 5.31827 32.2587C5.39513 32.3708 5.50437 32.4582 5.63219 32.5098C5.76 32.5614 5.90064 32.5749 6.03633 32.5486C6.17201 32.5223 6.29665 32.4574 6.39448 32.362C6.52548 32.2341 6.59905 32.0608 6.59905 31.8801C6.59905 31.6994 6.52548 31.5261 6.39448 31.3982Z" fill="#3B6FD9"/>
</g>
</g>
</svg>
