<svg preserveAspectRatio="none" width="100%" height="100%" overflow="visible" style="display: block;" viewBox="0 0 22 22" fill="none" xmlns="http://www.w3.org/2000/svg">
<g id="101">
<g id="background">
<path id="Vector" d="M17.7843 0.6875C18.7197 0.688524 19.6166 1.06057 20.278 1.72201C20.9394 2.38344 21.3115 3.28025 21.3125 4.21566V17.7843C21.3115 18.7197 20.9394 19.6166 20.278 20.278C19.6166 20.9394 18.7197 21.3115 17.7843 21.3125H4.21566C3.28025 21.3115 2.38344 20.9394 1.72201 20.278C1.06057 19.6166 0.688524 18.7197 0.6875 17.7843V4.21566C0.688524 3.28025 1.06057 2.38344 1.72201 1.72201C2.38344 1.06057 3.28025 0.688524 4.21566 0.6875H17.7843ZM17.7843 2.19047e-08H4.21566C3.66204 -5.64157e-05 3.11383 0.108946 2.60233 0.320783C2.09084 0.53262 1.62609 0.843142 1.23461 1.23461C0.843142 1.62609 0.53262 2.09084 0.320783 2.60233C0.108946 3.11383 -5.64157e-05 3.66204 2.19047e-08 4.21566L2.19047e-08 17.7843C-5.64157e-05 18.338 0.108946 18.8862 0.320783 19.3977C0.53262 19.9092 0.843142 20.3739 1.23461 20.7654C1.62609 21.1569 2.09084 21.4674 2.60233 21.6792C3.11383 21.8911 3.66204 22.0001 4.21566 22H17.7843C18.338 22.0001 18.8862 21.8911 19.3977 21.6792C19.9092 21.4674 20.3739 21.1569 20.7654 20.7654C21.1569 20.3739 21.4674 19.9092 21.6792 19.3977C21.8911 18.8862 22.0001 18.338 22 17.7843V4.21566C22.0001 3.66204 21.8911 3.11383 21.6792 2.60233C21.4674 2.09084 21.1569 1.62609 20.7654 1.23461C20.3739 0.843142 19.9092 0.53262 19.3977 0.320783C18.8862 0.108946 18.338 -5.64157e-05 17.7843 2.19047e-08Z" fill="url(#paint0_linear_0_14)"/>
</g>
<path id="Vector_2" d="M17.7126 9.75047L11.9453 4.38496C11.7314 4.18522 11.4509 4.07214 11.1583 4.0677C10.8656 4.06325 10.5818 4.16775 10.3619 4.3609L4.31406 9.64863C4.18725 9.75964 4.08562 9.89646 4.01596 10.0499C3.9463 10.2034 3.91023 10.37 3.91016 10.5385V16.7501C3.9105 17.0635 4.03515 17.3639 4.25675 17.5856C4.47836 17.8072 4.77883 17.9318 5.09223 17.9321H7.51953C7.83293 17.9318 8.1334 17.8072 8.355 17.5856C8.57661 17.3639 8.70126 17.0635 8.7016 16.7501V14.6446C8.70037 14.064 8.90292 13.5014 9.27395 13.0548C9.4836 12.7993 9.74693 12.5931 10.0452 12.4509C10.3436 12.3087 10.6695 12.2339 11 12.2319H11.0335C11.3697 12.2389 11.7 12.321 12.0004 12.4721C12.3008 12.6233 12.5635 12.8397 12.7695 13.1055V13.1076C13.1119 13.5465 13.2975 14.0875 13.2967 14.6442V16.7496C13.2969 17.0634 13.4217 17.3643 13.6437 17.586C13.8657 17.8078 14.1667 17.9323 14.4805 17.9321H16.9069C17.2205 17.932 17.5211 17.8075 17.7429 17.5859C17.9647 17.3642 18.0895 17.0636 18.0898 16.7501V10.6163C18.0896 10.4538 18.056 10.2931 17.9911 10.1442C17.9262 9.99526 17.8314 9.86125 17.7126 9.75047ZM17.3946 16.7501C17.3945 16.8792 17.3432 17.003 17.2519 17.0944C17.1607 17.1857 17.0369 17.2371 16.9078 17.2373H14.4805C14.3513 17.2371 14.2275 17.1857 14.1362 17.0944C14.0448 17.003 13.9934 16.8792 13.9932 16.7501V14.6446C13.9944 13.933 13.7576 13.2415 13.3203 12.6801V12.6775C13.0519 12.329 12.7083 12.0456 12.3152 11.8483C11.922 11.651 11.4894 11.545 11.0496 11.538C10.6098 11.5311 10.1741 11.6234 9.77494 11.8082C9.37577 11.993 9.02342 12.2655 8.74414 12.6053C8.26827 13.1779 8.00839 13.8993 8.0098 14.6437V16.7492C8.00981 16.8135 7.99711 16.8772 7.97244 16.9365C7.94778 16.9959 7.91163 17.0498 7.86608 17.0951C7.82052 17.1405 7.76646 17.1764 7.70699 17.2008C7.64752 17.2252 7.58381 17.2376 7.51953 17.2373H5.09223C4.96311 17.2371 4.83934 17.1857 4.74808 17.0944C4.65682 17.003 4.6055 16.8792 4.60539 16.7501V10.5385C4.60537 10.4691 4.6202 10.4005 4.64889 10.3373C4.67757 10.274 4.71943 10.2177 4.77168 10.172L10.8178 4.88426C10.9084 4.80462 11.0253 4.76152 11.1459 4.76335C11.2664 4.76517 11.382 4.8118 11.4701 4.89414L17.2395 10.2596C17.2884 10.3053 17.3275 10.3605 17.3542 10.4218C17.3809 10.4832 17.3946 10.5494 17.3946 10.6163V16.7501Z" fill="var(--fill-0, #1750B7)"/>
</g>
<defs>
<linearGradient id="paint0_linear_0_14" x1="1.43988" y1="1.43988" x2="20.3698" y2="20.3698" gradientUnits="userSpaceOnUse">
<stop stop-color="#022253"/>
<stop offset="1" stop-color="#1750B7"/>
</linearGradient>
</defs>
</svg>
