<svg preserveAspectRatio="none" width="100%" height="100%" overflow="visible" style="display: block;" viewBox="0 0 22 22" fill="none" xmlns="http://www.w3.org/2000/svg">
<g id="Layer_1" clip-path="url(#clip0_0_4)">
<path id="Vector" d="M17.4478 0H4.5522C2.04209 0 0 2.04209 0 4.5522V17.4478C0 19.9579 2.04209 22 4.5522 22H17.4478C19.9579 22 22 19.9579 22 17.4478V4.5522C22 2.04209 19.9579 0 17.4478 0ZM21.3125 17.4478C21.3125 19.5788 19.5788 21.3125 17.4478 21.3125H4.5522C2.4212 21.3125 0.6875 19.5788 0.6875 17.4478V4.5522C0.6875 2.4212 2.4212 0.6875 4.5522 0.6875H17.4478C19.5788 0.6875 21.3125 2.4212 21.3125 4.5522V17.4478ZM15.1312 12.7113C14.5546 12.1347 13.6164 12.1347 13.0397 12.7113L12.7362 13.0148C12.595 13.1561 12.3651 13.1561 12.2238 13.0148L9.0426 9.83353C8.97454 9.76547 8.93703 9.6745 8.93703 9.57739C8.93703 9.48024 8.97454 9.38927 9.04264 9.32117L9.34609 9.01772C9.62453 8.73929 9.77788 8.36786 9.77788 7.97195C9.77788 7.57604 9.62453 7.20461 9.34605 6.92618L8.07606 5.65619C7.49972 5.07985 6.5621 5.07959 5.98542 5.65542L5.98456 5.65619C5.90227 5.73848 5.82729 5.8117 5.75867 5.87864C5.38643 6.24198 5.16175 6.4613 4.85848 7.05654C4.45663 7.84519 4.63036 9.00311 5.36091 10.4052C5.99135 11.6152 7.00047 12.9435 8.20243 14.1455C9.35988 15.303 10.612 16.2511 11.7281 16.8153C12.5463 17.2288 13.2914 17.4372 13.9346 17.4372C14.331 17.4372 14.6887 17.358 15.0009 17.199C15.5961 16.8957 15.8154 16.671 16.1787 16.2987C16.2457 16.2301 16.3185 16.1556 16.4007 16.0733C16.6791 15.7948 16.8329 15.423 16.8329 15.0271C16.8329 14.6312 16.6796 14.2598 16.4011 13.9813L15.1312 12.7113ZM14.6888 16.5864C13.4711 17.2068 11.0598 16.0305 8.68862 13.6594C6.26295 11.2336 4.8797 8.52917 5.47108 7.36863C5.71979 6.88054 5.88088 6.72014 6.22579 6.38348L8.18589 8.34359C8.25301 8.4107 8.34096 8.44426 8.42896 8.44426C8.51696 8.44426 8.60492 8.4107 8.67204 8.34359C8.80627 8.20935 8.80627 7.99171 8.67204 7.85748L6.77016 5.9556C6.85433 5.92642 6.94225 5.91091 7.03042 5.91091C7.23306 5.91091 7.43579 5.98804 7.59004 6.14234L8.86003 7.41232C9.00861 7.56091 9.09047 7.75968 9.09047 7.97195C9.09047 8.18426 9.00866 8.38299 8.86003 8.53157L8.55658 8.83502C8.35867 9.03293 8.24966 9.29655 8.24966 9.5773C8.24966 9.85806 8.35867 10.1217 8.55658 10.3196L11.7378 13.5009C12.1471 13.9101 12.8132 13.9102 13.2225 13.5008L13.5259 13.1974C13.8345 12.8887 14.3366 12.8887 14.6452 13.1974L15.9152 14.4674C16.0638 14.6159 16.1456 14.8147 16.1456 15.0269C16.1456 15.1171 16.13 15.2045 16.1017 15.287L14.2001 13.3854C14.0659 13.2512 13.8482 13.2512 13.714 13.3854C13.5797 13.5196 13.5798 13.7372 13.714 13.8715L15.6741 15.8316C15.3373 16.1766 15.1769 16.3377 14.6888 16.5864Z" fill="url(#paint0_linear_0_4)"/>
</g>
<defs>
<linearGradient id="paint0_linear_0_4" x1="1.33482" y1="20.6652" x2="20.6652" y2="1.33482" gradientUnits="userSpaceOnUse">
<stop stop-color="#022253"/>
<stop offset="1" stop-color="#1750B7"/>
</linearGradient>
<clipPath id="clip0_0_4">
<rect width="22" height="22" fill="white"/>
</clipPath>
</defs>
</svg>
