<svg width="253" height="33" viewBox="0 0 253 33" fill="none" xmlns="http://www.w3.org/2000/svg">
<path d="M248.255 27.7636H210.969L215.721 4.82324H253.008L248.255 27.7636Z" fill="#F40B0B"/>
<path d="M49.3272 18.0138H43.074L41.434 20.7996H35.6021L46.0474 4.82349H51.479L55.3646 20.7996H49.8634L49.3238 18.0138H49.3272ZM48.5543 14.1347L47.757 10.0502L45.3441 14.1347H48.5508H48.5543Z" fill="#1E2738"/>
<path d="M76.1163 4.82349L65.9077 20.7996H60.4761L56.8237 4.82349H62.4921L64.5289 14.1347L70.4549 4.82349H76.1232H76.1163Z" fill="#1E2738"/>
<path d="M80.6354 8.99857H75.834L76.7009 4.82349H91.8293L90.9623 8.99857H86.1609L83.7481 20.7961H78.2225L80.6354 8.99857Z" fill="#1E2738"/>
<path d="M94.5802 20.2597C93.3232 19.6573 92.3553 18.8181 91.6764 17.7386C90.9974 16.6591 90.6597 15.4195 90.6597 14.0197C90.6597 12.1637 91.1019 10.5097 91.9828 9.05761C92.8636 7.60556 94.0892 6.47386 95.6595 5.66949C97.2298 4.86163 99.0055 4.46118 100.987 4.46118C102.658 4.46118 104.12 4.76065 105.377 5.36306C106.634 5.96547 107.602 6.80466 108.281 7.88413C108.96 8.96359 109.301 10.2032 109.301 11.6031C109.301 13.459 108.859 15.1131 107.978 16.5651C107.097 18.0172 105.872 19.1489 104.301 19.9532C102.731 20.7611 100.955 21.1615 98.9742 21.1615C97.3029 21.1615 95.8406 20.8621 94.5836 20.2597H94.5802ZM101.721 16.1403C102.369 15.6981 102.863 15.1061 103.208 14.3609C103.553 13.6157 103.723 12.8009 103.723 11.9199C103.723 10.9763 103.438 10.2241 102.867 9.66002C102.296 9.09591 101.512 8.81734 100.513 8.81734C99.6392 8.81734 98.8767 9.03672 98.2291 9.47895C97.5815 9.92118 97.087 10.5131 96.7423 11.2583C96.3976 12.0035 96.227 12.8183 96.227 13.6993C96.227 14.643 96.5125 15.3951 97.0836 15.9592C97.6546 16.5233 98.438 16.8019 99.4372 16.8019C100.311 16.8019 101.074 16.5825 101.721 16.1403Z" fill="#1E2738"/>
<path d="M125.244 6.21268C126.445 7.14241 127.048 8.44125 127.048 10.1162C127.048 11.4533 126.71 12.6338 126.031 13.654C125.352 14.6743 124.384 15.4647 123.127 16.0288C121.87 16.5929 120.415 16.8715 118.761 16.8715H115.927L115.13 20.7959H109.604L112.884 4.81982H120.168C122.354 4.81982 124.046 5.28295 125.248 6.21268H125.244ZM120.815 12.1602C121.237 11.7876 121.449 11.2653 121.449 10.5967C121.449 9.51723 120.763 8.9775 119.388 8.9775H117.539L116.766 12.7208H119.036C119.802 12.7208 120.394 12.5363 120.815 12.1602Z" fill="#1E2738"/>
<path d="M131.835 20.2597C130.578 19.6573 129.61 18.8181 128.931 17.7386C128.252 16.6591 127.915 15.4195 127.915 14.0197C127.915 12.1637 128.357 10.5097 129.238 9.05761C130.119 7.60556 131.344 6.47386 132.914 5.66949C134.485 4.86163 136.26 4.46118 138.242 4.46118C139.913 4.46118 141.375 4.76065 142.632 5.36306C143.889 5.96547 144.857 6.80466 145.536 7.88413C146.215 8.96359 146.556 10.2032 146.556 11.6031C146.556 13.459 146.114 15.1131 145.233 16.5651C144.352 18.0172 143.126 19.1489 141.556 19.9532C139.986 20.7611 138.21 21.1615 136.229 21.1615C134.558 21.1615 133.095 20.8621 131.839 20.2597H131.835ZM138.976 16.1403C139.624 15.6981 140.118 15.1061 140.463 14.3609C140.808 13.6157 140.978 12.8009 140.978 11.9199C140.978 10.9763 140.693 10.2241 140.122 9.66002C139.551 9.09591 138.767 8.81734 137.768 8.81734C136.894 8.81734 136.132 9.03672 135.484 9.47895C134.836 9.92118 134.342 10.5131 133.997 11.2583C133.653 12.0035 133.482 12.8183 133.482 13.6993C133.482 14.643 133.767 15.3951 134.338 15.9592C134.909 16.5233 135.693 16.8019 136.692 16.8019C137.566 16.8019 138.329 16.5825 138.976 16.1403Z" fill="#1E2738"/>
<path d="M163.14 13.7794C162.367 14.8379 161.277 15.6249 159.874 16.1403L162.614 20.7959H156.876L154.557 16.781H153.199L152.381 20.7959H146.855L150.135 4.81982H157.489C159.644 4.81982 161.319 5.27947 162.513 6.19875C163.707 7.11804 164.303 8.40991 164.303 10.0674C164.303 11.4812 163.916 12.7173 163.143 13.7759L163.14 13.7794ZM156.643 8.97402H154.794L154.021 12.7173H156.291C157.057 12.7173 157.649 12.5328 158.07 12.1567C158.492 11.7841 158.704 11.2618 158.704 10.5932C158.704 9.51375 158.018 8.97402 156.643 8.97402Z" fill="#1E2738"/>
<path d="M169.135 20.2597C167.878 19.6573 166.91 18.8181 166.232 17.7386C165.553 16.6591 165.215 15.4195 165.215 14.0197C165.215 12.1637 165.657 10.5097 166.538 9.05761C167.419 7.60556 168.644 6.47386 170.215 5.66949C171.785 4.86163 173.561 4.46118 175.542 4.46118C177.213 4.46118 178.675 4.76065 179.932 5.36306C181.189 5.96547 182.157 6.80466 182.836 7.88413C183.515 8.96359 183.856 10.2032 183.856 11.6031C183.856 13.459 183.414 15.1131 182.533 16.5651C181.652 18.0172 180.427 19.1489 178.856 19.9532C177.286 20.7611 175.51 21.1615 173.529 21.1615C171.858 21.1615 170.396 20.8621 169.139 20.2597H169.135ZM176.276 16.1403C176.924 15.6981 177.419 15.1061 177.763 14.3609C178.108 13.6157 178.278 12.8009 178.278 11.9199C178.278 10.9763 177.993 10.2241 177.422 9.66002C176.851 9.09591 176.068 8.81734 175.068 8.81734C174.194 8.81734 173.432 9.03672 172.784 9.47895C172.137 9.92118 171.642 10.5131 171.298 11.2583C170.953 12.0035 170.782 12.8183 170.782 13.6993C170.782 14.643 171.068 15.3951 171.639 15.9592C172.21 16.5233 172.993 16.8019 173.992 16.8019C174.866 16.8019 175.629 16.5825 176.276 16.1403Z" fill="#1E2738"/>
<path d="M196.732 12.3762H201.533L200.127 19.2673C199.253 19.8767 198.25 20.3433 197.118 20.6706C195.987 20.9979 194.772 21.1616 193.476 21.1616C191.805 21.1616 190.336 20.8621 189.061 20.2597C187.787 19.6573 186.805 18.8181 186.112 17.7387C185.416 16.6592 185.071 15.4196 185.071 14.0197C185.071 12.1637 185.517 10.5132 186.405 9.06812C187.293 7.62303 188.536 6.49133 190.127 5.68C191.718 4.86517 193.546 4.45776 195.607 4.45776C199.009 4.45776 201.491 5.49892 203.055 7.58473L199.096 10.5759C198.581 9.93517 198.027 9.48598 197.432 9.21785C196.84 8.95321 196.143 8.81741 195.346 8.81741C194.392 8.81741 193.563 9.02285 192.853 9.43374C192.143 9.84464 191.596 10.4192 191.213 11.1574C190.83 11.8956 190.639 12.7348 190.639 13.6785C190.639 14.6221 190.959 15.3778 191.6 15.9488C192.24 16.5199 193.121 16.8054 194.246 16.8054C194.806 16.8054 195.346 16.7288 195.861 16.5756L196.728 12.3762H196.732Z" fill="#1E2738"/>
<path d="M205.443 4.82349H210.969L207.689 20.7996H202.164L205.443 4.82349Z" fill="#1E2738"/>
<path d="M19.1295 20.1379H12.8762L11.2363 22.9236H5.4043L15.8496 6.94751H21.2812L25.1669 22.9236H19.6657L19.126 20.1379H19.1295ZM18.3565 16.2588L17.5592 12.1742L15.1463 16.2588H18.353H18.3565Z" fill="#F40B0B"/>
<path d="M217.571 20.6705C217.243 20.3606 217.08 19.9671 217.08 19.4866C217.08 18.9155 217.275 18.4524 217.661 18.0972C218.048 17.742 218.528 17.5645 219.096 17.5645C219.614 17.5645 220.036 17.7177 220.359 18.0206C220.683 18.3236 220.843 18.7205 220.843 19.208C220.843 19.7791 220.648 20.2422 220.262 20.5974C219.875 20.9526 219.402 21.1302 218.845 21.1302C218.326 21.1302 217.901 20.977 217.574 20.667L217.571 20.6705Z" fill="white"/>
<path d="M231.459 16.7462C230.993 17.3869 230.331 17.864 229.481 18.1774L231.142 20.9979H227.667L226.264 18.5639H225.443L224.945 20.9979H221.595L223.58 11.321H228.033C229.339 11.321 230.352 11.5996 231.076 12.1568C231.8 12.7139 232.162 13.4974 232.162 14.5002C232.162 15.3568 231.929 16.1055 231.459 16.7462ZM227.521 13.8351H226.4L225.934 16.102H227.309C227.772 16.102 228.131 15.9906 228.388 15.7643C228.642 15.5379 228.771 15.2245 228.771 14.8171C228.771 14.1625 228.353 13.8351 227.521 13.8351Z" fill="white"/>
<path d="M234.864 20.7819C234.217 20.4929 233.719 20.0785 233.374 19.5458C233.03 19.0095 232.855 18.3827 232.855 17.6654C232.855 17.3694 232.894 17.0282 232.97 16.6416L234.064 11.3174H237.413L236.334 16.5859C236.278 16.8436 236.25 17.0804 236.25 17.2893C236.25 17.7211 236.365 18.0449 236.591 18.2574C236.818 18.4698 237.149 18.5742 237.584 18.5742C238.075 18.5742 238.458 18.421 238.733 18.1181C239.008 17.8151 239.22 17.3032 239.37 16.5824L240.449 11.314H243.74L242.618 16.774C242.315 18.2399 241.71 19.3473 240.804 20.0924C239.896 20.8376 238.687 21.2137 237.173 21.2137C236.285 21.2137 235.516 21.0674 234.868 20.7784L234.864 20.7819Z" fill="white"/>
<path d="M35.6055 27.7638H206.331L207.041 24.3931H35.6055V27.7638Z" fill="#F1C82E"/>
<path d="M16.2572 31.5175C24.6835 31.5175 31.5143 24.6859 31.5143 16.2587C31.5143 7.83157 24.6835 1 16.2572 1C7.83087 1 1 7.83157 1 16.2587C1 24.6859 7.83087 31.5175 16.2572 31.5175Z" stroke="#F1C82E" stroke-width="2" stroke-miterlimit="10"/>
</svg>
