<svg width="258" height="39" viewBox="0 0 258 39" fill="none" xmlns="http://www.w3.org/2000/svg">
<path d="M250.162 30.7753H212.876L217.629 7.83496H254.915L250.162 30.7753Z" fill="#F40B0B"/>
<path d="M51.2345 21.0253H44.9812L43.3413 23.811H37.5093L47.9546 7.83496H53.3862L57.2719 23.811H51.7707L51.231 21.0253H51.2345ZM50.4615 17.1462L49.6642 13.0617L47.2513 17.1462H50.458H50.4615Z" fill="white"/>
<path d="M78.0233 7.83496L67.8147 23.811H62.3831L58.7307 7.83496H64.3991L66.4359 17.1462L72.3619 7.83496H78.0302H78.0233Z" fill="white"/>
<path d="M82.5426 12.01H77.7412L78.6082 7.83496H93.7365L92.8696 12.01H88.0682L85.6553 23.8076H80.1297L82.5426 12.01Z" fill="white"/>
<path d="M96.4871 23.2711C95.2302 22.6687 94.2623 21.8295 93.5833 20.7501C92.9044 19.6706 92.5667 18.431 92.5667 17.0311C92.5667 15.1752 93.0088 13.5211 93.8897 12.0691C94.7706 10.617 95.9962 9.48534 97.5665 8.68096C99.1368 7.8731 100.912 7.47266 102.894 7.47266C104.565 7.47266 106.027 7.77212 107.284 8.37453C108.541 8.97694 109.509 9.81614 110.188 10.8956C110.867 11.9751 111.208 13.2147 111.208 14.6145C111.208 16.4705 110.766 18.1245 109.885 19.5766C109.004 21.0286 107.779 22.1603 106.208 22.9647C104.638 23.7726 102.862 24.173 100.881 24.173C99.2099 24.173 97.7475 23.8736 96.4906 23.2711H96.4871ZM103.628 19.1518C104.276 18.7095 104.77 18.1176 105.115 17.3724C105.46 16.6272 105.63 15.8124 105.63 14.9314C105.63 13.9877 105.345 13.2356 104.774 12.6715C104.203 12.1074 103.419 11.8288 102.42 11.8288C101.546 11.8288 100.784 12.0482 100.136 12.4904C99.4884 12.9327 98.994 13.5246 98.6493 14.2698C98.3046 15.015 98.134 15.8298 98.134 16.7108C98.134 17.6544 98.4195 18.4066 98.9905 18.9707C99.5616 19.5348 100.345 19.8134 101.344 19.8134C102.218 19.8134 102.981 19.594 103.628 19.1518Z" fill="white"/>
<path d="M127.151 9.2244C128.352 10.1541 128.955 11.453 128.955 13.1279C128.955 14.465 128.617 15.6455 127.938 16.6657C127.259 17.686 126.291 18.4765 125.034 19.0406C123.777 19.6047 122.322 19.8832 120.668 19.8832H117.834L117.037 23.8076H111.511L114.791 7.83154H122.075C124.261 7.83154 125.954 8.29467 127.155 9.2244H127.151ZM122.722 15.1719C123.144 14.7993 123.356 14.277 123.356 13.6084C123.356 12.529 122.67 11.9892 121.295 11.9892H119.446L118.673 15.7325H120.943C121.709 15.7325 122.301 15.548 122.722 15.1719Z" fill="white"/>
<path d="M133.742 23.2711C132.485 22.6687 131.517 21.8295 130.838 20.7501C130.16 19.6706 129.822 18.431 129.822 17.0311C129.822 15.1752 130.264 13.5211 131.145 12.0691C132.026 10.617 133.251 9.48534 134.822 8.68096C136.392 7.8731 138.168 7.47266 140.149 7.47266C141.82 7.47266 143.282 7.77212 144.539 8.37453C145.796 8.97694 146.764 9.81614 147.443 10.8956C148.122 11.9751 148.463 13.2147 148.463 14.6145C148.463 16.4705 148.021 18.1245 147.14 19.5766C146.259 21.0286 145.034 22.1603 143.463 22.9647C141.893 23.7726 140.117 24.173 138.136 24.173C136.465 24.173 135.003 23.8736 133.746 23.2711H133.742ZM140.883 19.1518C141.531 18.7095 142.025 18.1176 142.37 17.3724C142.715 16.6272 142.885 15.8124 142.885 14.9314C142.885 13.9877 142.6 13.2356 142.029 12.6715C141.458 12.1074 140.674 11.8288 139.675 11.8288C138.801 11.8288 138.039 12.0482 137.391 12.4904C136.744 12.9327 136.249 13.5246 135.904 14.2698C135.56 15.015 135.389 15.8298 135.389 16.7108C135.389 17.6544 135.675 18.4066 136.246 18.9707C136.817 19.5348 137.6 19.8134 138.599 19.8134C139.473 19.8134 140.236 19.594 140.883 19.1518Z" fill="white"/>
<path d="M165.047 16.7911C164.274 17.8497 163.184 18.6366 161.781 19.152L164.521 23.8076H158.783L156.464 19.7927H155.107L154.288 23.8076H148.763L152.043 7.83154H159.396C161.551 7.83154 163.226 8.29119 164.42 9.21047C165.615 10.1298 166.21 11.4216 166.21 13.0791C166.21 14.4929 165.823 15.729 165.05 16.7876L165.047 16.7911ZM158.55 11.9857H156.701L155.928 15.729H158.198C158.964 15.729 159.556 15.5445 159.978 15.1684C160.399 14.7958 160.611 14.2735 160.611 13.6049C160.611 12.5255 159.925 11.9857 158.55 11.9857Z" fill="white"/>
<path d="M171.043 23.2711C169.786 22.6687 168.818 21.8295 168.139 20.7501C167.46 19.6706 167.122 18.431 167.122 17.0311C167.122 15.1752 167.564 13.5211 168.445 12.0691C169.326 10.617 170.552 9.48534 172.122 8.68096C173.692 7.8731 175.468 7.47266 177.449 7.47266C179.12 7.47266 180.583 7.77212 181.84 8.37453C183.096 8.97694 184.064 9.81614 184.743 10.8956C185.422 11.9751 185.764 13.2147 185.764 14.6145C185.764 16.4705 185.321 18.1245 184.44 19.5766C183.56 21.0286 182.334 22.1603 180.764 22.9647C179.193 23.7726 177.418 24.173 175.437 24.173C173.765 24.173 172.303 23.8736 171.046 23.2711H171.043ZM178.184 19.1518C178.831 18.7095 179.326 18.1176 179.67 17.3724C180.015 16.6272 180.186 15.8124 180.186 14.9314C180.186 13.9877 179.9 13.2356 179.329 12.6715C178.758 12.1074 177.975 11.8288 176.976 11.8288C176.102 11.8288 175.339 12.0482 174.691 12.4904C174.044 12.9327 173.549 13.5246 173.205 14.2698C172.86 15.015 172.689 15.8298 172.689 16.7108C172.689 17.6544 172.975 18.4066 173.546 18.9707C174.117 19.5348 174.9 19.8134 175.9 19.8134C176.774 19.8134 177.536 19.594 178.184 19.1518Z" fill="white"/>
<path d="M198.639 15.3876H203.44L202.034 22.2788C201.16 22.8882 200.157 23.3548 199.026 23.6821C197.894 24.0094 196.679 24.1731 195.384 24.1731C193.712 24.1731 192.243 23.8736 190.969 23.2712C189.694 22.6688 188.713 21.8296 188.02 20.7501C187.323 19.6707 186.979 18.431 186.979 17.0312C186.979 15.1752 187.424 13.5247 188.312 12.0796C189.2 10.6345 190.443 9.50281 192.034 8.69147C193.625 7.87665 195.453 7.46924 197.515 7.46924C200.916 7.46924 203.399 8.5104 204.962 10.5962L201.003 13.5874C200.488 12.9466 199.934 12.4975 199.339 12.2293C198.747 11.9647 198.051 11.8289 197.253 11.8289C196.299 11.8289 195.471 12.0343 194.76 12.4452C194.05 12.8561 193.503 13.4307 193.12 14.1689C192.737 14.9071 192.546 15.7463 192.546 16.69C192.546 17.6336 192.866 18.3892 193.507 18.9603C194.148 19.5314 195.029 19.8169 196.153 19.8169C196.714 19.8169 197.253 19.7403 197.769 19.5871L198.636 15.3876H198.639Z" fill="white"/>
<path d="M207.351 7.83496H212.876L209.596 23.811H204.071L207.351 7.83496Z" fill="white"/>
<path d="M21.0369 23.1493H14.7837L13.1438 25.9351H7.31177L17.7571 9.95898H23.1887L27.0744 25.9351H21.5731L21.0335 23.1493H21.0369ZM20.264 19.2702L19.4667 15.1857L17.0538 19.2702H20.2605H20.264Z" fill="#F40B0B"/>
<path d="M219.477 23.6822C219.15 23.3723 218.987 22.9789 218.987 22.4983C218.987 21.9272 219.182 21.4641 219.568 21.1089C219.955 20.7538 220.435 20.5762 221.003 20.5762C221.521 20.5762 221.943 20.7294 222.266 21.0323C222.59 21.3353 222.75 21.7322 222.75 22.2197C222.75 22.7908 222.555 23.2539 222.169 23.6091C221.782 23.9643 221.309 24.1419 220.752 24.1419C220.233 24.1419 219.808 23.9887 219.481 23.6788L219.477 23.6822Z" fill="white"/>
<path d="M233.366 19.7577C232.9 20.3984 232.238 20.8755 231.389 21.1889L233.05 24.0094H229.575L228.172 21.5754H227.35L226.852 24.0094H223.502L225.487 14.3325H229.94C231.246 14.3325 232.259 14.6111 232.983 15.1682C233.708 15.7254 234.07 16.5089 234.07 17.5117C234.07 18.3683 233.836 19.117 233.366 19.7577ZM229.428 16.8466H228.307L227.841 19.1135H229.216C229.679 19.1135 230.038 19.0021 230.295 18.7757C230.55 18.5494 230.678 18.236 230.678 17.8286C230.678 17.1739 230.261 16.8466 229.428 16.8466Z" fill="white"/>
<path d="M236.772 23.7936C236.124 23.5046 235.626 23.0902 235.281 22.5575C234.937 22.0212 234.763 21.3944 234.763 20.6771C234.763 20.3811 234.801 20.0399 234.877 19.6534L235.971 14.3292H239.32L238.241 19.5976C238.185 19.8553 238.157 20.0921 238.157 20.301C238.157 20.7328 238.272 21.0567 238.499 21.2691C238.725 21.4815 239.056 21.586 239.491 21.586C239.982 21.586 240.365 21.4327 240.64 21.1298C240.915 20.8268 241.127 20.315 241.277 19.5942L242.356 14.3257H245.647L244.525 19.7857C244.223 21.2517 243.617 22.359 242.711 23.1042C241.803 23.8493 240.595 24.2254 239.08 24.2254C238.192 24.2254 237.423 24.0792 236.775 23.7901L236.772 23.7936Z" fill="white"/>
<path d="M37.5127 30.775H208.238L208.949 27.4043H37.5127V30.775Z" fill="#F1C82E"/>
<path d="M18.1645 34.5287C26.5908 34.5287 33.4217 27.6972 33.4217 19.27C33.4217 10.8428 26.5908 4.01123 18.1645 4.01123C9.73821 4.01123 2.90735 10.8428 2.90735 19.27C2.90735 27.6972 9.73821 34.5287 18.1645 34.5287Z" stroke="#F1C82E" stroke-width="2" stroke-miterlimit="10"/>
</svg>
