<svg width="16" height="16" viewBox="0 0 16 16" fill="none" xmlns="http://www.w3.org/2000/svg">
<g clip-path="url(#clip0_1_2815)">
<path d="M13.8951 0.544312H8.34313C7.18247 0.544312 6.23822 1.48856 6.23822 2.64922V2.72972C6.23822 3.14597 6.36016 3.53406 6.5695 3.86106C6.3245 3.8295 6.07475 3.81309 5.82128 3.81309C2.61141 3.81312 0 6.42453 0 9.63441C0 12.8443 2.61141 15.4557 5.82128 15.4557C6.3715 15.4557 6.90412 15.3789 7.40906 15.2356C7.69862 15.3798 8.01822 15.4557 8.34316 15.4557H13.8951C15.0558 15.4557 16 14.5114 16 13.3508V13.2703C16 12.5542 15.6402 11.9207 15.0922 11.5404C15.6402 11.1599 16 10.5266 16 9.81044V9.72994C16 9.01381 15.6402 8.38044 15.0922 8.00003C15.6402 7.61959 16 6.98622 16 6.27009V6.18959C16 5.47347 15.6402 4.84006 15.0922 4.45966C15.6402 4.07925 16 3.44584 16 2.72972V2.64922C16 1.48856 15.0557 0.544312 13.8951 0.544312ZM0.75 9.63441C0.75 6.83809 3.02497 4.56312 5.82128 4.56312C8.61759 4.56312 10.8926 6.83809 10.8926 9.63441C10.8926 12.4307 8.61759 14.7057 5.82128 14.7057C3.02497 14.7057 0.75 12.4307 0.75 9.63441ZM15.25 13.2702V13.3507C15.25 14.0978 14.6422 14.7057 13.8951 14.7057H8.67663C9.78694 14.078 10.6718 13.0966 11.1768 11.9153H13.8951C14.6422 11.9153 15.25 12.5232 15.25 13.2702ZM15.25 9.72991V9.81041C15.25 10.5575 14.6422 11.1653 13.8951 11.1653H11.4379C11.5711 10.6773 11.6426 10.1641 11.6426 9.63437C11.6426 9.20203 11.5948 8.78069 11.505 8.37497H13.8951C14.6422 8.375 15.25 8.98281 15.25 9.72991ZM15.25 6.18956V6.27006C15.25 7.01719 14.6422 7.625 13.8951 7.625H11.285C10.8645 6.48528 10.0969 5.51237 9.11125 4.83466H13.8951C14.6422 4.83466 15.25 5.44247 15.25 6.18956ZM15.25 2.72972C15.25 3.47684 14.6422 4.08466 13.8951 4.08466H8.34313C7.59603 4.08466 6.98822 3.47684 6.98822 2.72972V2.64922C6.98822 1.90212 7.59603 1.29431 8.34313 1.29431H13.8951C14.6422 1.29431 15.25 1.90212 15.25 2.64922V2.72972H15.25ZM4.76297 8.20109C4.76297 8.96312 5.13472 9.08544 5.90816 9.26959C6.63466 9.44259 7.62962 9.67953 7.62962 11.0677C7.62962 11.9362 7.01403 12.6635 6.19631 12.8367V13.3833C6.19631 13.5904 6.02841 13.7583 5.82131 13.7583C5.61422 13.7583 5.44631 13.5904 5.44631 13.3833V12.8367C4.62859 12.6635 4.013 11.9362 4.013 11.0677C4.013 10.8606 4.18091 10.6927 4.388 10.6927C4.59509 10.6927 4.763 10.8606 4.763 11.0677C4.763 11.6513 5.23775 12.126 5.82131 12.126C6.40487 12.126 6.87962 11.6513 6.87962 11.0677C6.87962 10.3057 6.50787 10.1834 5.73444 9.99922C5.00794 9.82622 4.01297 9.58928 4.01297 8.20109C4.01297 7.33256 4.62856 6.60531 5.44628 6.43216V5.88556C5.44628 5.67847 5.61419 5.51056 5.82128 5.51056C6.02838 5.51056 6.19628 5.67847 6.19628 5.88556V6.43216C7.014 6.60531 7.62959 7.33256 7.62959 8.20109C7.62959 8.40819 7.46169 8.57609 7.25459 8.57609C7.0475 8.57609 6.87959 8.40819 6.87959 8.20109C6.87959 7.61753 6.40484 7.14278 5.82128 7.14278C5.23772 7.14278 4.76297 7.61753 4.76297 8.20109Z" fill="#022253"/>
</g>
<defs>
<clipPath id="clip0_1_2815">
<rect width="16" height="16" fill="white"/>
</clipPath>
</defs>
</svg>
