<svg width="16" height="18" viewBox="0 0 16 18" fill="none" xmlns="http://www.w3.org/2000/svg">
<g clip-path="url(#clip0_1_2820)">
<path d="M3.18066 13.8308C2.46288 13.8308 1.87695 14.4365 1.87695 15.1873C1.87712 15.9379 2.46298 16.5437 3.18066 16.5437C3.89736 16.5435 4.48317 15.9379 4.4834 15.1882C4.4834 14.4375 3.89825 13.831 3.18066 13.8308ZM12.3809 13.8308C11.6631 13.8309 11.0781 14.4365 11.0781 15.1873C11.0783 15.9378 11.6632 16.5436 12.3809 16.5437C13.0985 16.5437 13.6844 15.9379 13.6846 15.1873C13.6846 14.4365 13.0986 13.8308 12.3809 13.8308ZM0.793945 14.6257C0.794062 14.755 0.894859 14.8562 1.01465 14.8562H1.2627C1.4156 13.9007 2.21341 13.1687 3.17969 13.1687C4.14592 13.1688 4.9438 13.9007 5.09668 14.8562H9.89453V12.1443H0.793945V14.6257ZM10.5361 14.5437C10.7951 13.7452 11.5225 13.1679 12.3799 13.1677C13.3464 13.1677 14.145 13.9003 14.2969 14.8562H15.0869C15.1451 14.8562 15.2014 14.8319 15.2422 14.7888L15.2705 14.7537C15.293 14.7186 15.3051 14.6769 15.3066 14.6335V9.89331H10.5361V14.5437ZM6.7998 4.26831C6.79479 4.97607 6.58318 5.67856 6.16797 6.27319C5.52687 7.19145 4.91915 8.06191 4.47168 8.70288C4.24801 9.02327 4.06426 9.28651 3.93652 9.46948C3.87268 9.56093 3.82298 9.63281 3.78906 9.6814C3.7721 9.70569 3.75873 9.72456 3.75 9.73706C3.74577 9.74312 3.74241 9.74762 3.74023 9.75073C3.73913 9.75232 3.73786 9.75384 3.7373 9.75464V9.75562C3.67783 9.84173 3.58066 9.89225 3.47754 9.89233C3.40003 9.89233 3.32669 9.86371 3.26953 9.81323L3.21777 9.75562L3.2168 9.75464C3.21626 9.75387 3.21589 9.75223 3.21484 9.75073C3.21264 9.74758 3.20843 9.74326 3.2041 9.73706C3.1954 9.72459 3.18292 9.70562 3.16602 9.6814C3.13212 9.63283 3.08239 9.56094 3.01855 9.46948C2.89093 9.28663 2.70695 9.0241 2.4834 8.70386C2.03793 8.06572 1.43347 7.19935 0.794922 6.28491V11.4812H9.89355V4.49878C9.89344 4.4368 9.87036 4.378 9.8291 4.33569L9.82812 4.33472C9.78748 4.29188 9.7318 4.26841 9.67383 4.26831H6.7998ZM10.5371 9.2312H15.1104L13.5957 6.08374C13.5584 6.0055 13.4819 5.95679 13.3994 5.95679H10.5371V9.2312ZM3.47754 1.45679C2.46982 1.45679 1.54665 2.04342 1.08789 2.97827C0.629086 3.91257 0.714256 5.03649 1.30664 5.8855L3.47754 8.99585L5.64941 5.8855C6.24261 5.03653 6.32699 3.91261 5.86816 2.97827C5.40938 2.04429 4.48618 1.45679 3.47852 1.45679H3.47754ZM3.47852 2.4812C3.59394 2.48123 3.70664 2.49322 3.81543 2.51636C3.92448 2.53957 4.0297 2.57383 4.12988 2.61792C4.23035 2.66211 4.32576 2.71626 4.41504 2.77905C4.45924 2.81015 4.50192 2.84344 4.54297 2.87866C4.62585 2.94977 4.70217 3.02886 4.77051 3.11499C5.00897 3.41545 5.15225 3.8003 5.15234 4.21851L5.14355 4.39624C5.05792 5.27079 4.34557 5.95657 3.47852 5.95679C2.55261 5.95679 1.80469 5.17513 1.80469 4.21851C1.80491 3.26121 2.55276 2.4812 3.47852 2.4812ZM3.47852 3.14429C2.94621 3.14429 2.50413 3.56618 2.45117 4.10913L2.44629 4.21851L2.45117 4.32788C2.50413 4.87083 2.94621 5.29272 3.47852 5.29272C4.04591 5.2925 4.50954 4.81379 4.50977 4.21851C4.50977 4.17804 4.50808 4.13767 4.50391 4.09839C4.44623 3.56077 4.00712 3.1445 3.47852 3.14429ZM15.9502 14.6248C15.9502 14.8609 15.8601 15.0883 15.6982 15.2556C15.5373 15.4228 15.3179 15.5182 15.0889 15.5183H14.2988C14.146 16.4739 13.3474 17.2058 12.3818 17.2058C11.4155 17.2058 10.6169 16.474 10.4648 15.5183H5.09766C4.94487 16.4739 4.14691 17.2057 3.18066 17.2058C2.21433 17.2058 1.4165 16.4739 1.26367 15.5183H0.473633C0.295051 15.5183 0.153488 15.368 0.15332 15.1873V3.93726C0.15332 3.88774 0.163867 3.84182 0.181641 3.80054C0.229168 3.41522 0.34065 3.03619 0.515625 2.67847C1.08286 1.52288 2.22723 0.793701 3.47754 0.793701H3.47852C4.72863 0.793701 5.87311 1.52233 6.44043 2.67847C6.58621 2.97567 6.68659 3.28793 6.74414 3.6062H9.6748C9.90379 3.6062 10.1241 3.70059 10.2852 3.8689L10.3418 3.93433C10.4669 4.09311 10.537 4.293 10.5371 4.49976V5.29468H13.3994C13.7261 5.29468 14.0242 5.487 14.1699 5.78882L15.9131 9.40991L15.9375 9.47729C15.9421 9.49529 15.9436 9.51396 15.9453 9.53296L15.9502 9.54077V14.6248Z" fill="#022253" stroke="#022253" stroke-width="0.1"/>
</g>
<defs>
<clipPath id="clip0_1_2820">
<rect width="16" height="18" fill="white"/>
</clipPath>
</defs>
</svg>
