<svg width="16" height="16" viewBox="0 0 16 16" fill="none" xmlns="http://www.w3.org/2000/svg">
<g clip-path="url(#clip0_1_2830)">
<path d="M6.84277 0.177734C6.93603 0.123846 7.05123 0.123958 7.14453 0.177734L13.6924 3.95801C13.7857 4.01188 13.8438 4.11183 13.8438 4.21973V8.57422C15.0424 9.23529 15.8565 10.5122 15.8564 11.9756C15.8562 14.1153 14.1154 15.8564 11.9756 15.8564C10.8727 15.8564 9.87705 15.3923 9.16992 14.6514L7.14453 15.8223C7.09797 15.8491 7.04603 15.8623 6.99414 15.8623C6.9421 15.8623 6.88941 15.8492 6.84277 15.8223L0.294922 12.042C0.201576 11.988 0.144531 11.8881 0.144531 11.7803V4.21973C0.144531 4.1119 0.201559 4.01191 0.294922 3.95801L6.84277 0.177734ZM11.9756 8.69727C10.1684 8.69727 8.69824 10.1685 8.69824 11.9756C8.69849 13.7824 10.1686 15.2529 11.9756 15.2529C13.7825 15.2529 15.2527 13.7824 15.2529 11.9756C15.2529 10.1685 13.7826 8.69728 11.9756 8.69727ZM0.748047 4.39258V11.6064L6.99316 15.2119L8.78516 14.1777C8.35122 13.5515 8.09482 12.7935 8.09473 11.9756C8.09473 9.8355 9.83553 8.09375 11.9756 8.09375C12.4182 8.09376 12.8434 8.17042 13.2402 8.30762V4.39355L11.3438 3.29883L5.09863 6.9043V8.53125C5.09856 8.61197 5.06622 8.68839 5.01074 8.74414L4.94727 8.79199C4.90075 8.81891 4.84884 8.83293 4.79688 8.83301C4.74475 8.83301 4.69218 8.81896 4.64551 8.79199L2.48145 7.54297C2.38807 7.48904 2.33105 7.38902 2.33105 7.28125V5.48145C2.33118 5.37381 2.38822 5.27454 2.48145 5.2207L8.5752 1.70117L6.99316 0.787109L0.748047 4.39258ZM12.5674 9.62695C13.5355 9.62705 14.323 10.4149 14.3232 11.3828C14.3232 12.351 13.5357 13.1386 12.5674 13.1387H10.8867L11.7939 13.7734C11.9305 13.869 11.9638 14.0577 11.8682 14.1943C11.8096 14.278 11.716 14.3231 11.6211 14.3232C11.5615 14.3232 11.5008 14.3053 11.4482 14.2686L9.75684 13.085C9.67631 13.0285 9.62793 12.9354 9.62793 12.8369C9.62806 12.7385 9.67638 12.6462 9.75684 12.5898L11.4482 11.4062C11.5848 11.3109 11.7726 11.344 11.8682 11.4805C11.9636 11.617 11.9304 11.8049 11.7939 11.9004L10.8877 12.5352H12.5674C13.2026 12.5351 13.7197 12.018 13.7197 11.3828C13.7195 10.7478 13.2025 10.2315 12.5674 10.2314H10.751C10.5843 10.2314 10.4492 10.0954 10.4492 9.92871C10.4495 9.76226 10.5844 9.62695 10.751 9.62695H12.5674ZM2.93457 5.65527V7.10742L4.49512 8.00879V6.73145C4.49512 6.62365 4.55202 6.52365 4.64551 6.46973L10.7393 2.9502L9.17969 2.04883L2.93457 5.65527Z" fill="#022253" stroke="black" stroke-width="0.1"/>
</g>
<defs>
<clipPath id="clip0_1_2830">
<rect width="16" height="16" fill="white"/>
</clipPath>
</defs>
</svg>
