<svg width="54" height="57" viewBox="0 0 54 57" fill="none" xmlns="http://www.w3.org/2000/svg">
<path d="M6.99432 50.0055C7.23182 50.243 7.52869 50.3499 7.83744 50.3499C8.14619 50.3499 8.44307 50.2312 8.68057 50.0055L18.7981 39.888C22.2656 42.9637 26.6712 44.6499 31.3499 44.6499C36.4206 44.6499 41.1943 42.6786 44.7806 39.0805C48.3668 35.4943 50.3499 30.7205 50.3499 25.6499C50.3499 20.5793 48.3787 15.8055 44.7806 12.2193C41.1943 8.63303 36.4206 6.6499 31.3499 6.6499C26.2793 6.6499 21.5056 8.62115 17.9193 12.2193C14.3331 15.8055 12.3499 20.5793 12.3499 25.6499C12.3499 30.3287 14.0481 34.7343 17.1118 38.2018L6.99432 48.3193C6.53119 48.7824 6.53119 49.5424 6.99432 50.0055ZM14.7249 25.6499C14.7249 21.2087 16.4587 17.0287 19.5937 13.8937C22.7287 10.7587 26.9087 9.0249 31.3499 9.0249C35.7912 9.0249 39.9712 10.7587 43.1062 13.8937C46.2412 17.0287 47.9749 21.2087 47.9749 25.6499C47.9749 30.0912 46.2412 34.2593 43.1062 37.4062C39.9712 40.553 35.7912 42.2749 31.3499 42.2749C26.9087 42.2749 22.7406 40.5412 19.5937 37.4062C16.4587 34.2712 14.7249 30.0912 14.7249 25.6499Z" fill="#F40B0B"/>
<path d="M31.35 38.4751C38.5581 38.4751 44.4125 32.6207 44.4125 25.4126C44.4125 24.7595 43.8781 24.2251 43.225 24.2251C42.5719 24.2251 42.0375 24.7595 42.0375 25.4126C42.0375 31.3026 37.24 36.1001 31.35 36.1001C30.6969 36.1001 30.1625 36.6345 30.1625 37.2876C30.1625 37.9407 30.6969 38.4751 31.35 38.4751Z" fill="#F40B0B"/>
</svg>
