<svg width="55" height="63" viewBox="0 0 55 63" fill="none" xmlns="http://www.w3.org/2000/svg">
<path d="M41.7902 0C35.0234 0 29.5181 5.50535 29.5181 12.2721C29.5181 19.039 35.0234 24.5437 41.7902 24.5437C48.557 24.5437 54.0624 19.0384 54.0624 12.2721C54.0624 5.50475 48.557 0 41.7902 0ZM41.7902 22.1409C36.3479 22.1409 31.9208 17.7138 31.9208 12.2721C31.9208 6.82987 36.3479 2.40277 41.7902 2.40277C47.2325 2.40277 51.6596 6.82987 51.6596 12.2721C51.6596 17.7138 47.2325 22.1409 41.7902 22.1409Z" fill="#F40B0B"/>
<path d="M4.49498 46.1556H6.04597C6.60582 48.9158 9.05064 51.0002 11.9736 51.0002C14.8966 51.0002 17.3414 48.9158 17.9012 46.1556H35.8625C36.4224 48.9158 38.8672 51.0002 41.7902 51.0002C44.7138 51.0002 47.1586 48.9158 47.7178 46.1556H49.3181C51.7965 46.1556 53.813 44.1391 53.813 41.6606V40.0646C53.813 34.3454 49.1631 29.693 43.4475 29.693H40.2554L34.3602 23.7978C31.6907 21.1277 28.1406 19.6572 24.3647 19.6572H22.368C20.4746 19.6572 18.6209 19.975 16.8578 20.6027C16.0307 20.8977 15.4078 21.1524 14.9548 21.3824C13.9493 21.893 13.0068 22.5412 12.1532 23.3094C10.795 24.5312 9.73843 25.9681 9.01279 27.5798C8.64336 28.4003 8.36885 29.1428 8.19285 29.7975C3.57352 30.4493 0 34.4253 0 39.2152V41.66C0 44.1391 2.01652 46.1556 4.49498 46.1556ZM11.9742 48.5974C9.96369 48.5974 8.328 46.9617 8.328 44.9518C8.328 42.9419 9.96369 41.3056 11.9742 41.3056C13.9847 41.3056 15.6198 42.9413 15.6198 44.9518C15.6198 46.9623 13.9847 48.5974 11.9742 48.5974ZM41.7902 48.5974C39.7797 48.5974 38.1446 46.9617 38.1446 44.9518C38.1446 42.9419 39.7803 41.3056 41.7902 41.3056C43.8001 41.3056 45.4364 42.9413 45.4364 44.9518C45.4364 46.9623 43.8007 48.5974 41.7902 48.5974ZM32.6615 25.496L36.8579 29.6924H27.6925L26.6317 27.2608C26.3662 26.6529 25.6574 26.3748 25.0501 26.6403C24.4422 26.9052 24.1641 27.6134 24.4296 28.2219L25.0711 29.6924H22.4299V22.0594H24.3647C27.4991 22.0594 30.4455 23.28 32.6615 25.496ZM11.2035 28.5649C11.791 27.2596 12.6512 26.0918 13.7595 25.0947C14.4569 24.4676 15.2246 23.939 16.0415 23.5245C16.2866 23.4001 16.7671 23.1851 17.6634 22.8655C18.4323 22.5922 19.2222 22.3898 20.0265 22.2552V29.6924H10.7446C10.8695 29.3434 11.0239 28.9656 11.2035 28.5649ZM2.40277 39.2152C2.40277 35.3089 5.57803 32.1186 9.47893 32.0958C9.48433 32.0958 9.48914 32.0976 9.49455 32.0976H26.905H26.9068H26.9098H39.2342C39.242 32.0976 39.2492 32.0952 39.2577 32.0952H43.4475C46.645 32.0952 49.401 33.9952 50.6666 36.7223H49.0484C48.3852 36.7223 47.847 37.2605 47.847 37.9237C47.847 38.5869 48.3852 39.1251 49.0484 39.1251H51.3502C51.3868 39.4338 51.4103 39.7456 51.4103 40.064V40.4664C50.7826 40.5061 50.2846 41.0227 50.2846 41.66C50.2846 42.179 50.6156 42.6169 51.0763 42.7851C50.7039 43.3654 50.0569 43.7528 49.3175 43.7528H47.719C47.161 40.9896 44.7156 38.9028 41.7902 38.9028C38.8654 38.9028 36.42 40.9896 35.8619 43.7528H17.9024C17.3444 40.9896 14.899 38.9028 11.9742 38.9028C9.04943 38.9028 6.60341 40.9896 6.04537 43.7528H4.49498C3.34165 43.7528 2.40277 42.8139 2.40277 41.66V39.2152Z" fill="#F40B0B"/>
<path d="M19.8139 42.4526H24.6507C25.3139 42.4526 25.8521 41.9144 25.8521 41.2512C25.8521 40.588 25.3139 40.0498 24.6507 40.0498H19.8139C19.1508 40.0498 18.6125 40.588 18.6125 41.2512C18.6125 41.9144 19.1508 42.4526 19.8139 42.4526Z" fill="#F40B0B"/>
<path d="M28.4531 42.4526H30.3891C31.0523 42.4526 31.5905 41.9144 31.5905 41.2512C31.5905 40.588 31.0523 40.0498 30.3891 40.0498H28.4531C27.7899 40.0498 27.2517 40.588 27.2517 41.2512C27.2517 41.9144 27.7893 42.4526 28.4531 42.4526Z" fill="#F40B0B"/>
<path d="M11.9743 46.4461C12.7997 46.4461 13.4688 45.777 13.4688 44.9516C13.4688 44.1262 12.7997 43.457 11.9743 43.457C11.1489 43.457 10.4797 44.1262 10.4797 44.9516C10.4797 45.777 11.1489 46.4461 11.9743 46.4461Z" fill="#F40B0B"/>
<path d="M41.7903 46.4461C42.6157 46.4461 43.2848 45.777 43.2848 44.9516C43.2848 44.1262 42.6157 43.457 41.7903 43.457C40.9649 43.457 40.2958 44.1262 40.2958 44.9516C40.2958 45.777 40.9649 46.4461 41.7903 46.4461Z" fill="#F40B0B"/>
<path d="M46.3512 8.45498L40.7641 14.6469L37.3828 10.6235C36.9558 10.1159 36.1977 10.0498 35.6901 10.4763C35.1819 10.9034 35.1164 11.6615 35.5429 12.1691L39.812 17.2485C40.0355 17.5146 40.3635 17.6708 40.7107 17.6768H40.7317C41.0711 17.6768 41.3955 17.5326 41.6237 17.2804L48.1352 10.0642C48.5798 9.57167 48.5407 8.81239 48.0481 8.36728C47.5556 7.92277 46.7963 7.96241 46.3512 8.45498Z" fill="#F40B0B"/>
</svg>
