<svg width="57" height="57" viewBox="0 0 57 57" fill="none" xmlns="http://www.w3.org/2000/svg">
<g clip-path="url(#clip0_451_791)">
<path d="M56.086 34.4082C55.0239 32.9631 52.7306 31.9445 49.7525 33.8137L38.4405 39.5393C37.512 38.3971 36.0202 37.6757 34.3013 37.6556L10.2867 37.3884V34.8613C10.2867 34.4305 9.93825 34.082 9.50741 34.082H0.872803C0.441963 34.082 0.0935059 34.4305 0.0935059 34.8613V51.9023C0.0935059 54.7122 2.38019 56.9989 5.19011 56.9989H9.50741C9.93825 56.9989 10.2867 56.6504 10.2867 56.2196V53.6891C15.8175 54.494 20.3764 54.897 24.3174 54.897C28.5334 54.897 32.0424 54.4361 35.2765 53.5132C41.6668 51.6908 47.4358 47.9334 55.1887 40.5446C57.3462 38.7032 57.2627 36.0113 56.086 34.4082ZM8.727 55.4403H5.19011C3.23964 55.4403 1.6521 53.8539 1.6521 51.9023V35.6417H8.727V55.4403ZM54.1622 39.3701C54.15 39.3801 54.1389 39.3901 54.1277 39.4013C40.0481 52.8241 31.753 55.2688 10.2867 52.1138V38.9481L34.2835 39.2142C35.9278 39.2331 37.6879 40.2229 37.8716 42.0787C37.9651 43.0172 37.6434 43.9935 37.011 44.6893C36.4889 45.2638 35.8087 45.58 35.0951 45.58C35.0917 45.58 35.0884 45.58 35.085 45.58L18.9781 45.5009H18.9748C18.5461 45.5009 18.1977 45.8471 18.1955 46.2769C18.1932 46.7077 18.5406 47.0584 18.9714 47.0606L35.0784 47.1397H35.0962C36.254 47.1397 37.3439 46.642 38.1655 45.7392C39.0906 44.7216 39.5604 43.2955 39.4235 41.9262C39.3879 41.571 39.3122 41.2293 39.2008 40.9042L50.4906 35.1908C50.5129 35.1797 50.5352 35.1674 50.5563 35.1541C52.6404 33.8326 54.1311 34.3815 54.8313 35.3344C55.5917 36.3698 55.6173 38.1388 54.1622 39.3701ZM5.45173 40.3843V38.3325C5.45173 37.9017 5.80019 37.5532 6.23103 37.5532C6.66187 37.5532 7.01032 37.9017 7.01032 38.3325V40.3843C7.01032 40.8151 6.66187 41.1636 6.23103 41.1636C5.80019 41.1636 5.45173 40.8151 5.45173 40.3843ZM5.45173 52.7517V44.0737C5.45173 43.6429 5.80019 43.2944 6.23103 43.2944C6.66187 43.2944 7.01032 43.6429 7.01032 44.0737V52.7517C7.01032 53.1826 6.66187 53.531 6.23103 53.531C5.80019 53.531 5.45173 53.1826 5.45173 52.7517ZM14.5528 33.4073H43.3367C45.1035 33.4073 46.2735 32.9843 46.9148 32.1148C47.831 30.8724 47.2922 29.1301 47.0027 28.1938L42.0197 12.1181C41.4152 10.1698 39.8543 9.00756 37.8449 9.00756H33.7547V4.81271C33.7558 2.15977 31.5971 0 28.9431 0C26.289 0 24.1304 2.15865 24.1304 4.81271V9.00645H20.0402C18.0307 9.00645 16.4699 10.1698 15.8654 12.1181L11.1261 27.4146C11.0916 27.5259 11.0549 27.6405 11.0181 27.7563C10.5817 29.1301 10.0384 30.8401 10.9658 32.1081C11.6048 32.9821 12.7782 33.4073 14.5528 33.4073ZM25.689 4.81271C25.689 3.01922 27.1485 1.55971 28.9431 1.55971C30.7377 1.55971 32.1972 3.01922 32.1972 4.81271V9.00645H25.6901V4.81271H25.689ZM12.5033 28.2284C12.5411 28.1081 12.579 27.9912 12.6146 27.8754L17.3549 12.5801C17.5431 11.9745 18.181 10.5662 20.0413 10.5662H24.1315V13.533C24.1315 13.9639 24.4799 14.3123 24.9108 14.3123C25.3416 14.3123 25.6901 13.9639 25.6901 13.533V10.5662H32.1972V13.533C32.1972 13.9639 32.5457 14.3123 32.9765 14.3123C33.4073 14.3123 33.7558 13.9639 33.7558 13.533V10.5662H37.846C39.7063 10.5662 40.3442 11.9745 40.5323 12.5801L45.5154 28.6547C45.8249 29.6556 46.0564 30.6553 45.6612 31.1897C45.3428 31.6205 44.5401 31.8487 43.3378 31.8487H14.5528C13.346 31.8487 12.54 31.6205 12.2238 31.1875C11.7629 30.5573 12.1737 29.2659 12.5033 28.2284Z" fill="#F40B0B"/>
</g>
<defs>
<clipPath id="clip0_451_791">
<rect width="57" height="57" fill="white"/>
</clipPath>
</defs>
</svg>
