<svg width="64" height="63" viewBox="0 0 64 63" fill="none" xmlns="http://www.w3.org/2000/svg">
<path d="M54.5 7.37646H9.5C8.04187 7.37828 6.64397 7.95832 5.61291 8.98938C4.58186 10.0204 4.00181 11.4183 4 12.8765V44.3765C4.00181 45.8346 4.58186 47.2325 5.61291 48.2635C6.64397 49.2946 8.04187 49.8747 9.5 49.8765H25.5543L31.252 56.2905C31.3465 56.3953 31.4618 56.479 31.5907 56.5363C31.7196 56.5936 31.859 56.6232 32.0001 56.6232C32.1411 56.6232 32.2806 56.5936 32.4094 56.5363C32.5383 56.4789 32.6537 56.3952 32.7481 56.2905L38.4458 49.8765H54.5C55.9581 49.8747 57.356 49.2946 58.3871 48.2635C59.4181 47.2325 59.9982 45.8346 60 44.3765V12.8765C59.9982 11.4183 59.4181 10.0204 58.3871 8.98938C57.356 7.95832 55.9581 7.37828 54.5 7.37646ZM58 44.3765C57.9989 45.3044 57.6298 46.194 56.9736 46.8501C56.3175 47.5062 55.4279 47.8753 54.5 47.8765C54.4722 47.882 37.9919 47.8658 37.9685 47.882C37.697 47.9042 37.442 48.0212 37.2481 48.2124L32 54.1206L26.752 48.2124C26.5498 48.0162 26.285 47.8973 26.004 47.8765H9.5C8.57209 47.8753 7.6825 47.5062 7.02637 46.8501C6.37023 46.194 6.00112 45.3044 6 44.3765V12.8765C6.00112 11.9486 6.37023 11.059 7.02637 10.4028C7.6825 9.7467 8.57209 9.37759 9.5 9.37647H54.5C55.4279 9.37759 56.3175 9.7467 56.9736 10.4028C57.6298 11.059 57.9989 11.9486 58 12.8765V44.3765Z" fill="#F40B0B"/>
<path d="M14.3828 21.7029C14.2002 21.6266 13.999 21.6065 13.8049 21.6451C13.6107 21.6837 13.4325 21.7793 13.293 21.9197L10.8926 24.3191C10.7051 24.5066 10.5997 24.7609 10.5997 25.0261C10.5997 25.2913 10.7051 25.5456 10.8926 25.7332C11.0801 25.9207 11.3344 26.026 11.5996 26.026C11.8648 26.026 12.1191 25.9207 12.3067 25.7332L13 25.0398V34.6267C13 34.8919 13.1054 35.1463 13.2929 35.3338C13.4804 35.5214 13.7348 35.6267 14 35.6267C14.2652 35.6267 14.5196 35.5214 14.7071 35.3338C14.8947 35.1463 15 34.8919 15 34.6267V22.6267C15 22.429 14.9414 22.2356 14.8315 22.0712C14.7217 21.9068 14.5655 21.7786 14.3828 21.7029Z" fill="#F40B0B"/>
<path d="M49.8477 21.7323C49.6104 21.6139 49.3358 21.5945 49.0842 21.6783C48.8326 21.7622 48.6246 21.9425 48.5059 22.1796L42.5059 34.1796C42.4471 34.297 42.4121 34.4249 42.4028 34.5559C42.3935 34.6869 42.4101 34.8185 42.4516 34.9431C42.4931 35.0677 42.5588 35.1829 42.6448 35.2821C42.7309 35.3813 42.8356 35.4626 42.9531 35.5214C43.0706 35.5801 43.1985 35.6151 43.3295 35.6244C43.4605 35.6337 43.5921 35.6172 43.7167 35.5756C43.8412 35.5341 43.9564 35.4684 44.0557 35.3824C44.1549 35.2963 44.2362 35.1916 44.2949 35.0741L50.2949 23.0741C50.3537 22.9566 50.3887 22.8287 50.398 22.6977C50.4073 22.5667 50.3908 22.4352 50.3492 22.3106C50.3077 22.186 50.242 22.0708 50.156 21.9715C50.0699 21.8723 49.9651 21.791 49.8477 21.7323Z" fill="#F40B0B"/>
<path d="M45 26.2261C45 25.6723 44.8358 25.131 44.5282 24.6706C44.2205 24.2102 43.7832 23.8513 43.2716 23.6394C42.76 23.4275 42.1971 23.372 41.654 23.4801C41.1109 23.5881 40.612 23.8548 40.2204 24.2463C39.8289 24.6379 39.5622 25.1368 39.4542 25.6799C39.3462 26.223 39.4016 26.7859 39.6135 27.2975C39.8254 27.8091 40.1843 28.2464 40.6447 28.554C41.1051 28.8617 41.6465 29.0259 42.2002 29.0259C42.9425 29.0251 43.6542 28.7299 44.1791 28.205C44.704 27.6801 44.9992 26.9684 45 26.2261ZM42.2002 27.0259C42.042 27.0259 41.8874 26.979 41.7559 26.8911C41.6243 26.8032 41.5218 26.6783 41.4613 26.5322C41.4008 26.386 41.3849 26.2252 41.4158 26.0701C41.4466 25.9149 41.5228 25.7724 41.6347 25.6605C41.7465 25.5487 41.889 25.4725 42.0442 25.4417C42.1993 25.4108 42.3601 25.4266 42.5063 25.4872C42.6524 25.5477 42.7773 25.6502 42.8652 25.7817C42.9531 25.9133 43 26.0679 43 26.2261C42.9999 26.4382 42.9156 26.6415 42.7656 26.7915C42.6157 26.9415 42.4123 27.0258 42.2002 27.0259Z" fill="#F40B0B"/>
<path d="M50.5996 28.2261C50.0458 28.2262 49.5044 28.3905 49.0439 28.6983C48.5835 29.0061 48.2246 29.4435 48.0128 29.9552C47.8009 30.4669 47.7456 31.03 47.8537 31.5732C47.9619 32.1164 48.2286 32.6153 48.6203 33.0068C49.012 33.3984 49.5111 33.665 50.0543 33.773C50.5975 33.8809 51.1605 33.8254 51.6722 33.6133C52.1838 33.4013 52.6211 33.0423 52.9287 32.5817C53.2364 32.1212 53.4005 31.5797 53.4004 31.0259C53.3996 30.2834 53.1042 29.5716 52.5791 29.0466C52.054 28.5217 51.3421 28.2266 50.5996 28.2261ZM50.5996 31.8267C50.4414 31.8266 50.2867 31.7796 50.1552 31.6916C50.0237 31.6036 49.9211 31.4786 49.8606 31.3324C49.8001 31.1862 49.7843 31.0253 49.8152 30.8701C49.8461 30.7149 49.9223 30.5724 50.0342 30.4605C50.1461 30.3486 50.2887 30.2724 50.4439 30.2415C50.5991 30.2106 50.7599 30.2264 50.9061 30.2869C51.0524 30.3474 51.1773 30.4499 51.2653 30.5814C51.3533 30.713 51.4003 30.8676 51.4004 31.0259C51.4004 31.2382 51.316 31.4419 51.1658 31.5921C51.0156 31.7422 50.812 31.8266 50.5996 31.8267Z" fill="#F40B0B"/>
<path d="M21.5996 21.6265C20.3802 21.6279 19.2111 22.1129 18.3488 22.9752C17.4865 23.8375 17.0014 25.0066 17 26.2261V31.0258C17 32.2459 17.4847 33.4159 18.3473 34.2786C19.21 35.1413 20.3801 35.6259 21.6001 35.6259C22.8201 35.6259 23.9902 35.1413 24.8529 34.2786C25.7155 33.4159 26.2002 32.2459 26.2002 31.0258V26.226C26.1987 25.0064 25.7135 23.8372 24.851 22.9749C23.9885 22.1126 22.8192 21.6277 21.5996 21.6265ZM24.2002 31.0258C24.2002 31.3673 24.1329 31.7054 24.0023 32.0209C23.8716 32.3363 23.6801 32.623 23.4386 32.8644C23.1972 33.1058 22.9106 33.2974 22.5951 33.428C22.2797 33.5587 21.9415 33.6259 21.6001 33.6259C21.2586 33.6259 20.9205 33.5587 20.6051 33.428C20.2896 33.2974 20.003 33.1058 19.7616 32.8644C19.5201 32.623 19.3286 32.3363 19.1979 32.0209C19.0673 31.7054 19 31.3673 19 31.0258V26.226C19 25.5365 19.2739 24.8751 19.7616 24.3875C20.2492 23.8999 20.9105 23.6259 21.6001 23.6259C22.2897 23.6259 22.951 23.8999 23.4386 24.3875C23.9263 24.8751 24.2002 25.5365 24.2002 26.226V31.0258Z" fill="#F40B0B"/>
<path d="M32.7998 21.6265C31.5803 21.6279 30.4112 22.1129 29.5489 22.9752C28.6867 23.8375 28.2016 25.0066 28.2002 26.2261V31.0258C28.1993 31.6305 28.3176 32.2294 28.5484 32.7883C28.7792 33.3472 29.1179 33.8551 29.5451 34.283C29.9724 34.7109 30.4798 35.0503 31.0383 35.2819C31.5969 35.5135 32.1956 35.6327 32.8003 35.6327C33.405 35.6327 34.0037 35.5135 34.5622 35.2819C35.1208 35.0503 35.6282 34.7109 36.0555 34.283C36.4827 33.8551 36.8214 33.3472 37.0522 32.7883C37.283 32.2294 37.4013 31.6305 37.4004 31.0258V26.226C37.3989 25.0064 36.9137 23.8372 36.0512 22.9749C35.1887 22.1126 34.0194 21.6277 32.7998 21.6265ZM35.4004 31.0258C35.4011 31.3677 35.3343 31.7064 35.2039 32.0224C35.0736 32.3385 34.8822 32.6257 34.6406 32.8677C34.3991 33.1097 34.1123 33.3016 33.7965 33.4326C33.4807 33.5636 33.1422 33.631 32.8003 33.631C32.4584 33.631 32.1199 33.5636 31.8041 33.4326C31.4883 33.3016 31.2015 33.1097 30.9599 32.8677C30.7184 32.6257 30.527 32.3385 30.3967 32.0224C30.2663 31.7064 30.1995 31.3677 30.2002 31.0258V26.226C30.2016 25.5373 30.4761 24.8773 30.9636 24.3908C31.451 23.9043 32.1116 23.631 32.8003 23.631C33.489 23.631 34.1496 23.9043 34.637 24.3908C35.1245 24.8773 35.399 25.5373 35.4004 26.226V31.0258Z" fill="#F40B0B"/>
</svg>
