<svg width="55" height="55" viewBox="0 0 55 55" fill="none" xmlns="http://www.w3.org/2000/svg">
<path d="M35.214 20.8207C34.3641 19.1999 32.3523 18.5711 30.7276 19.4219L17.3322 26.4493C15.7053 27.302 15.0793 29.3078 15.9326 30.9358L23.276 44.9362C24.1273 46.5575 26.1382 47.1867 27.7632 46.335L41.1594 39.3084C42.7856 38.4552 43.4115 36.4483 42.5582 34.8219L35.214 20.8207ZM40.4074 37.8755L27.0113 44.9021C26.1787 45.3413 25.1464 45.0167 24.7088 44.1841L17.3654 30.1837C16.9316 29.3565 17.2395 28.3246 18.0834 27.8821L31.4787 20.8546C32.3256 20.4127 33.3507 20.7507 33.7812 21.5726L41.1254 35.5737C41.5644 36.4109 41.2409 37.4383 40.4074 37.8755Z" fill="#F40B0B"/>
<path d="M46.3559 27.4918L53.6596 17.9638C54.2581 17.1793 54.3552 16.144 53.9184 15.2624C53.4897 14.3807 52.6081 13.8389 51.6294 13.8389H51.0713V5.41897C51.0713 3.65574 49.6397 2.22412 47.8765 2.22412H40.7831C39.0199 2.22412 37.5882 3.65574 37.5882 5.41897V13.8388H37.0302C36.9412 13.8388 36.8603 13.8468 36.7713 13.855L35.0485 10.5631C33.9081 8.40353 31.2228 7.56236 29.0632 8.7028L27.6397 9.44692L26.3213 6.92331C25.5044 5.37036 23.5794 4.77183 22.0265 5.58875L19.1552 7.09316C17.4971 5.38654 15.0382 4.14095 12.2963 3.66375C6.69927 2.67698 1.58751 5.09536 0.891919 9.0586C0.188243 13.0218 4.17574 17.0417 9.76471 18.0285C10.1287 18.0932 10.4846 18.1336 10.8404 18.166L10.8809 18.2387L9.45744 18.9829C7.28971 20.1152 6.45671 22.8005 7.58906 24.9682L20.9266 50.3976C22.0852 52.6086 24.8236 53.3885 26.9119 52.266L46.5258 41.9858C48.683 40.8488 49.5318 38.1826 48.3861 35.9924L44.4391 28.4785C45.1912 28.4381 45.8868 28.0903 46.3559 27.4918ZM9.55442 15.7234L9.91839 16.4109C5.27574 15.5454 1.94339 12.391 2.4853 9.33368C3.02721 6.26015 7.2978 4.42412 12.0132 5.25721C14.2375 5.64544 16.2434 6.58368 17.6588 7.87788L10.8971 11.4204C9.28613 12.2693 8.7646 14.2244 9.55442 15.7234ZM46.9544 36.7447C47.666 38.1183 47.1726 39.8035 45.7735 40.5543L26.1677 50.8344C24.7927 51.5543 23.086 51.0205 22.3662 49.6455L9.0206 24.216C8.30074 22.841 8.83457 21.1344 10.2096 20.4146L12.3449 19.2984C12.7331 19.0962 12.8787 18.619 12.6927 18.2307C14.5045 18.1741 16.1788 17.7616 17.5619 17.0579C18.511 17.7495 19.8423 17.9477 21.0802 17.3087C22.7177 16.4565 23.351 14.423 22.4957 12.7793C21.6302 11.1374 19.6001 10.5065 17.9582 11.3638C16.3567 12.205 15.7177 14.1785 16.5023 15.7962C15.2082 16.3866 13.5986 16.6859 11.8596 16.6212L10.9861 14.9712C10.5995 14.2301 10.86 13.2639 11.6494 12.8521L22.7707 7.02045C23.5391 6.61603 24.4854 6.9153 24.8898 7.67559L26.5883 10.9109C26.7866 11.3076 27.2902 11.4619 27.6802 11.2506L29.8155 10.1344C31.1257 9.43139 32.8608 9.88869 33.6089 11.3153L35.2913 14.5263C34.3767 15.3428 34.1447 16.838 34.9919 17.9638L41.6728 26.6749L46.9544 36.7447ZM17.9015 14.9631C17.5941 14.1463 17.9257 13.2079 18.7103 12.7954C18.969 12.6579 19.2441 12.6013 19.511 12.6013C19.2846 13.5234 18.7184 14.3241 17.9015 14.9631ZM20.9669 13.394C20.9993 13.4344 21.0316 13.4749 21.064 13.5315C21.5016 14.39 21.169 15.4482 20.3279 15.8771C19.9478 16.0793 19.5271 16.1197 19.1147 16.0227C19.9882 15.2947 20.6272 14.405 20.9669 13.394ZM43.5735 26.505L36.278 16.9771C35.8052 16.3467 36.2423 15.4565 37.0302 15.4565H38.3971C38.8419 15.4565 39.2059 15.0925 39.2059 14.6477V5.41897C39.2059 4.54544 39.9177 3.84177 40.7831 3.84177H47.8765C48.75 3.84177 49.4537 4.54544 49.4537 5.41897V14.6477C49.4537 15.0925 49.8177 15.4565 50.2625 15.4565H51.6294C51.9934 15.4565 52.3088 15.6506 52.4706 15.9822C52.6324 16.3138 52.6 16.6859 52.3735 16.9771L45.0699 26.505C44.714 26.966 43.9294 26.966 43.5735 26.505Z" fill="#F40B0B"/>
<path d="M31.0877 26.4889C30.6533 26.3941 30.2197 26.669 30.1241 27.105L27.7363 37.9759C27.6407 38.4127 27.9165 38.8439 28.3524 38.9395C28.7964 39.0355 29.2214 38.7542 29.3161 38.3235L31.7038 27.4525C31.7994 27.0158 31.5237 26.5844 31.0877 26.4889Z" fill="#F40B0B"/>
<path d="M27.3051 29.1554C26.6329 27.8553 25.0255 27.3426 23.7223 28.014C22.413 28.6908 21.9065 30.2935 22.5801 31.5969C23.2523 32.8972 24.8562 33.4127 26.1638 32.739C27.473 32.0623 27.9796 30.4595 27.3059 29.1562C27.3058 29.1561 27.3058 29.1561 27.3051 29.1554ZM25.4213 31.3014C24.908 31.5678 24.2817 31.3661 24.0176 30.8544C23.7573 30.3513 23.9444 29.7209 24.4647 29.4516C24.9753 29.187 25.6053 29.391 25.869 29.8994C26.1292 30.4052 25.9394 31.0332 25.4213 31.3014Z" fill="#F40B0B"/>
<path d="M32.9803 33.0185C31.6786 33.6914 31.1668 35.2988 31.839 36.6005C32.5131 37.9047 34.1115 38.4188 35.4218 37.7435C36.7251 37.0697 37.2369 35.4624 36.564 34.1598C35.8909 32.859 34.2867 32.3439 32.9803 33.0185ZM34.6792 36.306C34.1674 36.5683 33.5423 36.3734 33.2764 35.8581C33.0126 35.3486 33.2141 34.7191 33.7235 34.4553C34.2326 34.1915 34.8631 34.3929 35.1263 34.9023C35.3934 35.4201 35.1881 36.0434 34.6792 36.306Z" fill="#F40B0B"/>
</svg>
