<svg preserveAspectRatio="none" width="100%" height="100%" overflow="visible" style="display: block;" viewBox="0 0 27 26.7936" fill="none" xmlns="http://www.w3.org/2000/svg">
<g id="Group">
<path id="Vector" d="M26.6495 13.7487L27 13.3977L26.6495 13.0481C26.6495 13.0481 26.6495 13.0481 26.6495 13.0472L13.7477 0.144984C13.5544 -0.0483281 13.2396 -0.0483281 13.0462 0.144984C12.8529 0.338297 12.8529 0.65312 13.0462 0.846432L25.1009 12.901H0.496239C0.222203 12.901 0 13.1241 0 13.3973C0 13.6717 0.222203 13.8935 0.496239 13.8935H25.1009L13.0471 25.9477C12.8538 26.1406 12.8538 26.4554 13.0471 26.6492C13.1444 26.7465 13.2714 26.7936 13.3985 26.7936C13.5255 26.7936 13.6525 26.7452 13.7498 26.6492L26.6495 13.7487V13.7487Z" fill="var(--fill-0, white)"/>
</g>
</svg>
